<?xml version="1.0" encoding="utf-8"?>
<!-- Generator: Adobe Illustrator 21.0.2, SVG Export Plug-In . SVG Version: 6.00 Build 0)  -->
<svg version="1.1" id="Layer_1" xmlns="http://www.w3.org/2000/svg" xmlns:xlink="http://www.w3.org/1999/xlink" x="0px" y="0px"
	 viewBox="0 0 330.2 118" style="enable-background:new 0 0 330.2 118;" xml:space="preserve">
<style type="text/css">
	.st0{fill:#98813C;}
	.st1{fill:#016F5C;}
	.st2{fill:#CFC9C3;}
	.st3{fill:#99803D;}
	.st4{fill:#FFFFFF;}
	.st5{fill:#805622;}
	.st6{fill:#CFCAC4;}
	.st7{fill-rule:evenodd;clip-rule:evenodd;fill:#FFFFFF;}
</style>
<g id="XMLID_6548_">
	<g id="XMLID_6549_">
		<g id="XMLID_6596_">
			<path id="XMLID_6638_" class="st5" d="M47.5,91.1c-3.7,0.5-9.1-0.9-12.1-3.2c-3.1-2.4-6.1-7-6.6-11.1c-1.5-9.5-3-19-4.5-28.5
				c-0.8-3.9,0.6-9.2,2.9-12.4c2.6-3.5,6.6-6,11-6.7c4.4-0.7,9,0.5,12.5,2.9c3.2,2.2,6,6.9,6.5,10.7c0.2,1.9-0.2,3.7-1.3,5.3
				c-1.1,1.6-2.7,2.5-4.6,2.8c-1.9,0.3-3.6-0.2-5.1-1.3c-1.5-1.1-2.4-2.7-2.7-4.5c0.6,2.1,1.8,3,3.7,2.7c0.9-0.1,1.6-0.6,2.1-1.3
				c0.5-0.7,0.7-1.5,0.6-2.4c-0.4-2.7-1.7-4.8-3.9-6.3c-2.3-1.5-4.8-2-7.5-1.4c-2.4,0.6-4.3,1.9-5.7,3.9c-1.3,2-1.8,4.3-1.5,6.7
				c1.5,9.7,2.9,19.4,4.4,29c0.4,2.5,1.6,4.6,3.6,6.1c2,1.6,4.3,2.2,6.7,1.8c2.5-0.3,4.4-1.5,6-3.6c1.5-2,2.1-4.3,1.8-6.8
				c-0.4-2.9-0.6-4.3-0.9-7.2c2-0.3,3.7,0.2,5.2,1.4c1.6,1.2,2.5,2.9,2.7,4.8c0,0.1,0,0.2,0,0.3c0.7,3.8-1,9-3.2,11.9
				C55.7,87.9,51.1,90.6,47.5,91.1z M39,37.8c0.3-0.1,0.5-0.1,0.7-0.1c1.7-0.2,3.4,0,4.9,0.9c-1-0.1-1.9,0-2.9,0.2
				c-2.4,0.5-4.3,1.8-5.6,3.9c-1.4,2-1.9,4.3-1.5,6.7c1.4,9.7,2.8,19.3,4.3,29c0.1,0.7,0.3,1.4,0.6,2c-1.2-1.3-2-2.7-2.2-4.4
				c-1.4-9.7-2.9-19.4-4.3-29c-0.3-2.1,0.1-4,1.3-5.7C35.3,39.4,37,38.3,39,37.8z M62.2,72.6c-0.1-0.6-0.2-1.2-0.4-1.8
				c1.1,1.2,1.8,2.6,2,4.2c0,0.1,0,0.2,0,0.3c0.6,3.8-1,9-3.2,11.9c-2.1,2.9-6.6,5.7-10.3,6.1c-2.8,0.3-5.6,0-8.3-1.1
				c1.9,0.4,3.8,0.4,5.6,0.2c4.5-0.6,8.5-3.1,11.1-6.7c2.7-3.7,4-8.3,3.5-12.9C62.2,72.7,62.2,72.7,62.2,72.6z M57,49.1
				c1.4-1.9,2-4,1.7-6.4c-0.3-1.7-0.8-3.4-1.5-5c1.7,2.2,2.7,4.7,3.1,7.5c0.3,1.9-0.1,3.7-1.3,5.2c-1.2,1.6-2.7,2.5-4.6,2.8
				c-1.6,0.2-3.1-0.1-4.5-0.9c0.6,0,1.2,0,1.7,0C53.8,52,55.6,51,57,49.1z"/>
			<path id="XMLID_6627_" class="st5" d="M81.8,63.9c-4.5,0.5-9.6-0.2-12.7-3.9c-0.7-0.8-1.2-1.7-1.6-2.7c1.3,1,2.7,1.7,4.2,2.1
				c-1-8.9-1.9-17.8-2.9-26.6c-0.3-3-1.9-5.3-4.8-6.7c3.8-0.4,7.6-0.8,11.5-1.2c3.7-0.4,5.5-0.5,9.1-0.9c4.6-0.4,9.5,1,12.6,4
				c3,2.9,5.8,6.6,5.9,11.4c0.1,1.9,0.2,2.9,0.3,4.8c0.2,3.2-0.6,6.2-2.4,9.1c-1.8,2.8-4.4,5.2-7.6,7c0.7,0.2,1.3,0.4,1.9,0.7
				c4.4,2,6.1,6.9,6.4,11.3c0.2,3.4,0.7,6,1.2,7.6c0.7,2.2,1.8,3.9,3.5,5.2c-4.3,0.3-7.2-0.5-8.9-2.5c-1.4-1.6-2.4-4.8-2.7-9.2
				c-0.3-4.1-3-7.5-7-8.7c-1.9-0.6-2.8-0.9-2.8-0.9S83.8,63.6,81.8,63.9z M72.2,64.1c2,1.1,4.4,1.6,7.3,1.6c0.5,4.7,0.9,9.4,1.4,14
				c0.3,3,1.8,5.3,4.5,6.9c-4.8,0.5-9.7,1-14.5,1.5c2.3-2.1,3.3-4.6,3-7.6C73.4,75.1,72.8,69.6,72.2,64.1z M73.8,90.5
				c0.5-0.4,0.9-0.9,1.4-1.5c3.8-0.4,7.7-0.8,11.5-1.2c0.5,0.4,1,0.8,1.6,1.2C83.4,89.5,78.6,90,73.8,90.5z M78.9,59.7
				c4.6-0.4,9.1-2.1,12.6-5.1c3.4-2.9,4.9-6.1,4.7-9.7c-0.2-2-0.2-3-0.4-5c-0.2-2.6-1.3-4.7-3.4-6.5c-2-1.7-4.4-2.4-7.1-2.2
				c-3.7,0.3-5.5,0.5-9.2,0.9C77.1,41.2,78,50.4,78.9,59.7z M81.4,58c-0.5,0.1-0.9,0.2-1.3,0.3c-0.8-8.4-1.6-16.7-2.5-25.1
				c3.1-0.3,4.7-0.5,7.9-0.7c1.8-0.2,3.5,0.2,5,1.1c-0.8-0.1-1.5-0.1-2.2-0.1c-3.7,0.3-5.5,0.5-9.2,0.8C79.9,42.2,80.6,50.1,81.4,58
				z M81.9,65.2c1.9-0.2,3.7,0,5.4,0.6c0.6,0.2,1.2,0.5,1.8,0.8c-1.5-0.3-3-0.4-4.4-0.3c-1.3,0.1-2.6,0.1-3.8,0.1
				c0-0.4-0.1-0.6-0.1-1C81.2,65.2,81.6,65.2,81.9,65.2z M84.1,83.9c-1.1-1.2-1.7-2.6-1.9-4.2c-0.4-3.9-0.8-7.7-1.1-11.6
				c0.5,0,0.9,0.1,1.3,0c0.5,4.7,0.9,9.4,1.4,14.1C83.8,82.8,83.9,83.4,84.1,83.9z M104.4,39.2c-0.1-1.9-0.6-3.8-1.4-5.6
				c1.7,2.5,2.7,5.2,2.9,8.2c0.1,1.9,0.2,2.9,0.3,4.8c0.7,6-3.3,11.3-7.9,14.7c-0.6-0.5-1.3-1-2.1-1.3c5-3.7,9.2-9.4,8.5-15.9
				C104.6,42.1,104.6,41.1,104.4,39.2z M101.5,86c1.4,0.3,3.1,0.3,5,0.2c0.5,0,0.8-0.1,1.3-0.1c0.4,0.4,0.8,0.8,1.3,1.2
				C105.7,87.6,103.2,87.2,101.5,86z M105.7,82.5c-1.4-1.7-2.3-5.2-2.7-10.4c-0.2-2.4-0.5-4.3-1.1-5.9c1.5,1.9,2.3,4.7,2.6,8.4
				C104.7,78.2,105.1,80.9,105.7,82.5z"/>
			<path id="XMLID_6623_" class="st5" d="M126,21.1c-2.6,1.9-3.9,4.4-3.7,7.4c0.8,16,1.6,32,2.4,48c0.2,3,1.5,5.4,4.2,7.1
				c-4.8,0.2-9.7,0.5-14.5,0.8c2.4-2,3.6-4.4,3.4-7.5c-0.9-16-1.8-32-2.8-48c-0.2-3-1.7-5.3-4.5-7C115.6,21.6,120.8,21.4,126,21.1z
				 M117,86.9c0.5-0.4,1-0.9,1.4-1.4c3.8-0.2,7.7-0.4,11.5-0.6c0.5,0.5,1,0.9,1.5,1.2C126.6,86.3,121.8,86.6,117,86.9z M123.6,28.5
				c-0.1-1.7,0.4-3.3,1.5-4.7c1.5-0.1,2.2-0.1,3.7-0.2c-2.6,1.9-3.9,4.4-3.7,7.4c0.7,16,1.5,32,2.2,48c0,0.6,0.1,1.2,0.3,1.8
				c-1-1.3-1.6-2.7-1.7-4.3C125.2,60.5,124.4,44.5,123.6,28.5z"/>
			<path id="XMLID_6618_" class="st5" d="M152.9,82.9c-3.8,0.1-8.9-2-11.6-4.6c-2.8-2.7-5.2-7.7-5.2-11.8c-0.3-9.6-0.7-19.2-1-28.9
				c-0.3-4,1.7-9.1,4.4-11.9c3-3.1,7.2-5.2,11.7-5.3c4.4-0.1,8.8,1.5,12.1,4.4c2.9,2.6,5.3,7.5,5.2,11.4c0,10.1,0,20.2,0,30.3
				c0.2,3.9-2,8.8-4.6,11.5C161.4,80.6,156.6,82.8,152.9,82.9z M143.3,66.6c0.1,2.6,1,4.7,2.8,6.5c1.8,1.8,4,2.7,6.4,2.6
				c2.5,0,4.6-1,6.3-2.8c1.7-1.8,2.6-4,2.6-6.6c-0.1-9.9-0.1-19.8-0.2-29.7c0-2.7-1.1-4.9-3.2-6.7c-2.1-1.8-4.5-2.5-7.2-2.2
				c-2.4,0.3-4.5,1.3-6.1,3.2c-1.6,1.9-2.3,4-2.3,6.4C142.7,47,143,56.8,143.3,66.6z M145.9,69.1c0,0.7,0.1,1.4,0.3,2.1
				c-1.1-1.4-1.6-3-1.6-4.7c-0.3-9.8-0.5-19.6-0.8-29.4c-0.1-2.1,0.6-3.9,2-5.5c1.4-1.6,3.1-2.5,5.2-2.7c0.3,0,0.5-0.1,0.8-0.1
				c1.7,0,3.3,0.5,4.8,1.5c-0.9-0.2-1.9-0.2-2.9-0.1c-2.4,0.2-4.5,1.3-6,3.2c-1.6,1.9-2.4,4-2.3,6.5
				C145.4,49.6,145.7,59.4,145.9,69.1z M169.8,36.2c-0.1-1.8-0.3-3.5-0.9-5.1c1.4,2.4,2.1,5,2.2,7.8c0,10.1-0.1,20.2-0.1,30.3
				c0.2,3.9-2.1,8.8-4.6,11.5c-2.5,2.6-7.2,4.9-10.9,4.8c-2.8,0-5.6-0.7-8.1-2.1c1.8,0.6,3.7,0.9,5.6,0.8c4.5-0.1,8.8-2,11.8-5.3
				c3.2-3.3,5-7.8,5-12.4C169.8,56.4,169.8,46.3,169.8,36.2z"/>
			<path id="XMLID_6614_" class="st5" d="M176.5,82.8c2.6-1.8,3.9-4.2,3.9-7.2c0.2-16,0.4-32,0.7-48.1c0-3-1.3-5.5-4-7.3
				c5.2,0,10.4,0.1,15.6,0.3c-2.8,1.7-4.2,4.1-4.2,7.1c-0.4,16-0.7,32.1-1.1,48.1c6,0.1,11.9,0.3,17.9,0.6c2.9,0.1,5.3-1.1,7.2-3.6
				c-0.2,4.5-0.3,6.7-0.6,11.2C200.1,83.3,188.3,82.9,176.5,82.8z M213.6,76.9c0.5-0.4,0.9-0.9,1.3-1.5c-0.2,4.5-0.4,6.7-0.6,11.2
				c-11.8-0.6-23.6-1-35.4-1.2c0.5-0.4,1-0.8,1.5-1.3c10.9,0.2,21.8,0.5,32.7,1.1C213.3,81.9,213.4,80.2,213.6,76.9z M189.8,27.7
				c0-1.7,0.7-3.2,1.8-4.6c1.5,0,2.2,0.1,3.7,0.1c-2.8,1.7-4.2,4.1-4.2,7.2c-0.4,14.7-0.7,29.4-1.1,44.1c-0.5,0-0.8,0-1.3,0
				C189,58.9,189.4,43.3,189.8,27.7z"/>
			<path id="XMLID_6610_" class="st5" d="M219.9,84.3c2.6-1.6,4.1-4,4.3-7c1-16,2-32,3.1-48c0.2-3-1-5.5-3.6-7.5
				c5.2,0.3,10.4,0.7,15.6,1.1c-2.8,1.6-4.4,3.9-4.6,6.9c-1.1,16-2.3,32-3.4,48c6,0.4,11.9,0.9,17.9,1.5c2.9,0.3,5.4-0.8,7.4-3.3
				c-0.4,4.5-0.7,6.7-1.1,11.1C243.5,86,231.7,85,219.9,84.3z M257.3,80.2c0.5-0.4,1-0.9,1.4-1.4c-0.5,4.5-0.7,6.7-1.1,11.1
				c-11.7-1.2-23.5-2.2-35.3-2.9c0.6-0.3,1.1-0.7,1.6-1.2c10.9,0.7,21.7,1.6,32.6,2.7C256.8,85.2,256.9,83.5,257.3,80.2z
				 M235.9,29.9c0.1-1.7,0.8-3.2,2.1-4.5c1.5,0.1,2.2,0.2,3.7,0.3c-2.8,1.6-4.4,3.9-4.6,6.9c-1.1,14.7-2.2,29.3-3.3,44
				c-0.5,0-0.8-0.1-1.3-0.1C233.7,61,234.8,45.5,235.9,29.9z"/>
			<path id="XMLID_6597_" class="st5" d="M263.3,88c3.1-1.5,5.1-3.7,6-6.6c1.6-4.9,3.2-9.9,4.8-14.8c1.9,1.5,4.2,2.2,6.9,1.9
				c-1.5,4.6-3.1,9.1-4.6,13.7c-1,3-0.5,5.5,1.4,7.5C273,89.1,268.1,88.5,263.3,88z M265.5,90.8c0.6-0.3,1.3-0.7,1.9-1.1
				c3.9,0.4,7.7,0.9,11.6,1.4c0.3,0.5,0.7,1,1.1,1.5C275.2,92,270.3,91.4,265.5,90.8z M282.1,66.6c-2.3,0.4-4.4,0.1-6.3-0.9
				c-2.1-1.1-3.6-2.9-4.6-5.4c-0.3-0.9-0.6-1.8-0.7-2.8c1.6,1.9,3.4,2.9,5.5,3.3c2.9-8.7,5.9-17.3,8.9-26c1-2.9,0.5-5.4-1.6-7.5
				c5.2,0.6,10.3,1.3,15.5,2.1c-2.6,1.5-3.7,3.7-3.5,6.8c0.5,6.4,0.9,12.8,1.3,19.1c1.9,0.3,3.6,1.2,4.8,2.7c1,1.2,1.6,2.5,1.8,3.8
				c-0.5-0.4-0.9-0.8-1.4-1.1c-2.3-1.4-4.9-1.4-7.9-0.2c-1.5,0.6-3.5,1.8-6.1,3.6C285.9,65.5,284,66.3,282.1,66.6z M278.2,88
				c-1-1.6-1.2-3.4-0.6-5.4c1.2-3.7,2.5-7.4,3.8-11.2c0.6,0.1,1.2,0.1,1.9,0c-1.6,4.5-3.1,9.1-4.6,13.6
				C278.3,86.1,278.1,87,278.2,88z M282.6,67.8c2-0.4,3.9-1.2,6-2.6c0.1,1.1,0.1,1.6,0.2,2.7c-1.4,0.8-2.9,1.4-4.5,1.6
				c-0.8,0.1-1.5,0.2-2.3,0.1C282.2,68.9,282.4,68.5,282.6,67.8z M284.4,58.6c2.4-1.3,4.1-2.1,4.9-2.4c-0.3-3.9-0.4-5.9-0.7-9.8
				C287.2,50.4,285.8,54.5,284.4,58.6z M287.8,52.9c0.1,1,0.1,1.5,0.2,2.4c-0.4,0.2-0.8,0.4-1.2,0.6
				C287.1,54.7,287.3,54.1,287.8,52.9z M293.6,62.3c1.1-0.5,2.2-0.7,3.3-0.9c0.5,7.9,0.9,15.8,1.3,23.7c0.1,3.1,1.5,5.8,4.1,8
				c-4.9-0.8-9.7-1.5-14.6-2.1c2.4-1.5,3.6-3.8,3.4-6.9c-0.4-6.6-0.8-13.2-1.2-19.7C291.1,63.6,292.3,62.9,293.6,62.3z M296.6,36.1
				c-0.1-1.7,0.3-3.1,1.2-4.2c1.3,0.2,1.9,0.3,3.2,0.5c-2.6,1.5-3.7,3.7-3.5,6.8c0.3,5.1,0.7,10.2,1,15.4c-0.3-0.1-0.5-0.2-0.8-0.2
				C297.4,48.2,297,42.1,296.6,36.1z M289.9,93.9c0.5-0.3,1-0.7,1.4-1.1c3.9,0.6,7.8,1.1,11.6,1.7c0.4,0.6,0.9,1.1,1.5,1.6
				C299.5,95.3,294.7,94.6,289.9,93.9z M301,61.9c0.4,0.3,0.8,0.6,1.3,0.9c0.1,0.1,0.2,0.2,0.3,0.3c-1.3-0.5-2.8-0.6-4.3-0.2
				c0-0.7-0.1-1.1-0.1-1.9c0.2,0,0.4,0.1,0.6,0.1C299.6,61.2,300.3,61.4,301,61.9z M300.3,88.5c-0.5-1.1-0.8-2.3-0.9-3.4
				c-0.3-6.8-0.7-13.7-1.1-20.5c0.2,0,0.5,0,0.7-0.1c0.4,7.9,0.9,15.7,1.2,23.6C300.3,88.2,300.3,88.3,300.3,88.5z"/>
		</g>
		<g id="XMLID_6575_">
			<path id="XMLID_6594_" class="st6" d="M47.5,91.1c-3.7,0.5-9.1-0.9-12.1-3.2c-3.1-2.4-6.1-7-6.6-11.1c-1.5-9.5-3-19-4.5-28.5
				c-0.8-3.9,0.6-9.2,2.9-12.4c2.6-3.5,6.6-6,11-6.7c4.4-0.7,9,0.5,12.5,2.9c3.2,2.2,6,6.9,6.5,10.7c0.2,1.9-0.2,3.7-1.3,5.3
				c-1.1,1.6-2.7,2.5-4.6,2.8c-1.9,0.3-3.6-0.2-5.1-1.3c-1.5-1.1-2.4-2.7-2.7-4.5c0.6,2.1,1.8,3,3.7,2.7c0.9-0.1,1.6-0.6,2.1-1.3
				c0.5-0.7,0.7-1.5,0.6-2.4c-0.4-2.7-1.7-4.8-3.9-6.3c-2.3-1.5-4.8-2-7.5-1.4c-2.4,0.6-4.3,1.9-5.7,3.9c-1.3,2-1.8,4.3-1.5,6.7
				c1.5,9.7,2.9,19.4,4.4,29c0.4,2.5,1.6,4.6,3.6,6.1c2,1.6,4.3,2.2,6.7,1.8c2.5-0.3,4.4-1.5,6-3.6c1.5-2,2.1-4.3,1.8-6.8
				c-0.4-2.9-0.6-4.3-0.9-7.2c2-0.3,3.7,0.2,5.2,1.4c1.6,1.2,2.5,2.9,2.7,4.8c0,0.1,0,0.2,0,0.3c0.7,3.8-1,9-3.2,11.9
				C55.7,87.8,51.1,90.6,47.5,91.1z"/>
			<path id="XMLID_6590_" class="st6" d="M81.9,63.8c-4.5,0.5-9.6-0.2-12.7-3.9c-0.7-0.8-1.2-1.7-1.6-2.7c1.3,1,2.7,1.7,4.2,2.1
				c-1-8.9-1.9-17.8-2.9-26.6c-0.3-3-1.9-5.3-4.8-6.7c3.8-0.4,7.6-0.8,11.5-1.2c3.7-0.4,5.5-0.5,9.1-0.9c4.6-0.4,9.5,1,12.6,4
				c3,2.9,5.8,6.6,5.9,11.4c0.1,1.9,0.2,2.9,0.3,4.8c0.2,3.2-0.6,6.2-2.4,9.1c-1.8,2.8-4.4,5.2-7.6,7c0.7,0.2,1.3,0.4,1.9,0.7
				c4.4,2,6.1,6.9,6.4,11.3c0.2,3.4,0.7,6,1.2,7.6c0.7,2.2,1.8,3.9,3.5,5.2c-4.3,0.3-7.2-0.5-8.9-2.5c-1.4-1.6-2.4-4.8-2.7-9.2
				c-0.3-4.1-3-7.5-7-8.7c-1.9-0.6-2.8-0.9-2.8-0.9S83.9,63.6,81.9,63.8z M72.2,64c2,1.1,4.4,1.6,7.3,1.6c0.5,4.7,0.9,9.4,1.4,14
				c0.3,3,1.8,5.3,4.5,6.9c-4.8,0.5-9.7,1-14.5,1.5c2.3-2.1,3.3-4.6,3-7.6C73.4,75,72.8,69.5,72.2,64z M79,59.6
				c4.6-0.4,9.1-2.1,12.6-5.1c3.4-2.9,4.9-6.1,4.7-9.7c-0.2-2-0.2-3-0.4-5c-0.2-2.6-1.3-4.7-3.4-6.5c-2-1.7-4.4-2.4-7.1-2.2
				c-3.7,0.3-5.5,0.5-9.2,0.9C77.1,41.2,78.1,50.4,79,59.6z"/>
			<path id="XMLID_6588_" class="st6" d="M126.1,21.1c-2.6,1.9-3.9,4.4-3.7,7.4c0.8,16,1.6,32,2.4,48c0.2,3,1.5,5.4,4.2,7.1
				c-4.8,0.2-9.7,0.5-14.5,0.8c2.4-2,3.6-4.4,3.4-7.5c-0.9-16-1.8-32-2.8-48c-0.2-3-1.7-5.3-4.5-7C115.7,21.6,120.9,21.3,126.1,21.1
				z"/>
			<path id="XMLID_6585_" class="st6" d="M153,82.8c-3.8,0.1-8.9-2-11.6-4.6c-2.8-2.7-5.2-7.7-5.2-11.8c-0.3-9.6-0.7-19.2-1-28.9
				c-0.3-4,1.7-9.1,4.4-11.9c3-3.1,7.2-5.2,11.7-5.3c4.4-0.1,8.8,1.5,12.1,4.4c2.9,2.6,5.3,7.5,5.2,11.4c0,10.1,0,20.2,0,30.3
				c0.2,3.9-2,8.8-4.6,11.5C161.5,80.6,156.6,82.8,153,82.8z M143.3,66.5c0.1,2.6,1,4.7,2.8,6.5c1.8,1.8,4,2.7,6.4,2.6
				c2.5,0,4.6-1,6.3-2.8c1.7-1.8,2.6-4,2.6-6.6c-0.1-9.9-0.1-19.8-0.2-29.7c0-2.7-1.1-4.9-3.2-6.7c-2.1-1.8-4.5-2.5-7.2-2.2
				c-2.4,0.3-4.5,1.3-6.1,3.2c-1.6,1.9-2.3,4-2.3,6.4C142.8,47,143.1,56.7,143.3,66.5z"/>
			<path id="XMLID_6583_" class="st6" d="M176.5,82.7c2.6-1.8,3.9-4.2,3.9-7.2c0.2-16,0.4-32,0.7-48.1c0-3-1.3-5.5-4-7.3
				c5.2,0,10.4,0.1,15.6,0.3c-2.8,1.7-4.2,4.1-4.2,7.1c-0.4,16-0.7,32.1-1.1,48.1c6,0.1,11.9,0.3,17.9,0.6c2.9,0.1,5.3-1.1,7.2-3.6
				c-0.2,4.5-0.3,6.7-0.6,11.2C200.2,83.2,188.3,82.9,176.5,82.7z"/>
			<path id="XMLID_6581_" class="st6" d="M220,84.2c2.6-1.6,4.1-4,4.3-7c1-16,2-32,3.1-48c0.2-3-1-5.5-3.6-7.5
				c5.2,0.3,10.4,0.7,15.6,1.1c-2.8,1.6-4.4,3.9-4.6,6.9c-1.1,16-2.3,32-3.4,48c6,0.4,11.9,0.9,17.9,1.5c2.9,0.3,5.4-0.8,7.4-3.3
				c-0.4,4.5-0.7,6.7-1.1,11.1C243.6,85.9,231.8,85,220,84.2z"/>
			<path id="XMLID_6576_" class="st6" d="M263.3,87.9c3.1-1.5,5.1-3.7,6-6.6c1.6-4.9,3.2-9.9,4.8-14.8c1.9,1.5,4.2,2.2,6.9,1.9
				c-1.5,4.6-3.1,9.1-4.6,13.7c-1,3-0.5,5.5,1.4,7.5C273,89,268.2,88.4,263.3,87.9z M282.1,66.5c-2.3,0.4-4.4,0.1-6.3-0.9
				c-2.1-1.1-3.6-2.9-4.6-5.4c-0.3-0.9-0.6-1.8-0.7-2.8c1.6,1.9,3.4,2.9,5.5,3.3c2.9-8.7,5.9-17.3,8.9-26c1-2.9,0.5-5.4-1.6-7.5
				c5.2,0.6,10.3,1.3,15.5,2.1c-2.6,1.5-3.7,3.7-3.5,6.8c0.5,6.4,0.9,12.8,1.3,19.1c1.9,0.3,3.6,1.2,4.8,2.7c1,1.2,1.6,2.5,1.8,3.8
				c-0.5-0.4-0.9-0.8-1.4-1.1c-2.3-1.4-4.9-1.4-7.9-0.2c-1.5,0.6-3.5,1.8-6.1,3.6C285.9,65.4,284,66.2,282.1,66.5z M284.4,58.5
				c2.4-1.3,4.1-2.1,4.9-2.4c-0.3-3.9-0.4-5.9-0.7-9.8C287.2,50.4,285.8,54.4,284.4,58.5z M293.7,62.3c1.1-0.5,2.2-0.7,3.3-0.9
				c0.5,7.9,0.9,15.8,1.3,23.7c0.1,3.1,1.5,5.8,4.1,8c-4.9-0.8-9.7-1.5-14.6-2.1c2.4-1.5,3.6-3.8,3.4-6.9
				c-0.4-6.6-0.8-13.2-1.2-19.7C291.1,63.5,292.4,62.8,293.7,62.3z"/>
		</g>
		<g id="XMLID_6550_">
			<path id="XMLID_6571_" class="st3" d="M26.9,48.9c-0.1-1-0.2-1.5-0.2-1.6c-0.1-0.7-0.1-1.2-0.1-1.6c0-0.6,0.1-1.1,0.1-1.6
				c0-0.4,0.1-0.9,0.2-1.5c0.4-1.9,1.2-3.6,2.3-5.2c0.9-1.3,2-2.4,3.4-3.4c0.9-0.6,2-1.2,3.3-1.7c0.9-0.3,1.7-0.6,2.3-0.6
				c0.4,0,0.6-0.1,0.8-0.1c-0.2,0-0.5,0.1-0.8,0.2c-0.6,0.1-1.4,0.3-2.2,0.7c-1.3,0.6-2.4,1.2-3.2,1.9c-1.2,1-2.3,2.1-3.2,3.4
				c-1,1.5-1.7,3.2-2.1,5c-0.3,1.7-0.3,3.7,0.1,6c0.7,4.4,1.4,8.9,2.1,13.3c0.7,4.4,1.4,8.9,2,13.3c0.3,2.2,0.9,4.2,1.8,5.8
				c0.9,1.6,2.1,3,3.5,4.1c1.2,0.9,2.5,1.7,3.9,2.3c1,0.4,2.1,0.7,3.4,0.8c0.9,0.1,1.7,0.1,2.3,0c0.3,0,0.6,0,0.8-0.1
				c-0.2,0-0.4,0.1-0.7,0.1c-0.5,0.1-1.3,0.1-2.3,0.1c-1.3-0.1-2.4-0.3-3.5-0.7c-1.5-0.5-2.9-1.2-4.1-2.2c-1.5-1.1-2.7-2.6-3.7-4.2
				c-1-1.7-1.7-3.7-2-6c-0.6-4.4-1.4-8.9-2.1-13.3C28.3,57.8,27.6,53.3,26.9,48.9z M53.1,46.1c0,0-0.3,0.4-0.8,1.2
				c-0.3,0.4-0.5,0.6-0.6,0.8c0.1-0.2,0.3-0.5,0.5-0.9c0.3-0.7,0.5-1.6,0.5-2.5c0-0.5-0.1-1.1-0.2-1.6c-0.1-0.3-0.2-1-0.6-1.8
				c-0.3-0.7-0.5-1-0.4-0.9c-0.2-0.4-0.4-0.7-0.5-0.9c-0.2-0.4-0.3-0.5-0.6-0.9c0,0.1-0.2-0.2-0.7-0.8c-0.5-0.6-1-1.1-1.5-1.5
				c-0.7-0.5-1.3-0.9-1.7-1.1c-0.1,0-0.4-0.2-0.9-0.5c-0.3-0.2-0.6-0.3-0.9-0.4c-0.3-0.1-0.9-0.4-1.6-0.5c-1-0.2-1.5-0.2-1.5-0.2
				c-0.8,0-1.2-0.1-1.1-0.1c-0.4,0-0.8,0-1,0c0.2,0,0.6-0.1,1-0.1c0.5,0,0.7-0.1,1.2-0.1c0.4,0,0.9,0,1.5,0.1
				c0.9,0.1,1.5,0.2,1.8,0.4c0.6,0.1,1.3,0.4,1.9,0.7c0.7,0.3,1.3,0.7,1.9,1.2c0.6,0.4,1.1,0.9,1.7,1.5c0.3,0.4,0.4,0.5,0.7,0.9
				c0.4,0.6,0.6,0.9,0.6,0.9c0.4,0.7,0.7,1.3,0.9,2c0.3,0.7,0.4,1.4,0.5,2c0.1,0.6,0.2,1.3,0.1,1.8C53.2,45.6,53.1,46.1,53.1,46.1z
				 M51.2,84.3c0.2-0.1,0.7-0.5,1.4-1.2c0.5-0.4,0.9-1,1.3-1.4c0.4-0.6,0.8-1.2,1-1.7c0.3-0.7,0.6-1.3,0.8-1.8
				c0.2-0.5,0.4-1.2,0.5-1.9c0.1-0.6,0.2-1.2,0.2-1.8c0-0.4,0-1,0-1.7c-0.1-1.4-0.2-2.6-0.2-3.5c0.2,0.9,0.5,2.1,0.7,3.4
				c0.1,0.7,0.2,1.3,0.2,1.7c0,0.5,0,0.9,0,1c0,0,0,0.3-0.1,1c-0.1,0.9-0.3,1.5-0.4,2c-0.2,0.6-0.4,1.3-0.8,2
				c-0.3,0.6-0.7,1.2-1.2,1.8c-0.3,0.4-0.8,1-1.4,1.5c-0.6,0.5-1.1,0.9-1.6,1.1c-0.1,0.1-0.7,0.4-1.5,0.8c-0.7,0.3-1.2,0.4-1.3,0.4
				c-0.7,0.2-1,0.2-1.1,0.2c-0.4,0-0.7,0.1-0.9,0.1c0.2-0.1,0.5-0.1,0.9-0.3c0.4-0.1,0.6-0.2,1-0.4c0.1,0,0.3-0.1,0.6-0.3
				c0.3-0.2,0.5-0.3,0.7-0.4C50.7,84.7,51.2,84.4,51.2,84.3z"/>
			<path id="XMLID_6567_" class="st3" d="M72,32.6c0.5,3.9,0.8,5.7,0.7,5.3c0.2,1.3,0.4,3.3,0.7,6c0.3,2.7,0.4,4.8,0.5,6
				c0-0.5,0.1,1.3,0.4,5.3c0.2,2.1,0.2,3.8,0.3,5.1c-0.2-1.3-0.5-3.1-0.8-5.1c-0.5-3.9-0.7-5.7-0.7-5.3c-0.2-1.2-0.4-3.2-0.7-6
				c-0.3-2.7-0.5-4.7-0.6-6c0,0.4-0.2-1.4-0.4-5.3c-0.1-1.3-0.3-2.6-0.7-3.6c-0.2-0.6-0.4-1-0.5-1.3c0.2,0.3,0.4,0.7,0.7,1.2
				C71.5,30.2,71.9,31.4,72,32.6z M77,82.2c-0.2,1.1-0.5,2-0.8,2.6c0-0.1,0-0.4,0.1-0.7c0.1-0.5,0.2-1.2,0.2-1.9
				c0-0.7-0.1-1.6-0.2-2.7c-0.1-0.6-0.2-1.6-0.4-3.1c-0.2-2.2-0.4-4.1-0.4-5.9c0-1.1,0-2,0-2.7c0.2,0.7,0.4,1.6,0.5,2.7
				c0.3,1.7,0.6,3.7,0.8,5.8c0.1,1.5,0.2,2.5,0.3,3.1C77.1,80.4,77.1,81.4,77,82.2z M99.4,47c0,0,0,0.1,0,0.3
				c-0.2,1.1-0.5,2.1-0.8,3c-0.4,1-0.9,1.9-1.4,2.7c-0.3,0.5-0.6,0.9-0.9,1.3c-0.3,0.4-0.6,0.8-1,1.1c-0.3,0.3-0.7,0.7-1.1,1.1
				c-0.4,0.4-0.8,0.7-1.2,1c-0.4,0.3-0.8,0.6-1.2,0.9c-0.5,0.3-1,0.6-1.3,0.8c-0.7,0.4-1.6,0.9-2.7,1.4c-0.3,0.1-0.7,0.3-1.1,0.4
				c0.6,0.1,1.2,0.3,1.8,0.4c1.3,0.4,2.4,0.9,3.4,1.5c2.2,1.4,3.9,3.2,4.8,5.5c0.5,1.1,0.8,2.3,1,3.6c0.1,0.4,0.1,1,0.2,1.8
				c0,0.8,0.1,1.4,0.1,1.8c0.2,1.5,0.5,2.7,0.8,3.5c0.5,1.2,1.3,2.1,2.4,2.6c-1.1-0.4-1.9-1.3-2.5-2.5c-0.4-0.8-0.8-2-1-3.5
				c-0.1-0.5-0.1-1.1-0.2-1.8c-0.1-0.9-0.2-1.5-0.2-1.8c-0.2-1.2-0.5-2.4-1-3.4c-1-2.2-2.6-3.8-4.7-5.1c-2-1.1-4.2-1.8-6.7-2
				c-0.8,0-1.3-0.1-2.1-0.1c0.8-0.3,1.2-0.4,2-0.7c1.1-0.4,2.1-0.7,2.7-1c1-0.5,1.9-0.9,2.6-1.3c0.3-0.2,0.7-0.5,1.2-0.8
				c0.4-0.2,0.8-0.5,1.1-0.8c0.4-0.3,0.8-0.7,1.1-0.9c0.4-0.4,0.8-0.7,1-1c0.3-0.3,0.7-0.7,1-1.1c0.3-0.3,0.6-0.7,0.9-1.2
				c0.5-0.7,1-1.6,1.4-2.5c0.3-0.8,0.6-1.7,0.8-2.8c0-0.1,0.1-0.7,0.2-1.5c0-1.1,0-1.6,0-1.4c-0.1-1.2-0.1-1.8-0.2-3
				c-0.1-1.5-0.1-2.5-0.2-3c-0.2-1-0.5-2-0.8-2.8c-0.3-0.7-0.8-1.6-1.5-2.5c-0.6-0.8-1.4-1.6-2.1-2.1c-0.6-0.5-1.5-1.1-2.5-1.5
				c-1.1-0.5-2.1-0.8-2.9-0.9c-0.8-0.1-1.8-0.2-3-0.2c1.2-0.1,2.3-0.1,3,0c0.8,0.1,1.8,0.3,3,0.8c1.1,0.4,2,1,2.7,1.5
				c0.6,0.5,1.5,1.2,2.3,2.1c0.8,0.9,1.3,1.9,1.6,2.6c0.4,0.8,0.7,1.8,0.9,2.9c0.1,0.5,0.2,1.5,0.3,3c0.1,1.2,0.1,1.8,0.2,3
				c0,0.6,0,0.9,0.1,1.5C99.4,46.5,99.4,47,99.4,47z"/>
			<path id="XMLID_6565_" class="st3" d="M117.6,26.3c0.3,0.8,0.4,1.8,0.5,2.9c0-0.2,0.1,1.1,0.3,3.6c0,0.3,0.1,1.7,0.3,4.3
				c0.1,1.9,0.2,3.5,0.3,4.9c0.1,2.2,0.4,5.8,0.7,10.6c0.3,4.8,0.4,8.3,0.5,10.5c0.1,1.3,0.2,3,0.2,4.9c0.1,2.6,0.1,4.1,0.1,4.4
				c0.1,2.6,0.1,3.8,0.1,3.7c0.1,1,0,2-0.1,2.8c-0.1,0.6-0.3,1.1-0.5,1.8c-0.1,0.3-0.2,0.5-0.2,0.6c0-0.1,0.1-0.3,0.2-0.6
				c0.1-0.6,0.3-1.2,0.4-1.8c0.1-0.8,0.1-1.8,0-2.8c0-0.3-0.1-0.9-0.1-1.7c-0.1-0.8-0.1-1.5-0.1-2c0-0.2-0.1-1.7-0.3-4.3
				c-0.1-1.9-0.2-3.5-0.3-4.9c-0.1-2.2-0.4-5.7-0.6-10.5c-0.3-4.8-0.4-8.4-0.5-10.6c-0.1-1.3-0.2-3-0.2-4.9
				c-0.1-2.7-0.1-4.1-0.1-4.4c0-0.7-0.1-2-0.1-3.7c0-1-0.1-2-0.3-2.8c-0.2-0.6-0.4-1.2-0.6-1.7c-0.1-0.3-0.2-0.5-0.3-0.6
				c0.1,0.1,0.2,0.3,0.3,0.6C117.1,25.2,117.4,25.8,117.6,26.3z"/>
			<path id="XMLID_6562_" class="st3" d="M137.7,38.6c0-1.5,0-2.6,0.1-3.2c0.1-1.1,0.3-2.1,0.7-3c0.6-1.8,1.6-3.4,2.8-4.9
				c1-1.2,2.3-2.2,3.7-3c1.2-0.6,2.3-1.1,3.4-1.3c1-0.2,1.8-0.3,2.4-0.4c0.4,0,0.7-0.1,0.8-0.1c-0.2,0-0.5,0.1-0.8,0.1
				c-0.6,0-1.4,0.2-2.3,0.4c-1.1,0.3-2.2,0.8-3.3,1.5c-1.3,0.8-2.5,1.8-3.5,3c-1.2,1.4-2,3-2.6,4.8c-0.3,0.8-0.5,1.8-0.6,2.9
				c-0.1,0.7,0,1.8,0,3.1c0.2,4.4,0.3,9,0.5,13.4s0.3,9,0.4,13.4c0,2.2,0.4,4.2,1.1,5.9c0.7,1.6,1.6,3.2,2.9,4.4
				c1.1,1.1,2.3,2,3.6,2.7c0.9,0.5,2,0.9,3.2,1.2c0.9,0.2,1.7,0.3,2.2,0.3c0.3,0,0.6,0,0.8,0c-0.2,0-0.4,0-0.8,0
				c-0.5,0-1.3,0-2.2-0.2c-1.3-0.2-2.4-0.6-3.3-1.1c-1.4-0.7-2.7-1.6-3.8-2.6c-1.3-1.3-2.4-2.9-3.2-4.6c-0.8-1.8-1.2-3.8-1.3-6.1
				c-0.1-4.4-0.3-9-0.5-13.4C137.9,47.6,137.8,43.1,137.7,38.6z M164.1,69.3c-0.5,1.7-1.3,3.2-2.3,4.5c-0.9,1.1-2,2-3.3,2.7
				c-1.1,0.6-2.1,1-3,1.2c-0.7,0.2-1.4,0.3-2.1,0.3c-0.3,0-0.5,0-0.7,0c0.2,0,0.4-0.1,0.7-0.1c0.5,0,1.2-0.2,2-0.4
				c0.8-0.2,1.8-0.7,2.8-1.3c1.1-0.7,2.2-1.6,3.1-2.8c1-1.3,1.7-2.8,2.1-4.4c0.2-0.8,0.3-2.7,0.3-5.5c0-4.1-0.1-8.2-0.1-12.3
				s0-8.2,0-12.3c0-1.2,0-1.7,0-2.9c0-1-0.2-1.9-0.4-2.7c-0.5-1.6-1.2-3.1-2.3-4.3c-0.9-1.1-2-2-3.2-2.8c-1.1-0.6-2.1-1-3-1.2
				c-0.8-0.2-1.6-0.3-2.1-0.4c-0.3,0-0.6,0-0.8-0.1c0.2,0,0.4,0,0.8,0c0.3,0,0.6,0,0.9,0c0.6,0,1,0.1,1.3,0.2c1,0.2,2,0.5,3.2,1.1
				c1.3,0.7,2.5,1.6,3.5,2.7c1.2,1.3,2,2.8,2.5,4.5c0.2,0.8,0.4,1.7,0.5,2.8c0-0.1,0,0.9,0,2.9c0,1.5,0,3.5,0.1,6.1
				c0,3.4,0.1,5.5,0.1,6.2c0,4.1,0,8.2,0,12.3C164.6,66.3,164.4,68.2,164.1,69.3z"/>
			<path id="XMLID_6559_" class="st3" d="M183.8,25.1c0.2,0.8,0.3,1.8,0.3,2.9c0,0.3,0,0.9,0,1.7c0,0.8,0,1.5,0,1.9
				c0,0.2,0,1.7,0,4.4c0,1.9,0,3.6,0,4.9c0,2.2,0,5.8-0.1,10.6c-0.1,4.8-0.2,8.3-0.3,10.5c0,1.3-0.1,3-0.1,4.9
				c-0.1,2.7-0.2,4.1-0.2,4.4c0,0.8-0.1,2-0.1,3.7c0,1-0.1,2-0.3,2.8c-0.1,0.5-0.4,1.1-0.6,1.7c-0.1,0.3-0.2,0.4-0.3,0.6
				c0.1-0.1,0.1-0.3,0.2-0.6c0.2-0.5,0.4-1.2,0.5-1.8c0.2-0.8,0.2-1.8,0.2-2.8c0-1.7,0-3,0-3.7c0-0.2,0-1.7,0-4.4c0-1.9,0-3.5,0-4.9
				c0-2.2,0.1-5.7,0.1-10.5c0.1-4.8,0.2-8.4,0.2-10.6c0-1.3,0.1-3,0.1-4.9c0.1-2.6,0.2-4.1,0.2-4.4c0-0.4,0-1,0.1-1.9
				c0-0.8,0.1-1.4,0.1-1.7c0-1,0.1-2-0.1-2.8c-0.1-0.6-0.3-1.2-0.5-1.8c-0.1-0.3-0.2-0.5-0.2-0.6c0.1,0.1,0.1,0.3,0.3,0.6
				C183.5,23.9,183.7,24.5,183.8,25.1z M192.9,77.9c0.9,0,2.5,0,4.6,0.1c2.2,0.1,3.8,0.2,4.6,0.3c0.4,0,1.1,0.1,2.1,0.1
				c0.8,0.1,1.5,0.1,1.9,0.1c1,0,2-0.1,2.7-0.3c0.5-0.1,0.8-0.2,1.1-0.3c-0.2,0.1-0.6,0.3-1,0.5c-1,0.4-2,0.6-2.8,0.6
				c-0.1,0-0.7,0.1-1.9,0.1c-0.2,0-0.6,0-1.1,0c-0.5,0-0.9,0-1,0c-0.9,0-2.4,0-4.6-0.1c-2.1-0.1-3.7-0.2-4.6-0.2c0.4,0-1,0-4-0.2
				c-1.6-0.1-2.9-0.2-3.9-0.3c1-0.1,2.4-0.1,3.9-0.2C191.9,77.9,193.3,77.9,192.9,77.9z"/>
			<path id="XMLID_6556_" class="st3" d="M230.2,27c0.2,0.8,0.2,1.8,0.1,2.9c0,0.3,0,0.9-0.1,1.7c0,0.8-0.1,1.5-0.1,1.9
				c0,0.2-0.1,1.7-0.2,4.4c-0.1,1.9-0.2,3.5-0.3,4.9c-0.1,2.2-0.3,5.8-0.6,10.6c-0.3,4.8-0.6,8.3-0.8,10.5c-0.1,1.3-0.2,3-0.4,4.9
				c-0.2,2.7-0.4,4.1-0.4,4.3c-0.1,0.8-0.2,2-0.3,3.7c-0.1,1-0.2,2-0.5,2.8c-0.2,0.5-0.4,1.1-0.7,1.7c-0.1,0.3-0.2,0.4-0.3,0.5
				c0.1-0.1,0.1-0.3,0.2-0.6c0.2-0.5,0.4-1.1,0.6-1.8c0.2-0.8,0.3-1.8,0.3-2.8c0.1-1.7,0.1-3,0.2-3.7c0-0.2,0.1-1.7,0.2-4.4
				c0.1-1.9,0.2-3.5,0.3-4.9c0.1-2.2,0.4-5.7,0.7-10.5c0.3-4.8,0.6-8.3,0.7-10.6c0.1-1.3,0.2-3,0.4-4.9c0.2-2.6,0.4-4.1,0.4-4.3
				c0-0.4,0.1-1,0.2-1.9c0.1-0.8,0.1-1.4,0.2-1.7c0.1-1,0.2-2,0.1-2.8c-0.1-0.6-0.2-1.2-0.4-1.8c-0.1-0.3-0.1-0.5-0.2-0.6
				c0,0.1,0.1,0.3,0.2,0.6C229.9,25.8,230.1,26.4,230.2,27z M236.6,80.2c0.9,0,2.5,0.1,4.6,0.3c2.2,0.2,3.8,0.4,4.6,0.5
				c0.4,0,1.1,0.1,2.1,0.2c0.8,0.1,1.5,0.2,1.9,0.2c1,0.1,2,0,2.8-0.1c0.5-0.1,0.8-0.2,1.1-0.2c-0.2,0.1-0.6,0.3-1,0.4
				c-1,0.3-2,0.5-2.9,0.5c-0.1,0-0.7,0-1.9,0c-0.2,0-0.6,0-1.1-0.1c-0.5,0-0.9-0.1-1-0.1c-0.9-0.1-2.4-0.1-4.6-0.3
				c-2.1-0.2-3.7-0.4-4.6-0.5c0.4,0.1-1-0.1-4-0.4c-1.5-0.2-2.9-0.4-3.9-0.5c1,0,2.4,0,3.9,0C235.6,80.1,237,80.2,236.6,80.2z"/>
			<path id="XMLID_6551_" class="st3" d="M271,83.5c0.2-0.5,0.5-1.4,0.8-2.5c0.2-0.6,0.5-1.6,0.9-2.9c0.6-2,1.4-3.9,2-5.5
				c0.4-1,0.8-1.8,1.1-2.4c-0.1,0.7-0.3,1.6-0.6,2.6c-0.4,1.7-1,3.5-1.7,5.5c-0.5,1.4-0.8,2.4-1,2.9c-0.4,1.1-0.8,1.9-1.1,2.5
				c-0.6,0.9-1.1,1.6-1.6,2.1c0.1-0.1,0.2-0.3,0.4-0.6C270.5,84.8,270.7,84.2,271,83.5z M282.2,50c0.5-1.4,0.8-2.4,1.1-3.1
				c1-2.7,1.7-4.8,2.1-6.1c-0.2,0.4,0.5-1.3,2-5.2c0.5-1.3,0.8-2.6,0.8-3.8c0-0.6,0-1.1,0-1.5c0.1,0.3,0.2,0.8,0.3,1.5
				c0.1,1.3-0.1,2.7-0.6,4c-1.3,4-1.9,5.8-1.7,5.3c-1,2.9-1.7,4.9-2,6.1c0,0-0.8,2-2.2,6c0.2-0.4-0.5,1.3-1.9,5.2
				c-0.8,2-1.4,3.7-2,5.1c0.4-1.4,0.9-3.1,1.5-5.2c1.2-4,1.8-5.8,1.6-5.3C281.4,52.3,281.7,51.3,282.2,50z M292.6,57.9
				c-0.1,0-0.1,0.1-0.2,0.1c-0.6,0.2-0.9,0.3-1.5,0.5c-0.2,0.1-0.5,0.2-0.7,0.3c-0.3,0.1-0.4,0.2-0.7,0.3c-1.7,0.7-2.6,1.1-2.9,1.2
				c0.3-0.1,1.2-0.7,2.7-1.5c0.3-0.2,0.4-0.2,0.7-0.4c0.2-0.1,0.5-0.3,0.7-0.3c0.5-0.2,0.7-0.3,1.2-0.5c-0.4-4-0.7-8-1-12
				c-0.1-2.2-0.2-4.2-0.3-6.1c-0.1-2.1-0.1-4.1-0.1-6.1c0.3,2,0.5,4.1,0.8,6.1c0.2,1.9,0.4,3.9,0.6,6.1c0.3,4,0.6,8.1,0.7,12.2
				C292.6,57.8,292.6,57.9,292.6,57.9z M292.9,88.8c0.1-0.2,0.1-0.5,0.3-0.9c0.2-0.7,0.3-1.6,0.4-2.6c0,0.1-0.1-1.2-0.2-3.7
				c-0.1-0.9-0.2-2.3-0.3-4.3c-0.1-2.1-0.2-3.5-0.2-4.3c0,0.3,0-0.9-0.1-3.8c0-1.5,0-2.7,0-3.6c0.2,1,0.3,2.2,0.5,3.6
				c0.3,2.8,0.4,4,0.3,3.7c0.1,0.8,0.2,2.3,0.3,4.3c0.1,2,0.2,3.5,0.2,4.3c0.1,2,0,3.2,0,3.8c-0.1,0.8-0.3,1.7-0.7,2.6
				C293.2,88.4,293.1,88.7,292.9,88.8z"/>
		</g>
	</g>
</g>
</svg>
