<?xml version="1.0" encoding="utf-8"?>
<!-- Generator: Adobe Illustrator 24.0.1, SVG Export Plug-In . SVG Version: 6.00 Build 0)  -->
<svg version="1.1" id="Layer_1" xmlns="http://www.w3.org/2000/svg" xmlns:xlink="http://www.w3.org/1999/xlink" x="0px" y="0px"
	 viewBox="0 0 183.4 210.6" style="enable-background:new 0 0 183.4 210.6;" xml:space="preserve">
<style type="text/css">
	.st0{fill:#99803D;}
</style>
<g id="XMLID_4422_">
	<path id="XMLID_4540_" class="st0" d="M109.9,92c-1.7-1.8-3.3-3.5-4.4-5.7c-1.2-2.5-1.7-5.3-2-8c-0.5-4.9-0.5-9.9-1-14.8
		c-0.5-5.2-0.4-10.5-1.5-15.6c0,0,0,0,0-0.1c0.2,0.1,0.5,0.1,0.8,0c0.5-0.2,0.5-0.8,0.5-1.3c0-0.3-0.1-0.6-0.2-0.9
		c-0.2-1.6-1.1-4.4-2.3-5.4c-1.8-1.6-13.2-1.3-15-0.4c-1.8,1-2.3,4.5-2.7,6.3c0,0.2,0,0.3,0.1,0.5c0,0.4,0.1,0.9,0.5,1.1
		c0.3,0.2,0.5,0.1,0.8,0l0.1,0.1c-1.1,4.9-1,10-1.4,14.9s-0.6,9.9-1,14.8c-0.2,2.5-0.6,4.9-1.4,7.2c-0.9,2.7-2.6,4.7-4.6,6.7
		c-6.5,6.7-4.4,12.4-4.4,18.5c0,3.8,0,7.7,0,11.5c0,1.8,0,3.7-0.1,5.5c0,1.4-0.3,2.9,0.2,4.2c0.1,11.6,0.5,23.1,0.2,34.7
		c-0.3,1.2,0.2,3,0.7,3.7c1.1,1.7,3.3,2.6,5.2,3.2c4.9,1.5,10.3,1.1,15.3,1.1s10.1,0.2,15-1c2-0.5,4.2-1.4,5.4-3.1
		c0.6-0.8,1.3-2.8,0.9-4c-0.3-11.7,0.1-23.4,0.2-35.1c0.2-0.8,0.2-1.6,0.2-2.5c0-1.7,0-3.4,0-5.1c-0.1-3.9,0-7.7,0-11.6
		C113.9,103,115.7,98.2,109.9,92z M77,167.7c-2.5-0.8-3.2-2.6-3.4-4.6c0.1-6.9,0-13.9-0.1-20.8c0.3-0.1,0.6-0.3,1-0.4
		c1.2-0.3,2.5-0.2,3.6,0.2c1.5,0.5,1,2.4,1.2,3.6c0.2,1.3,0.6,2.5,1.2,3.7c2.1,4.4,6.9,7.2,11.7,7.3c4.7,0.1,9.2-2.9,11.5-6.8
		c0.7-1.1,1.1-2.4,1.4-3.6c0.3-1.1-0.1-3.2,0.8-3.8c1-0.7,2.5-0.6,3.5-0.4c0.7,0.1,1.2,0.4,1.8,0.6c-0.1,7-0.2,14-0.1,21
		c-0.3,1.2-0.6,2.4-1.5,3.3c-1.3,1.3-3.7,1.5-5.5,1.8c-4.7,0.7-9.5,0.6-14.3,0.6C85.5,169.4,81.2,169,77,167.7z M86.1,170.4
		c-1.7-0.1-3.4-0.2-5.2-0.5c-1-0.2-2-0.4-3-0.7c1,0.3,2.1,0.4,3.1,0.6C82.8,170.1,84.5,170.3,86.1,170.4z M85.7,47.6
		c0.2,0.3,0.5,0.6,0.8,0.6c0.4,0.1,0.8-0.2,1-0.5h0.1c0.3,0.4,0.7,0.6,1.2,0.7c0.2,0,0.4-0.1,0.4-0.3c0,0,0-0.1,0.1-0.1s0.1,0,0.2,0
		c0.3,0.3,0.6,0.5,1,0.5c0.2,0,0.5-0.2,0.7-0.3c0.1,0,0.2,0,0.3-0.1c0.2,0.3,0.5,0.5,0.8,0.5c0.1,0,0.1,0,0.2,0s0.1,0,0.2,0
		c0.4,0,0.6-0.2,0.8-0.5c0.1,0.1,0.2,0.1,0.3,0.1c0.2,0.2,0.4,0.3,0.7,0.3c0.4,0.1,0.8-0.2,1-0.5c0.1,0,0.1,0,0.2,0l0.1,0.1
		c0,0.2,0.2,0.3,0.4,0.3c0.5,0,0.9-0.3,1.1-0.7h0.1c0.3,0.3,0.6,0.6,1,0.5c0.3-0.1,0.6-0.3,0.8-0.6c0.3,0.2,0.6,0.3,0.9,0.4
		c-0.1,3.2,0.1,6.4,0.3,9.5c-2-0.2-4.1,0.2-6.1,0.4c-3.2,0.3-6.3,0.2-9.3-1.1c-0.1,0-0.1,0-0.2,0c0.2-2.9,0.3-5.8,0.2-8.7
		C85.1,48,85.4,47.8,85.7,47.6z M84.5,58c2.4,1,4.9,1.3,7.5,1.2c2.6-0.1,5.5-0.4,8.2-0.9c0,0.6,0.1,1.1,0.1,1.7
		c-2.8,0.4-5.6,0.9-8.5,1.1c-1.5,0.1-3,0-4.4-0.4c-1.1-0.3-2-0.8-3-1.1C84.5,59.1,84.5,58.6,84.5,58z M92.5,62.7
		c2.4-0.2,5.7-0.3,7.9-1.6c0,0.4,0.1,0.8,0.1,1.2c-0.2,0-0.3,0.1-0.5,0.1c-0.4,0.1-0.9,0.2-1.2,0.4c-0.2,0.1-0.1,0.5,0.1,0.5
		c0.4,0,0.8-0.1,1.2-0.1c0.2,0,0.4,0,0.5-0.1c0,0.1,0,0.3,0,0.4c0,0.3,0,0.6,0.1,0.9c-0.3-0.1-0.6,0.1-0.9,0.2
		c-0.5,0.2-1.1,0.3-1.6,0.4c-0.4,0.1-0.2,0.5,0.1,0.6c0.5,0.1,1.1,0,1.6-0.1c0.3-0.1,0.6-0.1,0.9-0.3c0,0.5,0.1,0.9,0.1,1.4
		c-0.3,0.1-0.6,0.2-0.9,0.3c-0.4,0.1-0.9,0.1-1.3,0.2c-0.4,0-0.5,0.6-0.1,0.7c0.7,0.2,1.6,0.1,2.3-0.2c0,0.3,0,0.6,0,0.9
		c-0.2,0.1-0.4,0.1-0.7,0.2c-0.8,0.2-1.6,0.5-2.4,0.7c-0.1,0-0.1,0.3,0,0.3c0.7,0.1,1.4,0,2.1-0.1c0.4-0.1,0.7-0.2,1.1-0.3
		c0,0.4,0,0.7,0.1,1.1c-0.4,0-0.8,0.1-1.2,0.2c-1.1,0.2-2.1,0.5-3.2,0.7c0,0-0.1,0.1,0,0.1c0.9,0.2,1.7,0.2,2.7,0.1
		c0.5-0.1,1.2-0.1,1.7-0.2c0,0.2,0,0.4,0,0.6c0,0,0,0-0.1,0c-1.3,0.3-2.5,0.6-3.9,0.8c-1,0.1-2,0.1-3,0.2c-0.2,0-0.1,0.3,0,0.3
		c2.2,0.6,4.9,0.3,7-0.5c0,0.5,0.1,1,0.1,1.5c-0.8,0-1.6,0.3-2.4,0.4c-0.9,0.1-1.8,0-2.7,0.3c-0.2,0.1-0.2,0.3,0,0.4
		c1.3,0.4,3.6,0.6,5-0.1c-2.1,1.6-5.1,1-7.7,0.9c-1.8,0-3.5,0-5.3-0.1c-0.4,0-0.7-0.1-1.1-0.1c1.6,0,3.3-0.1,4.8-0.4
		c0.3-0.1,0.3-0.5,0-0.5c-2.8-0.6-5.6-0.3-8.3-0.9l0,0c0.6,0.1,1.3,0.1,1.8,0.1c1,0.1,2.1,0.3,3.2,0.2c0.2,0,0.3-0.2,0.1-0.3
		c-0.7-0.8-1.8-0.9-2.8-1c-0.7-0.1-1.5-0.3-2.3-0.3c0-0.3,0-0.6,0-0.9c1.2,0.2,2.4,0.5,3.6,0.1c0.2-0.1,0.2-0.3,0-0.4
		c-1.2-0.3-2.3-0.9-3.6-1.1c0-0.3,0-0.5,0-0.8c0.8,0.2,1.7,0.3,2.4,0.1c0.3-0.1,0.3-0.4,0.1-0.6c-0.6-0.4-1.6-0.8-2.4-0.8
		c0-0.4,0-0.7,0.1-1.1c0.7,0.2,1.4,0.3,2,0.3c0.2,0,0.4-0.3,0.2-0.5c-0.6-0.5-1.4-0.9-2.2-1.1c0-0.3,0-0.5,0.1-0.8
		c0.5,0,1-0.1,1.4-0.2c0.2,0,0.2-0.4,0-0.4c-0.4-0.1-0.9-0.3-1.4-0.4c0-0.1,0-0.2,0-0.3c0.2,0.1,0.5,0.1,0.7,0.2
		c0.4,0.1,0.8,0.2,1.3,0.3c0.3,0,0.5-0.5,0.3-0.7c-0.3-0.3-0.7-0.4-1.1-0.6c-0.3-0.1-0.7-0.3-1-0.3c0-0.4,0.1-0.8,0.1-1.2
		C86.9,62.5,89.5,62.9,92.5,62.7z M83.4,76.5c3,1.8,7.8,1,10.9,1c1.8,0,5.6,0.3,7.1-1.3c0.1,0.7,0.1,1.4,0.2,2.1c0,0.1,0,0.2,0,0.3
		c-6.2,1.9-12.1,0.7-18.3-0.4C83.3,77.6,83.3,77,83.4,76.5z M85.5,41.6c1.3-0.9,12.2-0.7,13.3-0.1c1.2,0.6,1.6,2.5,2,3.8l0,0
		c0.1,0.3,0.1,0.6,0.2,0.9c0,0.2,0,0.3,0,0.4c0,0,0,0-0.1,0l-0.1-0.1c-0.1-0.6-0.5-1.2-1.1-1.4c-0.1,0-0.1,0.1-0.1,0.1
		c0.1,0.4,0.2,0.7,0.3,1c0.1,0.3,0,0.6,0,0.9c-0.1-0.1-0.2-0.1-0.2-0.2c-0.1-0.8-0.3-1.6-0.9-2.2c-0.1-0.1-0.3,0-0.3,0.1
		c0,0.4,0.1,0.8,0.1,1.2c0,0.2,0,0.5,0,0.7l-0.1,0.1c0,0.1-0.4,0.7-0.5,0.6c-0.2-0.1-0.3-0.3-0.4-0.5c0-0.5-0.1-1.2-0.4-1.5
		c-0.1-0.1-0.3-0.1-0.4,0.1c-0.1,0.3-0.1,0.5-0.1,0.8c0,0.1,0,0.2,0,0.3c-0.1,0.1-0.2,0.3-0.1,0.5c-0.2,0.2-0.3,0.4-0.6,0.5
		c-0.1-0.2-0.2-0.3-0.3-0.4c0-0.4,0.1-0.8-0.2-1.2c-0.1-0.1-0.2-0.1-0.3,0c-0.2,0.3-0.3,0.7-0.3,1l0,0c-0.1,0.1-0.5,0.7-0.7,0.6
		c-0.1-0.1-0.3-0.2-0.4-0.3c-0.1-0.6-0.2-1.6-0.8-1.7c-0.1,0-0.2,0-0.2,0.1c-0.1,0.3,0.1,0.6,0.1,0.9c0,0.1,0,0.1,0,0.2
		c-0.2-0.1-0.5,0-0.5,0.3c0,0.2-0.1,0.4-0.2,0.5c-0.1-0.2-0.1-0.4-0.2-0.5c-0.1-0.3-0.3-0.3-0.5-0.3c0-0.1,0-0.1,0-0.2
		c0-0.3,0.2-0.6,0.1-0.9c0-0.1-0.1-0.1-0.2-0.1c-0.6,0.1-0.7,1-0.8,1.7c-0.1,0.1-0.2,0.2-0.3,0.3c-0.2,0.2-0.6-0.4-0.7-0.6l0,0
		c0-0.4-0.1-0.7-0.3-1c-0.1-0.1-0.2-0.1-0.3,0c-0.2,0.4-0.1,0.8-0.2,1.2c-0.1,0.1-0.2,0.3-0.3,0.4c-0.2-0.1-0.4-0.3-0.6-0.5
		c0.1-0.2,0.1-0.4-0.1-0.5c0-0.1,0-0.1,0-0.2c0-0.3,0-0.6-0.1-0.9c0-0.2-0.2-0.2-0.4-0.1c-0.3,0.4-0.4,1-0.4,1.5
		c-0.1,0.2-0.2,0.4-0.4,0.5c0,0-0.5-0.5-0.5-0.6s0-0.1-0.1-0.1c0-0.2,0-0.4,0-0.6c0-0.4,0.1-0.8,0.1-1.2c0-0.1-0.2-0.2-0.3-0.1
		c-0.6,0.6-0.8,1.4-0.9,2.2c-0.1,0-0.1,0.1-0.2,0.1V47c0-0.1,0-0.1-0.1-0.2c0-0.2,0-0.4,0-0.5c0.1-0.4,0.2-0.7,0.3-1
		c0-0.1,0-0.1-0.1-0.1c-0.6,0.2-1,0.8-1.1,1.4c0,0-0.1,0-0.1,0.1l0,0v-0.1l0,0C84,44.8,84.1,42.6,85.5,41.6z M78.9,90.7
		c2.7-3.3,3.7-7.4,4.2-11.5c5.8,2,12.7,2.3,18.6,0.6c0.5,3.9,1.6,7.9,4.1,11c1.6,1.9,3.4,3.5,4.6,5.7c1,1.9,1.4,4.9,1.4,7.2
		c0,0.1,0,0.3,0,0.4c0,0-0.1,0.1,0,0.2c0,0,0,0.1,0,0.2c-0.2,2.7-0.2,5.3-0.3,8c0,1.1,0,2.1,0,3.2c-0.6,0.2-1.1,0.5-1.6,0.7
		c-1.2,0.3-2.5,0.2-3.6-0.2c-1.5-0.5-1-2.4-1.2-3.6c-0.2-1.3-0.6-2.5-1.2-3.7c-2.1-4.4-7.1-3.5-11.9-3.6c-4.7-0.1-9-0.8-11.4,3.1
		c-0.7,1.1-1.1,2.4-1.4,3.6c-0.3,1.1,0.1,3.2-0.8,3.8c-1,0.7-2.5,0.6-3.5,0.4c-0.6-0.1-1.1-0.4-1.6-0.6c0-1,0-2.1,0-3.1
		c0-2.7-0.1-5.3-0.3-8c0-0.1,0-0.1,0-0.2s0-0.1,0-0.2s0-0.2,0-0.3c0-2.2,0.6-4.4,1.1-6.5C74.7,94.6,77.3,92.7,78.9,90.7z
		 M104.9,171.6c-4.1,0.8-8.4,0.6-12.5,0.6c-4.2,0-8.4,0.1-12.5-0.6c-1.9-0.4-4-0.9-5.5-2.2c-0.3-0.3-0.6-0.6-0.8-1
		c1.7,1.3,4.3,2,5.7,2.3c2,0.4,4,0.5,6,0.5c1.7,0,3.8,0.3,5.4-0.3c0.1,0,0.1-0.1,0-0.1c-0.2-0.1-0.3-0.1-0.5-0.2
		c5.2,0.1,10.5,0,15.6-1c2.8-0.6,4.8-1.7,5.5-4c0,0.5,0,0.9,0,1.4c0,0.2,0.1,0.3,0.1,0.4c-3.4,2.3-8.1,2.5-12,3.2
		c-0.1,0-0.1,0.2,0,0.2c3.9-0.3,8-0.1,11.5-1.9c-0.1,0.2-0.3,0.4-0.5,0.5C109,170.8,106.7,171.2,104.9,171.6z"/>
	<path id="XMLID_4539_" class="st0" d="M86.1,50.8c-0.3,0.1-0.5,0.2-0.8,0.5c-0.2,0.2-0.2,0.5,0.1,0.6c0.9,0.4,0.8,0.8,0.6,1.7
		c-0.1,0.7-0.2,1.4,0,2.1c0.1,0.3,0.6,0.3,0.6-0.1c0.1-1,0.2-2,0.2-3c0-0.5-0.2-0.8-0.6-1.1c0.4-0.1,0.9-0.1,1.3-0.2
		c0.3-0.1,0.5-0.6,0.1-0.8c-0.2-0.1-0.3-0.1-0.5-0.2c0.8-0.1,1.6-0.3,2.4-0.6c0.1,0,0.2-0.3,0-0.3c-1.4-0.2-2.7-0.1-4.1-0.4
		c-0.6-0.1-1,0.6-0.6,1C85.4,50.4,85.8,50.6,86.1,50.8z"/>
	<path id="XMLID_4536_" class="st0" d="M82.3,91c0.2-0.3,0.2-0.5,0.3-0.7c0.9-0.3,1.5-1,2-1.9c0.1-0.2,0.2-0.7,0.3-1.3
		c0.5,0.1,1,0.1,1.4-0.3c0.2-0.1,0.2-0.3,0-0.4c-0.4-0.3-0.8-0.4-1.2-0.5c0-0.3,0.1-0.5,0.1-0.5c0.1,0,0.2-0.1,0.3-0.2
		c0.3,0.2,0.7,0.4,1,0.5c0.8,0.3,1.4,0.2,2.2,0.2c0.2,0,0.3-0.3,0.1-0.4c-0.6-0.2-1.1-0.5-1.6-0.8c-0.4-0.2-0.7-0.4-1-0.7
		c0-0.1,0-0.1-0.1-0.2l0,0c0.8,0.2,1.6,0.4,2.4,0.7c1.1,0.3,1.9,0.3,3,0.1c0.2,0,0.1-0.3,0-0.3c-0.8-0.2-1.6-0.5-2.4-0.9
		c1,0.1,2,0.2,2.9-0.1c0.2-0.1,0.2-0.4,0-0.4c-2.5-0.7-5.3-1.9-7.9-1.7c-0.4,0-0.7,0.4-0.6,0.8c0.2,0.5,0.4,0.9,0.7,1.3
		c-0.5,0-0.7,0.7-0.4,1.1c0.1,0.1,0.1,0.1,0.2,0.2c-0.6,0.4-1,1-0.9,1.7c0.2,1-0.9,1.6-1.3,2.5c-0.3,0.7-0.5,1.5-0.2,2.2
		C81.7,91.2,82.1,91.3,82.3,91z M83.3,88.4c-0.1,0.2-0.2,0.3-0.4,0.5C83,88.7,83.2,88.5,83.3,88.4z"/>
	<path id="XMLID_4448_" class="st0" d="M79.6,93.2c0.4,0.1,0.7,0,1.1,0s0.6-0.3,0.6-0.7c0.2-0.1,0.4-0.2,0.7-0.3
		c0.1,0,0.2-0.2,0.1-0.3c-0.5-0.4-1.1-0.5-1.7-0.3c-0.3,0.1-0.4,0.3-0.4,0.5c-0.1,0-0.2,0.1-0.3,0.2C79.2,92.5,79.2,93,79.6,93.2z"
		/>
	<path id="XMLID_4447_" class="st0" d="M77.8,95.8c0.3-0.1,0.4-0.4,0.7-0.5c0.3-0.2,0.5-0.4,0.8-0.7l0.1-0.1c0.1,0,0.1,0,0.2,0
		c0.8,0,0.8-1.2,0-1.2c-0.2,0-0.3,0.1-0.4,0.2c-0.3-0.1-0.6,0-0.8,0.3c-0.1,0.2,0,0.6,0.3,0.6c0.1,0,0.2,0,0.2,0
		c-0.2,0.1-0.3,0.3-0.5,0.4S77.9,95,77.6,95C76.9,95.2,77.3,96.1,77.8,95.8z"/>
	<path id="XMLID_4446_" class="st0" d="M77,97.2c0.1,0,0.1-0.1,0.2-0.1s0.1-0.1,0.1-0.1c0.1-0.1,0.1-0.1,0,0c0.3-0.1,0.3-0.5,0-0.5
		c-0.2,0-0.3-0.2-0.5-0.1s-0.3,0.2-0.4,0.4C76.3,97,76.7,97.3,77,97.2z"/>
	<path id="XMLID_4445_" class="st0" d="M76.6,98.7C76.5,98.8,76.5,98.8,76.6,98.7c0.1,0,0.2-0.1,0.2-0.2c0.1-0.1,0-0.3-0.1-0.4
		c0,0,0,0-0.1-0.1c-0.1-0.2-0.4-0.2-0.6-0.1c-0.1,0.1-0.2,0.1-0.2,0.2C75.6,98.6,76.2,99,76.6,98.7z"/>
	<path id="XMLID_4444_" class="st0" d="M75.6,101.1c0.1,0.4,0.7,0.4,0.8,0V101C76.7,100.2,75.3,100.2,75.6,101.1
		C75.5,101,75.5,101,75.6,101.1z"/>
	<path id="XMLID_4443_" class="st0" d="M75.7,103.7c0.1-0.2,0.1-0.4,0.1-0.6c-0.1-0.2-0.3-0.2-0.3,0c-0.1,0.2-0.1,0.4,0.1,0.6
		C75.5,103.8,75.6,103.8,75.7,103.7z"/>
	<path id="XMLID_4442_" class="st0" d="M75.6,105.3c-0.1,0-0.2,0-0.2,0.2l0,0v0.1l0,0c0,0.3,0.4,0.3,0.4,0l0,0v-0.1l0,0
		C75.8,105.4,75.7,105.3,75.6,105.3z"/>
	<path id="XMLID_4441_" class="st0" d="M75.4,108.9c0.2-0.2,0.3-0.6,0.4-0.9c0.1-0.4,0.1-0.8,0.1-1.1c0-0.2-0.3-0.3-0.4-0.1
		c-0.1,0.3-0.2,0.6-0.3,0.9c0,0.2,0,0.3,0,0.5s-0.1,0.4-0.1,0.6C75.2,108.9,75.3,109,75.4,108.9z"/>
	<path id="XMLID_4440_" class="st0" d="M97.3,82.9c0.3,0,0.6-0.1,0.9-0.1c-0.8,0.2-1.6,0.2-2.4,0.4c-0.2,0-0.2,0.3,0,0.3
		c0.8,0.4,1.7,0.3,2.5,0.2c0.5-0.1,1.9-0.1,2.2-0.7c0.1-0.2,0.1-0.3-0.1-0.5c0,0,0.1,0,0.2,0c0.5-0.1,0.4-0.7,0-0.9
		c-0.8-0.3-2.2,0.1-3.1,0.2c-1.2,0.2-2.9-0.1-3.9,0.6c0,0,0,0,0,0.1C94.6,83.4,96.2,83.1,97.3,82.9z"/>
	<path id="XMLID_4439_" class="st0" d="M100.6,84.6c0.4-0.2,0.4-0.8-0.1-0.8s-0.9,0.1-1.4,0.1c-0.2,0-0.8-0.1-0.8,0.3c0,0,0,0,0,0.1
		s0.1,0.2,0.2,0.3C99,84.9,100,84.9,100.6,84.6z"/>
	<path id="XMLID_4438_" class="st0" d="M100.2,85.6c-0.5,0-1,0.1-1.4,0.2c-0.2,0-0.2,0.4,0,0.5c0.5,0.1,0.9,0.1,1.4,0.1
		c0.3,0,0.8-0.1,0.8-0.5C101.1,85.5,100.5,85.6,100.2,85.6z"/>
	<path id="XMLID_4437_" class="st0" d="M100.1,87c-0.2,0-0.2,0.3,0,0.4c0.3,0.1,0.6,0.1,0.9,0.1s0.6,0.1,0.8-0.1
		c0.1-0.1,0.1-0.2,0-0.3c-0.2-0.2-0.5-0.1-0.8-0.1S100.4,87,100.1,87z"/>
	<path id="XMLID_4436_" class="st0" d="M101.8,89.1c0.3,0,0.5,0,0.7-0.2c0.1-0.1,0.1-0.2,0-0.3c-0.2-0.2-0.5-0.2-0.7-0.2
		C101.4,88.5,101.4,89.1,101.8,89.1z"/>
	<path id="XMLID_4435_" class="st0" d="M104.2,90.8c0.1,0,0.2-0.2,0.1-0.3c-0.2-0.4-0.6-0.3-1-0.5c-0.3-0.2-0.5,0.2-0.3,0.4
		C103.3,90.7,103.8,91,104.2,90.8z"/>
	<path id="XMLID_4434_" class="st0" d="M105.2,93.3c0.1,0,0.1,0,0.2,0c0.3-0.1,0.3-0.5,0-0.6c-0.1,0-0.1,0-0.2,0
		C104.8,92.6,104.8,93.4,105.2,93.3z"/>
	<path id="XMLID_4433_" class="st0" d="M108.4,112.2c0.1,0.5,0.9,0.5,0.9,0c0.4-2.9,0.2-6.1,0.1-9c-0.1-2.6-0.5-5.7-2.2-7.7
		c-0.1-0.1-0.2,0-0.2,0.1c0.5,2.8,1.1,5.4,1.2,8.3C108.4,106.7,107.9,109.6,108.4,112.2z"/>
	<path id="XMLID_4432_" class="st0" d="M75.8,147.2c0.4-0.5,0.2-1.2,0.2-1.7c0-0.7,0-1.3-0.1-1.9c0-0.1-0.3-0.1-0.3,0
		c-0.1,0.6-0.2,1.3-0.3,1.9c-0.1,0.6-0.3,1.3,0.1,1.7C75.5,147.3,75.7,147.3,75.8,147.2z"/>
	<path id="XMLID_4431_" class="st0" d="M102.4,167.2c2.6,0.5,5.1-0.2,7.4-1.5c0.5-0.3,0.2-0.9-0.3-0.9c-0.3,0-0.6,0-0.9,0
		c0.3-0.2,0.7-0.4,1-0.7c0.3-0.2,0.2-0.7-0.1-0.8l0,0c0.3-0.6,0.1-1.5,0.5-2.3c0.1-0.2,0.1-0.4-0.1-0.6c-0.9-1.2-0.9-1.9-0.9-3.3
		c0-0.1-0.1-0.1-0.1,0c-0.6,1.4-0.6,1.4-0.1,2.9c0.1,0.4-0.1,2.9-0.5,2.9c-0.6,0-0.7,0.9-0.1,1l0,0c-0.5,0.2-1,0.3-1.6,0.4
		c-0.2,0-0.4,0.3-0.4,0.5v0.1c0,0.2,0.2,0.4,0.4,0.5c0.3,0.1,0.7,0.2,1,0.2c-1.7,0.6-3.3,0.8-5.1,1.2
		C102.2,166.8,102.2,167.1,102.4,167.2z"/>
	<path id="XMLID_4430_" class="st0" d="M108.9,154.7c0.1,0.4,0.6,0.2,0.6-0.1s0-0.5,0-0.8c0-0.2-0.1-0.4-0.3-0.4c-0.1,0-0.2,0-0.2,0
		c-0.2,0.1-0.4,0.3-0.3,0.6C108.7,154.2,108.9,154.5,108.9,154.7z"/>
	<path id="XMLID_4429_" class="st0" d="M109.2,151L109.2,151c0.3,0,0.4-0.4,0.1-0.4l0,0c-0.1-0.2-0.5,0-0.4,0.2l0,0
		C108.9,150.9,109.1,151,109.2,151z"/>
	<path id="XMLID_4428_" class="st0" d="M109.3,149.1c0,0.1,0,0.1,0,0.2c0,0.1,0.2,0.1,0.2,0s0-0.1,0-0.2
		C109.4,149.1,109.3,149.1,109.3,149.1z"/>
	<path id="XMLID_4427_" class="st0" d="M109.1,146c0,0.3,0.5,0.3,0.5,0l0,0C110,145.5,108.8,145.5,109.1,146L109.1,146z"/>
	<path id="XMLID_4426_" class="st0" d="M109.2,144.4c0.3,0,0.3-0.4,0-0.4C109,144,109,144.4,109.2,144.4z"/>
	<path id="XMLID_4425_" class="st0" d="M80.3,166c-0.9-0.1-1.7-0.4-2.4-0.8c1.3,0,2.6-0.1,3-0.3c0.1,0,0.1-0.2,0-0.2
		c-1.2-0.4-2.6-0.3-3.9-0.6c-0.1,0-0.3-0.1-0.6-0.3c0.7,0,1.5-0.1,2.1-0.3c0.1,0,0.1-0.2,0-0.3c-0.6-0.2-1.3-0.2-2-0.3h0.1
		c0.1,0,0.2-0.2,0.1-0.3c-0.3-0.3-0.9-0.7-1.4-0.6c0-0.1,0-0.1,0-0.2c0.2,0.2,0.7,0.2,1,0.2c0.2,0,0.2-0.3,0-0.4
		c-0.2-0.1-0.4-0.3-0.6-0.4c-0.1-0.1-0.3-0.1-0.4,0c0-0.3,0-0.5,0-0.8c0.1,0.1,0.3,0.1,0.4,0.1c0.2,0.1,0.4-0.2,0.2-0.4
		c-0.1-0.1-0.2-0.2-0.4-0.4c-0.1-0.1-0.1-0.1-0.2,0c0-0.1,0-0.2,0-0.3c0.1,0.1,0.2,0.1,0.3,0.1c0.2,0,0.2-0.3,0-0.3c0,0,0,0,0,0.1
		c0-0.1-0.1-0.1-0.1-0.2h-0.1l0,0c0-0.3,0-0.5,0.1-0.7c0.1-3,0.3-6.2,0-9.1c0-0.1-0.2-0.2-0.2,0c-0.5,3.4-0.6,6.9-0.8,10.4
		c-0.1,1.7-0.5,5,1.3,6.1c0.2,0.1,0.4,0.1,0.5,0c0.8,0.5,1.9,0.8,2.8,0.9c1.6,0.3,3.3,0.6,4.9,0.4c0.1,0,0.1-0.1,0.1-0.2
		C82.9,166.3,81.6,166.2,80.3,166z"/>
	<path id="XMLID_4424_" class="st0" d="M92.2,158.2c-1.8-0.6-4-0.4-5.9-0.9c-2.6-0.7-4.6-2.2-5.9-4.5h-0.1c0.6,2.2,2.3,3.7,4.4,4.6
		c2,0.8,5.3,1.8,7.4,1C92.4,158.4,92.4,158.2,92.2,158.2z"/>
	<path id="XMLID_4423_" class="st0" d="M95.2,158.6c0.4,0,0.9,0,1.2-0.3c0.1-0.1,0-0.2-0.1-0.3c-0.4-0.1-0.8,0-1.3,0
		c-0.4,0-0.8,0-1.2,0.1c-0.1,0-0.1,0.2,0,0.3C94.2,158.6,94.7,158.5,95.2,158.6z"/>
</g>
<path id="XMLID_6545_" class="st0" d="M111.1,198.7c5.8,0,11.3-3.3,16.9-6.9c5,2.7,11.8,5.1,15.8-0.1c0.2-0.3-2.9-3.6-7-3.5
	c-2.2,0.1-5.7,1.4-7.7,2.4c2.9-2.7,6.8-6.6,9-9.7h0.1c0.1,0,0.3-0.1,0.4-0.1c0.5,5,11,4.7,13.2,1.5c-0.1-1.6-3-2.9-4.8-3.4
	c-2.6-0.8-5.3-0.9-8,0.6c1.2-1.8,2.4-3.5,3.4-5.2c0.2-0.4,0.4-0.7,0.6-1.1c4.9,2.6,11.4,0.5,12.8-5.1c0.1-0.4-0.1-0.8-0.5-0.9
	c-3.5-0.8-7.9,0.7-10.8,3.3c1.4-2.8,2.7-5.9,3.7-9.1c5.1,1.8,11-1.1,11.8-6.7c0.1-0.3-0.2-0.7-0.6-0.7c-3.5-0.5-7.7,1.5-10.4,4.2
	c0.7-2.8,1.2-5.6,1.4-8.4c0.1,0,0.1,0,0.2-0.1c5.6,1.1,11.1-3.2,10.7-9c0-0.4-0.4-0.6-0.7-0.5c-4.2,0.4-8.5,4.3-10.1,8.3l0,0
	c0.1-2,0-3.9-0.2-5.8c0.1,0,0.1-0.1,0.1-0.3c3.7-4.3,2.7-11.2-2.6-13.8c-0.3-0.2-0.7,0.1-0.8,0.4c-1.7,3.8-0.5,9.3,2.1,12.7
	c0,0.1,0,0.2,0,0.3c0,0.1,0,0.2,0,0.3c0,0.7,0,1.3,0,2c-1.1-3.7-4.1-6.9-7.4-8.9c-0.3-0.2-0.7-0.1-0.8,0.3c-0.5,2.7-0.5,5.9,1.2,8.1
	c1.6,2,4,3.2,6.5,3.6c0.1,0.5,0.1,1,0.1,1.5c-0.3,2.9-0.9,5.8-1.6,8.6l0,0c0.6-4.6-2-9.3-5.2-12.4c-0.2-0.2-0.7-0.1-0.8,0.2
	c-1.1,2.6-1.9,5.8-0.5,8.4c1.1,2.2,3.1,3.9,5.5,4.7c0.8-0.1,0.7,0.2,0.2,2c-0.9,2.8-2.1,5.6-3.4,8.3c0.7-4.3-1.2-8.9-4-12.2
	c-0.3-0.3-0.7-0.2-0.9,0.1c-2.9,5.2-1.8,10.8,3.6,13.5c-0.1,0.5-0.3,1.1-0.4,1.6c-0.5,0.9-1,1.7-1.6,2.6c-0.6,0.9-1.2,1.7-1.8,2.6
	c0.3-4-1.5-8.2-4.1-11.2c-0.3-0.3-0.7-0.2-0.9,0.1c-2.8,5.1-1.8,10.6,3.3,13.4c-2,2.6-4.2,5.1-6.6,7.3c0.4-1,0.6-2,0.7-2.8
	c0.4-3-0.3-5.6-2-8.2c-0.1-0.2-0.5-0.3-0.7-0.1c-3.7,3.6-4.2,10.1-1.1,14.7c-4.5,3.1-10.7,5.1-15.6,7.5
	C110.6,198,110.6,198.7,111.1,198.7z M128,191.7C128.1,191.7,128.1,191.7,128,191.7C128.1,191.7,128.1,191.7,128,191.7
	C128.1,191.8,128.1,191.7,128,191.7z"/>
<path id="XMLID_6542_" class="st0" d="M71.6,198.6c-4.9-2.4-11.1-4.4-15.6-7.5c3-4.6,2.6-11.1-1.1-14.7c-0.2-0.2-0.6-0.1-0.7,0.1
	c-1.6,2.5-2.3,5.1-2,8.2c0.1,0.9,0.4,1.9,0.7,2.8c-2.4-2.2-4.6-4.7-6.6-7.3c5.1-2.8,6.1-8.2,3.3-13.4c-0.2-0.3-0.6-0.4-0.9-0.1
	c-2.6,3.1-4.4,7.2-4.1,11.2c-0.6-0.9-1.2-1.7-1.8-2.6c-0.6-0.8-1.1-1.7-1.6-2.6c-0.2-0.5-0.3-1.1-0.4-1.6c5.4-2.7,6.5-8.3,3.6-13.5
	c-0.2-0.3-0.6-0.4-0.9-0.1c-2.8,3.3-4.7,7.9-4,12.2c-1.4-2.7-2.5-5.5-3.4-8.3c-0.5-1.8-0.6-2.1,0.2-2c2.3-0.9,4.3-2.5,5.5-4.7
	c1.4-2.6,0.6-5.8-0.5-8.4c-0.1-0.3-0.5-0.5-0.8-0.2c-3.3,3.1-5.8,7.8-5.2,12.4l0,0c-0.7-2.8-1.3-5.7-1.6-8.6c0-0.5,0-1,0.1-1.5
	c2.5-0.4,4.9-1.6,6.5-3.6c1.8-2.2,1.7-5.4,1.2-8.1c-0.1-0.4-0.5-0.5-0.8-0.3c-3.3,2-6.3,5.2-7.4,8.9c0-0.7,0-1.3,0-2
	c0-0.1,0-0.2,0-0.3c0-0.1,0-0.2,0-0.3c2.6-3.4,3.8-8.8,2.1-12.7c-0.1-0.3-0.5-0.5-0.8-0.4c-5.3,2.5-6.3,9.4-2.6,13.8
	c0,0.1,0,0.2,0.1,0.3c-0.2,1.9-0.3,3.9-0.2,5.8l0,0c-1.6-4-5.8-7.9-10.1-8.3c-0.3,0-0.7,0.2-0.7,0.5c-0.4,5.8,5.1,10.1,10.7,9
	c0.1,0.1,0.1,0.1,0.2,0.1c0.2,2.8,0.7,5.7,1.4,8.4c-2.7-2.8-6.8-4.7-10.4-4.2c-0.3,0-0.6,0.4-0.6,0.7c0.9,5.6,6.8,8.5,11.8,6.7
	c1,3.2,2.3,6.2,3.7,9.1c-2.9-2.5-7.4-4.1-10.8-3.3c-0.4,0.1-0.6,0.4-0.5,0.9c1.5,5.6,8,7.7,12.8,5.1c0.2,0.4,0.4,0.7,0.6,1.1
	c1,1.7,2.1,3.4,3.4,5.2c-2.8-1.6-5.4-1.5-8-0.6c-1.8,0.5-4.6,1.9-4.8,3.4c2.2,3.3,12.7,3.5,13.2-1.5c0.1,0,0.3,0.1,0.4,0.1
	c0.1,0,0.1,0,0.1,0c2.3,3.1,6.1,7,9,9.7c-2-1-5.5-2.4-7.7-2.4c-4-0.1-7.2,3.2-7,3.5c4,5.2,10.8,2.8,15.8,0.1
	c5.6,3.6,11.1,7,16.9,6.9C72,199.5,72,198.8,71.6,198.6z M54.3,192.6c0,0,0-0.1,0.1-0.1c0,0,0,0,0.1,0.1
	C54.4,192.5,54.4,192.6,54.3,192.6z"/>
<path id="XMLID_2_" class="st0" d="M71,22.6c-5.8,0-11.3,3.3-16.9,6.9c-5-2.7-11.8-5.1-15.8,0.1c-0.2,0.3,2.9,3.6,7,3.5
	c2.2-0.1,5.7-1.4,7.7-2.4c-2.9,2.7-6.8,6.6-9,9.7h-0.1c-0.1,0-0.3,0.1-0.4,0.1c-0.5-5-11-4.7-13.2-1.5c0.1,1.6,3,2.9,4.8,3.4
	c2.6,0.8,5.3,0.9,8-0.6c-1.2,1.8-2.4,3.5-3.4,5.2c-0.2,0.4-0.4,0.7-0.6,1.1c-4.9-2.6-11.4-0.5-12.8,5.1c-0.1,0.4,0.1,0.8,0.5,0.9
	c3.5,0.8,7.9-0.7,10.8-3.3c-1.4,2.8-2.7,5.9-3.7,9.1c-5.1-1.8-11,1.1-11.8,6.7c-0.1,0.3,0.2,0.7,0.6,0.7c3.5,0.5,7.7-1.5,10.4-4.2
	c-0.7,2.8-1.2,5.6-1.4,8.4c-0.1,0-0.1,0-0.2,0.1c-5.6-1.1-11.1,3.2-10.7,9c0,0.4,0.4,0.6,0.7,0.5c4.2-0.4,8.5-4.3,10.1-8.3l0,0
	c-0.1,2,0,3.9,0.2,5.8c-0.1,0-0.1,0.1-0.1,0.3c-3.7,4.3-2.7,11.2,2.6,13.8c0.3,0.2,0.7-0.1,0.8-0.4c1.7-3.8,0.5-9.3-2.1-12.7
	c0-0.1,0-0.2,0-0.3c0-0.1,0-0.2,0-0.3c0-0.7,0-1.3,0-2c1.1,3.7,4.1,6.9,7.4,8.9c0.3,0.2,0.7,0.1,0.8-0.3c0.5-2.7,0.5-5.9-1.2-8.1
	c-1.6-2-4-3.2-6.5-3.6c-0.1-0.5-0.1-1-0.1-1.5c0.3-2.9,0.9-5.8,1.6-8.6l0,0c-0.6,4.6,2,9.3,5.2,12.4c0.2,0.2,0.7,0.1,0.8-0.2
	c1.1-2.6,1.9-5.8,0.5-8.4c-1.1-2.2-3.1-3.9-5.5-4.7c-0.8,0.1-0.7-0.2-0.2-2c0.9-2.8,2.1-5.6,3.4-8.3c-0.7,4.3,1.2,8.9,4,12.2
	c0.3,0.3,0.7,0.2,0.9-0.1c2.9-5.2,1.8-10.8-3.6-13.5c0.1-0.5,0.3-1.1,0.4-1.6c0.5-0.9,1-1.7,1.6-2.6c0.6-0.9,1.2-1.7,1.8-2.6
	c-0.3,4,1.5,8.2,4.1,11.2c0.3,0.3,0.7,0.2,0.9-0.1c2.8-5.1,1.8-10.6-3.3-13.4c2-2.6,4.2-5.1,6.6-7.3c-0.4,1-0.6,2-0.7,2.8
	c-0.4,3,0.3,5.6,2,8.2c0.1,0.2,0.5,0.3,0.7,0.1c3.7-3.6,4.2-10.1,1.1-14.7c4.5-3.1,10.7-5.1,15.6-7.5C71.5,23.3,71.5,22.6,71,22.6z
	 M54.1,29.6C54,29.6,54,29.6,54.1,29.6C54,29.6,54,29.6,54.1,29.6C54,29.5,54,29.6,54.1,29.6z"/>
<path id="XMLID_1_" class="st0" d="M110.5,22.7c4.9,2.4,11.1,4.4,15.6,7.5c-3,4.6-2.6,11.1,1.1,14.7c0.2,0.2,0.6,0.1,0.7-0.1
	c1.6-2.5,2.3-5.1,2-8.2c-0.1-0.9-0.4-1.9-0.7-2.8c2.4,2.2,4.6,4.7,6.6,7.3c-5.1,2.8-6.1,8.2-3.3,13.4c0.2,0.3,0.6,0.4,0.9,0.1
	c2.6-3.1,4.4-7.2,4.1-11.2c0.6,0.9,1.2,1.7,1.8,2.6c0.6,0.8,1.1,1.7,1.6,2.6c0.2,0.5,0.3,1.1,0.4,1.6c-5.4,2.7-6.5,8.3-3.6,13.5
	c0.2,0.3,0.6,0.4,0.9,0.1c2.8-3.3,4.7-7.9,4-12.2c1.4,2.7,2.5,5.5,3.4,8.3c0.5,1.8,0.6,2.1-0.2,2c-2.3,0.9-4.3,2.5-5.5,4.7
	c-1.4,2.6-0.6,5.8,0.5,8.4c0.1,0.3,0.5,0.5,0.8,0.2c3.3-3.1,5.8-7.8,5.2-12.4l0,0c0.7,2.8,1.3,5.7,1.6,8.6c0,0.5,0,1-0.1,1.5
	c-2.5,0.4-4.9,1.6-6.5,3.6c-1.8,2.2-1.7,5.4-1.2,8.1c0.1,0.4,0.5,0.5,0.8,0.3c3.3-2,6.3-5.2,7.4-8.9c0,0.7,0,1.3,0,2
	c0,0.1,0,0.2,0,0.3c0,0.1,0,0.2,0,0.3c-2.6,3.4-3.8,8.8-2.1,12.7c0.1,0.3,0.5,0.5,0.8,0.4c5.3-2.5,6.3-9.4,2.6-13.8
	c0-0.1,0-0.2-0.1-0.3c0.2-1.9,0.3-3.9,0.2-5.8l0,0c1.6,4,5.8,7.9,10.1,8.3c0.3,0,0.7-0.2,0.7-0.5c0.4-5.8-5.1-10.1-10.7-9
	c-0.1-0.1-0.1-0.1-0.2-0.1c-0.2-2.8-0.7-5.7-1.4-8.4c2.7,2.8,6.8,4.7,10.4,4.2c0.3,0,0.6-0.4,0.6-0.7c-0.9-5.6-6.8-8.5-11.8-6.7
	c-1-3.2-2.3-6.2-3.7-9.1c2.9,2.5,7.4,4.1,10.8,3.3c0.4-0.1,0.6-0.4,0.5-0.9c-1.5-5.6-8-7.7-12.8-5.1c-0.2-0.4-0.4-0.7-0.6-1.1
	c-1-1.7-2.1-3.4-3.4-5.2c2.8,1.6,5.4,1.5,8,0.6c1.8-0.5,4.6-1.9,4.8-3.4c-2.2-3.3-12.7-3.5-13.2,1.5c-0.1,0-0.3-0.1-0.4-0.1
	c-0.1,0-0.1,0-0.1,0c-2.3-3.1-6.1-7-9-9.7c2,1,5.5,2.4,7.7,2.4c4,0.1,7.2-3.2,7-3.5c-4-5.2-10.8-2.8-15.8-0.1
	c-5.6-3.6-11.1-7-16.9-6.9C110.1,21.8,110.1,22.5,110.5,22.7z M127.8,28.7c0,0,0,0.1-0.1,0.1c0,0,0,0-0.1-0.1
	C127.7,28.8,127.7,28.7,127.8,28.7z"/>
</svg>
