<?xml version="1.0" encoding="utf-8"?>
<!-- Generator: Adobe Illustrator 21.0.2, SVG Export Plug-In . SVG Version: 6.00 Build 0)  -->
<svg version="1.1" id="Layer_1" xmlns="http://www.w3.org/2000/svg" xmlns:xlink="http://www.w3.org/1999/xlink" x="0px" y="0px"
	 viewBox="0 0 206.4 206.4" style="enable-background:new 0 0 206.4 206.4;" xml:space="preserve">
<style type="text/css">
	.st0{fill:#98813C;}
	.st1{fill:#016F5C;}
	.st2{fill:#CFC9C3;}
	.st3{fill:#99803D;}
	.st4{fill:#FFFFFF;}
	.st5{fill:#805622;}
	.st6{fill:#CFCAC4;}
	.st7{fill-rule:evenodd;clip-rule:evenodd;fill:#FFFFFF;}
</style>
<g id="XMLID_4551_">
	<g id="XMLID_5307_">
		<path id="XMLID_5308_" class="st4" d="M182.1,101.6h-1.5l0.2-2c0-2.6-4.2-3.3-6.7-3.3c-2.5,0-6.7,0.7-6.7,3.3l0.2,1.9h-1.2
			c-1.2,0-2.1,0.9-2.1,2.1v0.8c0,1.2,0.9,2.1,2.1,2.1h1.6l0.1,1.6c0.1,1,0.8,1.8,1.7,1.8h1.2v3.8h-3.2c-1.3,0-2.4,1.1-2.4,2.4v0.5
			H162V67.4c0-1.8-1-3.4-2.6-4.1c-21.4-9.9-43-15.1-64.5-15.5v-2.4h1.6c1,0,1.9-0.9,1.9-1.9l0.8-10.1c0-2.9-4.9-3.7-7.8-3.7
			s-7.8,0.8-7.8,3.8l0.8,10c0.1,1.1,0.9,2,1.9,2h1.6v2.4c-21.1,0.6-42.1,5.8-63,15.4c-1.6,0.7-2.6,2.4-2.6,4.1v70.7
			c0,1.8,1,3.4,2.6,4.1c2.8,1.3,5.7,2.6,8.5,3.7l-6.6,27.7c-0.2,0.8,0,1.6,0.5,2.2c0.5,0.6,1.2,1,2,1h10.1c1.2,0,2.2-0.8,2.5-2
			l1.9-7.7H140l1.9,7.7c0.3,1.2,1.3,2,2.5,2h10.1c0.8,0,1.5-0.4,2-1c0.5-0.6,0.7-1.4,0.5-2.2l-6.6-27.6c3-1.2,6-2.5,9-3.8v0
			c1.6-0.7,2.7-2.4,2.7-4.1v-13.2h3.3v0.5c0,1.3,1.1,2.4,2.4,2.4h12.6c1.3,0,2.4-1.1,2.4-2.4v-9.1c0-1.3-1.1-2.4-2.4-2.4h-3.3v-3.8
			h1.2c0.9,0,1.7-0.8,1.7-1.7l0.1-1.6h1.9c1.2,0,2.1-0.9,2.1-2.1v-0.8C184.2,102.6,183.2,101.6,182.1,101.6z"/>
	</g>
	<g id="XMLID_4877_">
		<path id="XMLID_4878_" class="st3" d="M182.1,101.6h-1.5l0.2-2c0-2.6-4.2-3.3-6.7-3.3c-2.5,0-6.7,0.7-6.7,3.3l0.2,1.9h-1.2
			c-1.2,0-2.1,0.9-2.1,2.1v0.8c0,1.2,0.9,2.1,2.1,2.1h1.6l0.1,1.6c0.1,1,0.8,1.8,1.7,1.8h1.2v3.8h-3.2c-1.3,0-2.4,1.1-2.4,2.4v0.5
			H162V67.4c0-1.8-1-3.4-2.6-4.1c-21.4-9.9-43-15.1-64.5-15.5v-2.4h1.6c1,0,1.9-0.9,1.9-1.9l0.8-10.1c0-2.9-4.9-3.7-7.8-3.7
			s-7.8,0.8-7.8,3.8l0.8,10c0.1,1.1,0.9,2,1.9,2h1.6v2.4c-21.1,0.6-42.1,5.8-63,15.4c-1.6,0.7-2.6,2.4-2.6,4.1v70.7
			c0,1.8,1,3.4,2.6,4.1c2.8,1.3,5.7,2.6,8.5,3.7l-6.6,27.7c-0.2,0.8,0,1.6,0.5,2.2c0.5,0.6,1.2,1,2,1h10.1c1.2,0,2.2-0.8,2.5-2
			l1.9-7.7H140l1.9,7.7c0.3,1.2,1.3,2,2.5,2h10.1c0.8,0,1.5-0.4,2-1c0.5-0.6,0.7-1.4,0.5-2.2l-6.6-27.6c3-1.2,6-2.5,9-3.8v0
			c1.6-0.7,2.7-2.4,2.7-4.1v-13.2h3.3v0.5c0,1.3,1.1,2.4,2.4,2.4h12.6c1.3,0,2.4-1.1,2.4-2.4v-9.1c0-1.3-1.1-2.4-2.4-2.4h-3.3v-3.8
			h1.2c0.9,0,1.7-0.8,1.7-1.7l0.1-1.6h1.9c1.2,0,2.1-0.9,2.1-2.1v-0.8C184.2,102.6,183.2,101.6,182.1,101.6z M166.4,103.2h1.3l0.1,1
			c-0.6-0.1-1.3-0.2-2,0v-0.4C165.9,103.4,166.1,103.2,166.4,103.2z M166.4,105.1c-0.3,0-0.6-0.3-0.6-0.6v-0.2
			c0.7,0.3,1.3,0.5,2,0.4l0,0.3H166.4z M165.4,118.2v1c-1.1-0.2-2.2-0.2-3.3-0.1v-0.9H165.4z M141.8,57.8c5.7,1.9,11.3,4.2,16.9,6.8
			c1.1,0.5,1.7,1.6,1.7,2.8v6.5L150.4,71c0,0-5.4-1.5-5.4-1.3c-0.1,0.2,4.9,2,4.9,2l10.5,3.8V88c-5-1.5-9.6-2.5-14.8-3.2
			c5,1.5,9.7,2.5,14.8,3.3v2.5l-10-1.2c0,0-5.1-0.6-5.2-0.4c0,0.2,4.8,1.1,4.8,1.1l10.3,2v17c-2-0.5-3.8-0.6-5.9-0.2
			c2,0.5,3.8,0.5,5.9,0.2v2.1c-4.3-0.4-8.3-0.4-12.6,0.1c4.3,0.4,8.3,0.4,12.6,0v2.5l-3.8,0.7l0-0.4l0,0.4l-2.2,0.4l-0.1-0.8
			l-0.1,0.9l-2.1,0.4l-0.1-1.2c0.6-0.1,1.1-0.2,1.7-0.4c-2.2,0.1-4.2,0.2-6.3,0.6l0-0.3l0,0.3c-0.7,0.1-1.5,0.3-2.2,0.5l-0.1-0.8
			l-0.1,0.8c-0.6,0.1-1.2,0.3-1.8,0.5c0.6,0,1.2-0.1,1.8-0.1l-0.8,10.3c-0.2,0-0.4,0.1-0.5,0.1l-0.9-11.5l-0.9,11.8
			c-0.1,0-0.1,0-0.2,0V57.8z M146,125.2l-0.7-8.3c0.2,0,1,0,1.9-0.1l-0.7,8.3C146.4,125.1,146.2,125.1,146,125.2z M153.6,132.2
			c-2.6,0.7-4.9,1.2-7.5,1.7C148.4,132.6,150.9,132,153.6,132.2z M154.7,118.1l-0.2-2.1l2-0.2l-0.2,2.3
			C155.8,118.1,155.3,118,154.7,118.1z M156.3,118.5l-0.4,4.5c-0.3,0.1-0.5,0.1-0.8,0.2l-0.4-4.5
			C155.3,118.6,155.8,118.6,156.3,118.5z M154.1,118.1c-0.5,0-1.1,0.1-1.6,0.1l-0.2-1.9l2-0.2L154.1,118.1z M154,118.7l-0.4,4.8
			c-0.2,0.1-0.5,0.1-0.7,0.2l-0.4-5C153,118.8,153.5,118.8,154,118.7z M151.7,118.3c-0.5,0.1-1.1,0.2-1.6,0.3l-0.2-2
			c0.2,0,0.3,0,0.3,0l1.6-0.2L151.7,118.3z M150.4,115.7c0,0-0.2,0-0.5,0.1l-0.1-1.2c0.7-0.1,1.5-0.3,2.3-0.5l-0.1,1.2L150.4,115.7z
			 M149.6,115.9c-0.5,0.1-1.3,0.3-2,0.4l-0.1-1.3c0.7-0.1,1.5-0.2,2.2-0.3L149.6,115.9z M147.3,116.4c-0.9,0.2-1.8,0.4-1.9,0.5
			l-0.1-1.6c0.7-0.1,1.4-0.1,2.1-0.2L147.3,116.4z M149.6,116.6l-0.2,2.1c0,0,0,0,0,0c0,0,0,0,0,0l-0.5,5.9c-0.2,0-0.4,0.1-0.6,0.1
			l-0.6-7.9C148.4,116.7,149.1,116.6,149.6,116.6z M151.7,118.8l-0.4,5.3c-0.2,0-0.4,0.1-0.7,0.1l-0.4-5.5
			C150.7,118.8,151.2,118.8,151.7,118.8z M159,125.9c-3,1.1-5.7,1.7-8.9,2C153.1,126.8,155.9,126.1,159,125.9z M158.3,122.4
			c-0.3,0.1-0.5,0.1-0.8,0.2l-0.4-4.2c0.4-0.1,0.7-0.1,1.1-0.2c-0.4,0-0.8-0.1-1.1-0.1l-0.2-2.4l2-0.2L158.3,122.4z M143.2,142
			c3.9-1.1,7.3-2.1,11.1-3.5C150.8,140.7,147.2,141.8,143.2,142z M159.9,138.3c-5.7,3.4-11.4,5.6-17.8,6.9
			C148.3,143,153.9,140.9,159.9,138.3z M116.5,51.4c7.9,1.3,15.8,3.3,23.7,6v55.2V131v17c-7.9,2.6-15.8,4.6-23.7,6v-23v-3.4V51.4z
			 M136.2,151.3l-1.6,0.1c0.5-0.1,1-0.3,1.5-0.4L136.2,151.3z M67.7,117c0.4,0,0.8,0,1.2,0l-0.8,11.7c-0.1,0-0.2,0-0.2,0l-0.1-1.7
			V117z M97,116.8l-0.1-1.7c0.7,0.1,1.4,0.1,2.2,0.2l-0.3,4c-0.5,0-1.1,0.1-1.6,0.1l-0.2-2.4c0.6,0,1.3-0.1,1.9-0.1
			C98.2,116.8,97.6,116.8,97,116.8z M67.7,142v-1.5c9.8,1,19.6,1.7,29.5,1.9c0,0,3.4,0.1,6.8,0.1c1.7,0,3.4,0,4.7,0.1
			c1.3,0,2.1,0,2.1,0.1c0,0-0.9,0.1-2.2,0.2c-1.3,0.1-3.1,0.1-4.9,0.2c-3.6,0.1-7.1,0.1-7.1,0.1C87,143.1,77.3,142.7,67.7,142z
			 M81.1,151.6c-4.1,0.6-8.1,0.1-11.9-1.6C73.3,150.8,77,151.3,81.1,151.6z M93.3,135.8c-4.7,0.4-8.9,0.4-13.6,0
			C84.4,135.4,88.7,135.4,93.3,135.8z M88.2,123.1c0.4,0,0.7,0,1.1,0l-0.5,6.6c0,0-0.1,0-0.1,0L88.2,123.1z M90.5,123.1
			c0.4,0,0.7,0,1.1,0l-0.5,6.7c0,0-0.1,0-0.1,0L90.5,123.1z M93.3,129.8l-0.5-6.8c0.4,0,0.7,0,1.1,0l-0.5,6.8
			C93.4,129.8,93.3,129.8,93.3,129.8z M100.6,125.5c-0.2,0-0.5,0-0.7,0.1l-0.2-2.9c0.4,0,0.7-0.1,1.1-0.1L100.6,125.5z M102,122.5
			c0.4,0,0.8-0.1,1.1-0.1l-0.2,2.9c-0.2,0-0.5,0-0.7,0.1L102,122.5z M100.6,125.7l-0.3,3.9c0,0-0.1,0-0.1,0l-0.3-4
			C100.1,125.7,100.4,125.7,100.6,125.7z M102.9,125.8l-0.3,3.8c0,0-0.1,0-0.1,0l-0.3-3.9C102.4,125.8,102.7,125.8,102.9,125.8z
			 M111.4,132.9c-2.5,0.5-4.8,0.6-7.4,0.2C106.6,132.6,108.9,132.5,111.4,132.9z M104.5,125.8c0.2,0,0.5,0,0.7,0l-0.3,3.8
			c-0.1,0-0.1,0-0.2,0L104.5,125.8z M109.5,129.4c-0.1,0-0.1,0-0.2,0l-0.3-3.8c0.2,0,0.5,0,0.7-0.1L109.5,129.4z M107.2,129.5
			c-0.1,0-0.1,0-0.2,0l-0.3-3.8c0.2,0,0.5,0,0.7,0L107.2,129.5z M106.8,125.1l-0.2-3c0.4,0,0.8-0.1,1.2-0.1l-0.2,3.1
			C107.3,125.1,107,125.1,106.8,125.1z M105.2,125.2c-0.3,0-0.5,0-0.8,0l-0.2-2.9c0.4,0,0.8-0.1,1.2-0.1L105.2,125.2z M104.2,121.8
			l-0.1-1.7c0.5,0,1-0.1,1.5-0.1l-0.1,1.8C105.1,121.8,104.6,121.8,104.2,121.8z M103.2,121.9c-0.4,0-0.8,0-1.2,0.1l-0.1-1.7
			c0.5,0,1-0.1,1.5-0.1L103.2,121.9z M100.8,122c-0.4,0-0.8,0-1.2,0.1l-0.1-1.7c0.5,0,1,0,1.4-0.1L100.8,122z M98.5,122.1
			c-0.4,0-0.8,0.1-1.2,0.1l-0.1-1.8c0.5,0,1,0,1.4-0.1L98.5,122.1z M98.5,122.7l-0.5,7c0,0-0.1,0-0.1,0l-0.5-6.9
			C97.8,122.8,98.1,122.8,98.5,122.7z M96.2,122.3c-0.4,0-0.8,0.1-1.2,0.1l-0.1-1.9c0.5,0,0.9,0,1.4,0L96.2,122.3z M96.2,122.9
			l-0.5,6.9c0,0-0.1,0-0.1,0l-0.5-6.8C95.5,122.9,95.8,122.9,96.2,122.9z M93.9,122.4c-0.4,0-0.8,0.1-1.1,0.1l-0.1-2
			c0.5,0,0.9,0,1.4,0L93.9,122.4z M91.6,122.7c-0.4,0-0.7,0.1-1.1,0.1l-0.2-2.2c0.5,0,0.9,0,1.4,0L91.6,122.7z M89.3,122.9
			c-0.4,0-0.7,0.1-1.1,0.1l-0.2-2.5c0.5,0,0.9,0,1.4,0L89.3,122.9z M86.5,129.7c0,0-0.1,0-0.1,0l-0.6-9.2c0.5,0,0.9,0,1.4,0
			L86.5,129.7z M84.2,129.6c0,0-0.1,0-0.1,0l-0.6-9.2c0.7,0,1.1,0,1.1,0c0.1,0,0.2,0,0.3,0L84.2,129.6z M82.4,132.1
			c-4,0.4-7.6,0.4-11.6-0.1C74.9,131.7,78.5,131.7,82.4,132.1z M72.5,129.1l-0.7-9.6c0.3,0,0.6,0.1,0.9,0.1c0.2,0,0.4,0,0.6,0.1
			l-0.7,9.4C72.6,129.1,72.6,129.1,72.5,129.1z M74.1,119.8c0.5,0,1,0.1,1.5,0.1l-0.7,9.3c-0.1,0-0.1,0-0.2,0L74.1,119.8z M76.5,120
			c0.3,0,0.7,0.1,1,0.1c0.1,0,0.3,0,0.4,0l-0.6,9.3c-0.1,0-0.1,0-0.2,0L76.5,120z M78.8,120.1c0.5,0,1,0.1,1.5,0.1l-0.6,9.2
			c-0.1,0-0.1,0-0.2,0L78.8,120.1z M81.1,120.3c0.5,0,1,0.1,1.4,0.1l-0.6,9.2c-0.1,0-0.1,0-0.2,0L81.1,120.3z M89.6,138.8
			c-7.5,0.2-14.4,0.1-21.8-0.6v-0.1C75.3,138,82.2,138.2,89.6,138.8z M112.1,145.4c-5.6,0.4-10.6,0.3-16.1-0.2
			C101.5,144.9,106.6,144.9,112.1,145.4z M113,147c-2.8,0.7-5.4,0.9-8.3,0.8C107.5,147.1,110.1,146.9,113,147z M111.9,129.2
			c-0.1,0-0.1,0-0.2,0l-0.3-3.9c0.2,0,0.5,0,0.7-0.1L111.9,129.2z M113.7,125.1l-0.4-5.8c0.5-0.1,1.1-0.1,1.6-0.2l-0.7,10
			c-0.1,0-0.1,0-0.2,0L113.7,125.1c0.1,0,0.1,0,0.2,0C113.8,125.1,113.8,125.1,113.7,125.1z M112.2,125c-0.3,0-0.5,0-0.8,0l-0.4-5.5
			c0.5-0.1,1-0.1,1.6-0.2L112.2,125z M109.9,125c-0.3,0-0.5,0-0.8,0l-0.2-3.2c0.3,0,0.6-0.1,0.8-0.1c-0.3,0-0.6,0-0.9,0l-0.1-2
			c0.5,0,1-0.1,1.5-0.1L109.9,125z M107.8,121.7c-0.4,0-0.8,0-1.2,0l-0.1-1.9c0.5,0,1-0.1,1.5-0.1L107.8,121.7z M106.3,118.6
			l-0.3-3.7c0.7-0.1,1.5-0.2,2.2-0.4l-0.3,3.9C107.4,118.5,106.9,118.5,106.3,118.6z M105.7,118.7c-0.6,0.1-1.1,0.1-1.7,0.2
			l-0.3-3.6c0.7-0.1,1.4-0.1,2.2-0.3L105.7,118.7z M103.4,118.9c-0.5,0-1.1,0.1-1.6,0.1l-0.3-3.7c0.7,0,1.4,0,2.1-0.1L103.4,118.9z
			 M101,119.1c-0.5,0-1.1,0.1-1.6,0.1l-0.3-3.9c0.7,0,1.4,0,2.1,0L101,119.1z M96.4,119.4c-0.5,0-1,0-1.6,0.1l-0.2-2.5
			c0.6,0,1.3-0.1,1.9-0.1L96.4,119.4z M94.1,119.5c-0.5,0-1,0-1.6,0.1l-0.2-2.5c0.6,0,1.3,0,1.9-0.1L94.1,119.5z M91.8,119.6
			c-0.5,0-1,0-1.5,0l-0.2-2.5c0.6,0,1.3,0,1.9-0.1L91.8,119.6z M89.5,119.6c-0.5,0-1,0-1.5,0l-0.2-2.5c0.6,0,1.3,0,1.9,0L89.5,119.6
			z M87.2,119.7c-0.5,0-1,0-1.5,0l-0.2-2.4c0.6,0,1.2,0,1.9,0L87.2,119.7z M84.9,119.7c-0.3,0-0.8,0-1.5,0l-0.2-2.4
			c0.6,0,1.2,0,1.9,0L84.9,119.7z M82.6,119.7c-0.5,0-1,0-1.5,0l-0.2-2.4c0.6,0,1.2,0,1.9,0L82.6,119.7z M80.3,119.6
			c-0.5,0-1,0-1.5,0l-0.2-2.3c0.6,0,1.2,0,1.9,0L80.3,119.6z M78,119.6c0,0-0.1,0-0.1,0c-0.5,0-1,0-1.4,0l-0.2-2.3
			c0.6,0,1.2,0,1.9,0L78,119.6z M75.7,119.5c-0.5,0-1.1,0-1.6-0.1l-0.2-2.2c0.6,0,1.2,0,1.9,0L75.7,119.5z M73.4,119.4
			c-0.2,0-0.4,0-0.5,0c-0.4,0-0.7,0-1,0l-0.2-2.1c0.6,0,1.2,0,1.9,0L73.4,119.4z M71.1,119.3c-0.3,0-0.5,0-0.5,0
			c0,0,0.2,0.1,0.5,0.1l-0.7,9.5c-0.1,0-0.1,0-0.2,0l-0.8-11.8c0.6,0,1.3,0,1.9,0.1L71.1,119.3z M67.7,152.9
			c15.7,2.5,31.4,2.6,47.3,0.1v1.3c-15.8,2.5-31.6,2.5-47.3-0.1V152.9z M93.6,154.4c-7.9,0.3-15.8-0.3-23.8-2
			c8.2,1.3,16,1.7,23.9,1.4c7.1-0.3,14.2-1.2,21.4-2.7v0.1C107.9,153,100.7,154.1,93.6,154.4z M91.4,47.8c0.1-0.8,0-1.6-0.2-2.4h2.2
			v2.4C92.7,47.8,92,47.8,91.4,47.8z M90.9,45.7c0-0.1,0-0.2-0.1-0.3h0.1C90.9,45.5,90.9,45.6,90.9,45.7z M90.4,45.8
			c0-0.1,0-0.2-0.1-0.3h0.1C90.5,45.5,90.5,45.6,90.4,45.8z M90.5,47.6c0,0.1,0,0.2,0,0.2c0,0-0.1,0-0.1,0
			C90.4,47.7,90.4,47.6,90.5,47.6z M87.8,43.9c0.1-2.5-0.1-4.9-0.7-7.5c-0.2,2.6-0.1,5,0.4,7.5H87c-0.1-3.5-0.4-6.9-1.2-10.4
			c0,3.6,0.3,6.9,0.9,10.4h-0.4c-0.2,0-0.4-0.2-0.4-0.5l-0.8-10c0-1.4,3.2-2.2,6.2-2.2s6.2,0.8,6.2,2.1l-0.8,10.1
			c0,0.3-0.2,0.5-0.4,0.5h-0.2c0.5-3.1,0.6-6,0.4-9.2c-0.6,3.1-0.7,6-0.4,9.2H95c0.1-0.9,0-1.8-0.3-2.8c-0.3,1-0.4,1.9-0.2,2.8h-5.5
			c0.2-1.2,0.1-2.2-0.4-3.4c-0.3,1.2-0.2,2.3,0.3,3.4H87.8z M89.4,45.4H90c-0.2,0.8-0.2,1.6,0.1,2.4c-0.2,0-0.4,0-0.6,0V45.4z
			 M92.1,49.3c7.6,0,15.3,0.6,22.9,1.8v7.4c-4.4-1-8.5-1.5-13.1-1.6c4.4,1,8.5,1.5,13.1,1.7v28.6c-9.9-1.2-19.9-1.7-29.9-1.4
			c0,0-0.9,0-2.3,0.1c-1.4,0.1-3.2,0.2-5,0.3c-1.8,0.1-3.7,0.3-5,0.4c-0.7,0.1-1.3,0.2-1.6,0.2c-0.4,0.1-0.6,0.1-0.6,0.1
			c0,0,0.9,0,2.2,0c1.3-0.1,3.1-0.1,4.8-0.2c3.5-0.1,7-0.1,7-0.1c10.2-0.1,20.4,0.7,30.5,2.1v6.4c-4.7-1.1-9.3-1.4-14.2-0.8
			c4.9,0.2,9.3,0.5,14.2,0.9V117l0,0.5c-0.6,0.1-1.2,0.2-1.8,0.2l-0.3-3.7l-0.3,3.7c-0.6,0.1-1.2,0.2-1.8,0.2l-0.3-4l-0.3,4
			c-0.6,0.1-1.1,0.1-1.7,0.2l-0.3-3.9c0.8-0.2,1.6-0.4,2.4-0.6c-0.8,0.1-1.6,0.2-2.4,0.3l0-0.1l0,0.1c-0.8,0.1-1.5,0.2-2.3,0.2
			l0-0.3l0,0.3c-0.8,0.1-1.5,0.1-2.3,0.2l0-0.5l0,0.5c-0.7,0-1.5,0.1-2.2,0.1l0-0.6l0,0.6c-0.7,0-1.5,0.1-2.2,0.1l0-0.7l0,0.7
			c-0.7,0-1.5,0-2.2,0l0-0.7l0,0.7c-0.7,0-1.4,0-2,0c0.7,0.1,1.4,0.2,2,0.3l-0.1,1.7c-0.6,0-1.3,0-1.9-0.1l-0.2-2.6l-0.2,2.6
			c-0.7,0-1.3,0-1.9,0l-0.2-2.6l-0.2,2.6c-0.7,0-1.3,0-2,0l-0.2-2.5l-0.2,2.5c-0.7,0-1.3,0-2,0l-0.2-2.5l-0.2,2.5c-0.7,0-1.3,0-2,0
			l-0.2-2.5l-0.2,2.5c-0.7,0-1.3,0-2,0l-0.2-2.5l-0.2,2.5c-0.6,0-1.3,0-2,0l-0.2-2.5l-0.2,2.5c-0.6,0-1.3,0-1.9,0l-0.2-2.6l-0.2,2.6
			c-0.6,0-1.3,0-1.9,0l-0.2-2.6l-0.2,2.6c-0.6,0-1.3,0-1.9,0.1l-0.2-2.7l-0.2,2.7c-0.6,0-1.3,0-1.9,0.1l-0.2-2.8l-0.2,2.8
			c-0.6,0-1.3,0.1-1.9,0.1l-0.2-2.8l-0.2,2.9c-0.4,0-0.8,0-1.2,0V91c8.4-0.3,16-0.3,24.4,0c-8.3-1.2-16.1-1.2-24.4-0.1V65.7
			c9.6-1,19.2-1.6,28.8-1.9c0,0,3.6-0.1,7.1-0.1c1.8,0,3.6,0,4.9-0.1c1.3,0,2.2,0,2.2-0.1c0,0-0.8-0.1-2.1-0.2
			c-1.3-0.1-3-0.1-4.7-0.2c-3.4-0.1-6.8-0.1-6.8-0.1c-9.8,0-19.7,0.4-29.5,1.1V51.4C75.9,50,84,49.3,92.1,49.3z M42.5,57.8
			c7.9-2.7,15.8-4.8,23.7-6.2v67.9V131v22.9c-7.9-1.4-15.9-3.5-23.7-6.2V131v-3.3V57.8z M47.7,151c0.5,0.2,1,0.3,1.6,0.5l-1.6-0.2
			L47.7,151z M40.6,125.1c-0.2,0-0.4-0.1-0.6-0.1l0-0.4c0.2,0,0.4,0,0.7,0L40.6,125.1z M40.9,142c-4-0.2-7.7-1.3-11-3.4
			C33.6,139.9,37,140.9,40.9,142z M36.1,123.7l0,0.5c-0.2,0-0.4-0.1-0.7-0.2l-0.6-7.4c0.5,0.1,1.2,0.1,1.9,0.2l-0.5,6.7
			c-0.2,0-0.4,0-0.6,0C35.7,123.6,35.9,123.6,36.1,123.7z M33.9,127.9c-3.1-0.3-5.9-0.9-8.9-2C28.2,126.1,31,126.8,33.9,127.9z
			 M28.4,122.3l-0.3-3.8c0.5,0.1,1,0.1,1.5,0.2l-0.3,3.8C28.9,122.4,28.7,122.4,28.4,122.3z M30.4,118.7c0.5,0,1,0,1.5,0l-0.4,4.3
			c-0.3-0.1-0.5-0.1-0.8-0.2L30.4,118.7z M32.7,118.8c0.5,0,1,0,1.5-0.1l-0.4,5c-0.2-0.1-0.5-0.1-0.7-0.2L32.7,118.8z M36.6,129.8
			c-4.5-0.6-8.5-1.5-12.8-3v-0.1C28.3,127.4,32.3,128.3,36.6,129.8z M38,133.9c-2.7-0.5-4.9-1-7.5-1.7C33.2,132,35.7,132.6,38,133.9
			z M37.7,124.5l0-0.4c0.2,0.1,0.4,0.1,0.7,0.2l0,0.3C38.1,124.6,37.9,124.6,37.7,124.5z M37.6,123.6l-0.5-6.8
			c1,0.1,1.8,0.1,1.8,0.1c0-0.1-0.8-0.3-1.8-0.5l-0.1-1.3c0.7,0.1,1.4,0.1,2.1,0.2l-0.7,8.5C38.2,123.7,37.9,123.6,37.6,123.6z
			 M36.7,116.3c-0.7-0.2-1.5-0.3-2-0.4l-0.1-1.1c0.7,0.1,1.4,0.2,2.2,0.3L36.7,116.3z M34.4,115.8c-0.2,0-0.4-0.1-0.4-0.1l-1.7-0.3
			l-0.1-1.2c0.8,0.2,1.5,0.3,2.2,0.5L34.4,115.8z M33.7,116.5c0,0,0.3,0,0.6,0.1l-0.2,2c-0.5-0.1-1.1-0.2-1.6-0.3l-0.2-2L33.7,116.5
			z M31.9,118.2c-0.5-0.1-1.1-0.1-1.6-0.1l-0.2-2.1l2,0.2L31.9,118.2z M29.6,118.1c-0.5,0-1.1,0-1.6,0l-0.2-2.3l2,0.2L29.6,118.1z
			 M27.3,118.1c-0.5,0-0.9,0-1.4,0.1c0.5,0.1,0.9,0.2,1.4,0.3l-0.3,3.5c-0.3-0.1-0.6-0.2-0.9-0.3l-0.6-6.1l2,0.2L27.3,118.1z
			 M24.7,121.2c-0.3-0.1-0.6-0.2-0.9-0.3v-5.7l1.4,0.2L24.7,121.2z M23.8,130.5l10.5,3.8c0,0,5,1.8,4.9,2c-0.1,0.2-5.4-1.3-5.4-1.3
			l-10-2.9V130.5z M40.9,144.8v0.1c-6-1.3-11.4-3.4-16.8-6.7C29.9,140.7,35.2,142.8,40.9,144.8z M25.5,64.7
			c5.1-2.4,10.3-4.5,15.4-6.3v7.7c-3.2,0.6-6.1,1.4-9.2,2.6c3.3-0.5,6.2-1.2,9.2-2.4v54.6l-0.3,3.3c-0.2-0.1-0.5-0.1-0.7-0.2
			l-0.7-8.8c0.5,0,1,0,1.5,0.1c-0.5-0.1-1-0.2-1.5-0.4l-0.1-0.9l-0.1,0.8c-0.7-0.2-1.5-0.3-2.2-0.5l0-0.4l0,0.4
			c-0.8-0.1-1.5-0.2-2.3-0.3l0,0l0,0c-1.4-0.2-2.8-0.3-4.3-0.4c0.7,0.2,1.3,0.3,1.9,0.5l-0.1,1.1L30,115l-0.1-0.9l-0.1,0.8l-2.2-0.4
			l0-0.4l0,0.4l-3.8-0.7v-2.5c4.2,0.4,8.1,0.4,12.4,0c-4.2-0.4-8.2-0.4-12.4-0.1v-2c1.9,0.3,3.7,0.2,5.7-0.3
			c-1.9-0.3-3.7-0.3-5.7,0.1V92.1l10.1-1.9c0,0,5.1-1,5.1-1.2c0-0.2-4.9,0.4-4.9,0.4l-10.2,1.2v-2.6c5.1-0.7,9.7-1.8,14.6-3.3
			c-5.1,0.7-9.7,1.7-14.6,3.2V75.4L34,71.7c0,0,5.2-1.9,5.2-2.1c-0.1-0.2-5.2,1.3-5.2,1.3l-10.3,2.9v-6.4
			C23.8,66.2,24.5,65.1,25.5,64.7z M23.8,138.1v-0.9c0,1.1,0.7,2.2,1.7,2.7c5.1,2.3,10.3,4.4,15.4,6.2v1.1c-5.2-1.8-10.3-4-15.4-6.4
			C24.5,140.3,23.8,139.2,23.8,138.1z M40.4,174.5c-0.1,0.5-0.6,0.8-1.1,0.8h-0.6l1.6-5.1c0,0,0.8-2.6,0.7-2.6c-0.1,0-1,2.4-1,2.4
			l-2.1,5.3h-1.5l0.7-2.6c0,0,0.4-1.6,0.3-1.6c-0.1,0-0.7,1.4-0.7,1.4l-1.1,2.8h-3.6l0.6-2.5c0,0,0.4-1.7,0.3-1.7
			c-0.1,0-0.7,1.5-0.7,1.5l-1,2.6H30l2.2-8.2c0,0,1.2-4.3,1.1-4.4c-0.1,0-1.4,4-1.4,4l-2.7,8.5c-0.3,0-0.6-0.2-0.7-0.4
			c-0.2-0.3-0.3-0.6-0.2-0.9l6.6-27.5c0.3,0.1,0.6,0.2,0.9,0.4l-2.3,9.6c0,0-1.2,5-1.1,5.1c0.1,0,1.4-4.7,1.4-4.7l2.7-9.6
			c0.2,0.1,0.3,0.1,0.5,0.2l-1,5.2c0,0-0.5,2.8-0.4,2.8c0.1,0,0.8-2.6,0.8-2.6l1.3-5.1c0.4,0.1,0.7,0.3,1.1,0.4l-0.2,2.2
			c0,0-0.1,1.2,0,1.2c0.1,0,0.4-1.1,0.4-1.1l0.6-2.1c1.5,0.5,3,1.1,4.5,1.6l-0.4-0.1l-0.3,2.2c0,0-0.2,1.1-0.1,1.1
			c0.1,0,0.4-0.9,0.4-0.9l0.7-2.1c0.3,0.1,0.7,0.2,1,0.3l-2.9,10.6c0,0-1.5,5.5-1.4,5.5c0.1,0,1.7-5.1,1.7-5.1l3.3-10.8
			c0.1,0,0.2,0.1,0.3,0.1L40.4,174.5z M44.1,165.6l0.1-0.5l28.2-0.1c0,0,13.9-0.1,13.9-0.3c0-0.2-13.3-0.5-13.3-0.5l-28.4-0.6
			l0.1-0.4l18.9-0.1c0,0,9.7-0.1,9.7-0.3c0-0.2-9.2-0.5-9.2-0.5l-19-0.6l0.1-0.6l16.3-0.1c0,0,8.4-0.1,8.4-0.3c0-0.2-8-0.5-8-0.5
			l-16.4-0.6l0.1-0.6l13.7-0.1c0,0,7.1-0.1,7.1-0.3c0-0.2-6.8-0.5-6.8-0.5l-13.7-0.6l0.1-0.6l11.1-0.1c0,0,5.9-0.1,5.9-0.3
			c0-0.2-5.6-0.5-5.6-0.5l-11-0.6l0.2-0.6l8.5-0.1c0,0,4.6-0.1,4.6-0.3c0-0.2-4.4-0.5-4.4-0.5l-8.4-0.6l0.2-0.7l5.9-0.1
			c0,0,0,0,0.1,0c12.7,3.4,25.5,5.1,38.4,5.1c12.8,0,25.7-1.7,38.6-5.1l6.3,0.1l0.1,0.6l-8.7,0.6c0,0-4.6,0.3-4.6,0.5
			c0,0.2,4.4,0.3,4.4,0.3l9.3,0.1l0.1,0.6l-11.3,0.6c0,0-5.9,0.3-5.9,0.5c0,0.2,5.6,0.3,5.6,0.3l11.9,0.1l0.1,0.6l-13.9,0.6
			c0,0-7.1,0.3-7.1,0.5s6.8,0.3,6.8,0.3l14.6,0.1l0.1,0.6l-16.5,0.6c0,0-8.4,0.3-8.4,0.5c0,0.2,8,0.3,8,0.3l17.2,0.1l0.1,0.6
			l-19.1,0.6c0,0-9.7,0.3-9.7,0.5c0,0.2,9.2,0.3,9.2,0.3l19.9,0.1l0.1,0.4l-28.3,0.6c0,0-13.9,0.3-13.9,0.5c0,0.2,13.3,0.3,13.3,0.3
			l29.3,0.1l0,0l0.1,0.6H44.1z M155.5,174c0.1,0.3,0,0.7-0.2,0.9c-0.2,0.2-0.4,0.3-0.7,0.4l-2-8.1c0,0-1-4-1.1-4
			c-0.1,0,0.8,4.3,0.8,4.3l1.6,7.9h-1.1l-0.6-1.7c0,0-0.5-1.3-0.6-1.3c-0.1,0,0.2,1.5,0.2,1.5l0.3,1.6h-0.5l-1.5-4.8
			c0,0-0.8-2.6-0.9-2.6c-0.1,0,0.6,2.8,0.6,2.8l1.1,4.6h-1.6l-1.4-6.1c0,0-0.7-3-0.8-3c-0.1,0,0.4,2.9,0.4,2.9l1,6.2h-1l-0.8-2.6
			c0,0-0.4-1.3-0.5-1.3c-0.1,0,0.1,1.3,0.1,1.3l0.4,2.5h-1.5l-1.4-5.7c0,0-0.7-2.9-0.8-2.9c-0.1,0,0.4,2.8,0.4,2.8l1.1,5.7h-0.1
			c-0.5,0-0.9-0.3-1.1-0.8l-5.8-23.9c0.3-0.1,0.6-0.2,1-0.3l2,8.5c0,0,1.1,4.5,1.1,4.4s-0.7-4.3-0.7-4.3l-1.7-8.8
			c0.2-0.1,0.5-0.2,0.7-0.2l1.4,5.6c0,0,0.8,3,0.8,3c0.1,0-0.4-3-0.4-3l-1.1-5.9c0.3-0.1,0.5-0.2,0.8-0.3l0.7,2.4
			c0,0,0.5,1.6,0.6,1.6c0.1,0-0.2-1.6-0.2-1.6l-0.4-2.6c0.5-0.2,1-0.4,1.5-0.5l2.3,10c0,0,1.2,5.3,1.3,5.3s-0.9-5.1-0.9-5.1
			l-2.1-10.4c0.3-0.1,0.5-0.2,0.8-0.3l1.1,3.5c0,0,0.7,2.1,0.8,2c0.1,0-0.4-2-0.4-2l-0.8-3.7c0.3-0.1,0.6-0.2,1-0.3l0.8,2.4
			c0,0,0.5,1.6,0.6,1.6s-0.2-1.6-0.2-1.6l-0.5-2.6c0.2-0.1,0.3-0.1,0.5-0.2l0.9,3.8c0,0,0.6,2.5,0.7,2.5c0.1,0-0.3-2.4-0.3-2.4
			l-0.6-4.1c0.2-0.1,0.3-0.1,0.5-0.2L155.5,174z M160.5,138c0,1.2-0.7,2.3-1.8,2.8v0c-5.6,2.6-11.3,4.8-16.9,6.8v-1.1
			c5.6-1.9,11.3-4.1,16.9-6.6v0c1.1-0.5,1.8-1.5,1.8-2.7V138z M160.5,132l-10.3,3c0,0-5.1,1.4-5.2,1.3c-0.1-0.2,5.2-2.1,5.2-2.1
			l10.3-3.7V132z M160.5,126.7c-4.4,1.4-8.5,2.4-13,3C151.9,128.3,155.9,127.3,160.5,126.7L160.5,126.7z M159.7,122l-0.6-6.5
			l1.4-0.2v6.5C160.3,121.8,160,121.9,159.7,122z M162,123.3v-0.7c0.7,0.2,1.4,0.1,2.2-0.3c-0.7-0.3-1.4-0.3-2.2-0.1v-2.7
			c1.1,0.3,2.2,0.4,3.3,0.3v0.6c-0.7-0.1-1.4,0-2.1,0.3c0.7,0.3,1.4,0.4,2.1,0.3v2.5H162z M180.4,115.3c0.5,0,0.9,0.4,0.9,0.9v2.1
			c-2.7-0.4-5.2-0.4-8,0c2.7,0.5,5.2,0.5,8,0.2v6.9c0,0.5-0.4,0.9-0.9,0.9h-12.6c-0.5,0-0.9-0.4-0.9-0.9v-0.6
			c4.3,0.5,8.3,0.6,12.7,0.2c-4.3-0.5-8.3-0.6-12.7-0.3v-1.7c1.5,0.3,3,0.2,4.5-0.2c-1.6-0.4-3-0.4-4.5-0.1v-5.8
			c4.3,0.5,8.1,0.5,12.4,0c-4.2-0.4-8.1-0.4-12.4-0.1v-0.5c0-0.5,0.4-0.9,0.9-0.9H180.4z M174.1,111.5c-0.3,0.8-0.4,1.5-0.1,2.3
			h-0.4c0.1-1.3,0.1-2.5-0.1-3.8h2.2v3.8h-1.3C174.6,113,174.5,112.3,174.1,111.5z M173.2,113.8h-0.6v-3.8h0.7
			C173,111.2,173,112.5,173.2,113.8z M178.6,108.1c0,0.2-0.1,0.3-0.2,0.3H178c0.5-2.6,0.7-5.1,0.6-7.8c-0.6,2.7-0.9,5.1-0.8,7.8h-7
			c0.3-2.6,0.3-4.9-0.2-7.5c-0.4,2.6-0.3,4.9,0.2,7.5h-0.9c-0.1,0-0.2-0.1-0.2-0.3l-0.7-8.4c0-0.9,2.3-1.7,5.1-1.7
			c2.8,0,5.1,0.8,5.1,1.7L178.6,108.1z M182.1,103.2c0.3,0,0.6,0.3,0.6,0.6v0.6c-0.7-0.2-1.5-0.2-2.3-0.1l0.1-1.1H182.1z
			 M182.1,105.1h-1.7l0.1-0.6c0.7,0.3,1.4,0.4,2.1,0.4C182.4,105,182.3,105.1,182.1,105.1z"/>
	</g>
	<g id="XMLID_4875_">
		<path id="XMLID_4876_" class="st3" d="M44.3,126.9c0,6.3,0.2,12.7,0.5,19.4c0.4-6.6,0.7-12.9,0.8-19.2c0,6.4,0.2,12.8,0.5,19.5
			c0.4-6.6,0.7-13,0.8-19.3c0,6.4,0.2,12.9,0.5,19.7c0.4-6.6,0.7-13.1,0.8-19.5c0,6.5,0.2,13,0.5,19.8c0.4-6.7,0.7-13.2,0.8-19.6
			c0,6.5,0.2,13.1,0.5,19.9c0.4-6.7,0.7-13.3,0.8-19.8c0,6.6,0.2,13.2,0.5,20.1c0.4-6.8,0.7-13.4,0.8-19.9c0,6.6,0.2,13.3,0.5,20.2
			c0.4-6.8,0.7-13.4,0.8-20c0,6.7,0.2,13.4,0.5,20.4c0.4-6.9,0.7-13.5,0.8-20.2c0,6.7,0.2,13.5,0.5,20.5c0.4-6.9,0.7-13.6,0.8-20.3
			c0,6.8,0.2,13.6,0.5,20.6c0.4-7,0.7-13.7,0.8-20.5c0,6.8,0.2,13.7,0.5,20.8c0.4-7,0.7-13.8,0.8-20.6c0,6.9,0.2,13.7,0.5,20.9
			c0.4-7.1,0.7-13.9,0.8-20.7c0,6.9,0.2,13.8,0.5,21.1c0.4-7.1,0.7-14,0.8-20.9c0,6.9,0.2,13.9,0.5,21.2c0.4-7.2,0.7-14.1,0.8-21
			c0,7,0.2,14,0.5,21.3c0.4-7.2,0.7-14.2,0.8-21.2c0,7,0.2,14.1,0.5,21.5c0.4-7.3,0.7-14.3,0.8-21.3c0,7.1,0.2,14.2,0.5,21.6
			c1-17.2,1.1-33.1,0.4-50.6c-0.4,7.5-0.7,14.6-0.8,21.7c0-7.1-0.1-14.3-0.4-21.7c-0.4,7.4-0.7,14.5-0.8,21.6
			c0-7.1-0.1-14.2-0.4-21.6c-0.4,7.4-0.7,14.4-0.8,21.4c0-7-0.1-14.1-0.4-21.4c-0.4,7.3-0.7,14.3-0.8,21.3c0-7-0.1-14-0.4-21.3
			c-0.4,7.3-0.7,14.2-0.8,21.2c0-6.9-0.1-13.9-0.4-21.2c-0.4,7.2-0.7,14.1-0.8,21c0-6.9-0.1-13.8-0.4-21c-0.4,7.2-0.7,14-0.8,20.9
			c0-6.8-0.1-13.7-0.4-20.9c-0.4,7.1-0.7,13.9-0.8,20.7c0-6.8-0.1-13.6-0.4-20.7c-0.4,7.1-0.7,13.9-0.8,20.6
			c0-6.7-0.1-13.5-0.4-20.6c-0.4,7-0.7,13.8-0.8,20.5c0-6.7-0.1-13.4-0.4-20.5c-0.4,7-0.7,13.7-0.8,20.3c0-6.6-0.1-13.3-0.4-20.3
			c-0.4,6.9-0.7,13.6-0.8,20.2c0-6.6-0.1-13.3-0.4-20.2c-0.4,6.9-0.7,13.5-0.8,20c0-6.6-0.1-13.2-0.4-20c-0.4,6.8-0.7,13.4-0.8,19.9
			c0-6.5-0.1-13.1-0.4-19.9c-0.4,6.8-0.7,13.3-0.8,19.8c0-6.5-0.1-13-0.4-19.8c-0.4,6.7-0.7,13.2-0.8,19.6c0-6.4-0.1-12.9-0.4-19.6
			c-0.4,6.7-0.7,13.1-0.8,19.5c0-6.4-0.1-12.8-0.4-19.5c-1,15.5-1.2,29.5-0.4,45C43.9,139.4,44.2,133.1,44.3,126.9z"/>
	</g>
	<g id="XMLID_4873_">
		<path id="XMLID_4874_" class="st3" d="M25.3,65.8c4.4-1.1,8.2-2.5,12.3-4.4C33.3,62.5,29.4,63.9,25.3,65.8z"/>
	</g>
	<g id="XMLID_4871_">
		<path id="XMLID_4872_" class="st3" d="M35.4,63.5C32,64,29,65.2,26,67.1C29.3,66,32.2,64.9,35.4,63.5z"/>
	</g>
	<g id="XMLID_4869_">
		<path id="XMLID_4870_" class="st3" d="M39.9,81.8c-2.9,0.3-5.6,0.9-8.4,1.9C34.5,83.5,37.1,82.9,39.9,81.8z"/>
	</g>
	<g id="XMLID_4867_">
		<path id="XMLID_4868_" class="st3" d="M26.1,77.3C30,76.8,33.4,76,37,74.6C33.2,75.1,29.8,76,26.1,77.3z"/>
	</g>
	<g id="XMLID_4865_">
		<path id="XMLID_4866_" class="st3" d="M25.3,93.2c4-0.2,7.5-0.8,11.3-1.9C32.7,91.6,29.2,92.2,25.3,93.2z"/>
	</g>
	<g id="XMLID_4863_">
		<path id="XMLID_4864_" class="st3" d="M31.8,95.6c2.7,0.3,5,0.1,7.6-0.5C36.8,94.9,34.4,95,31.8,95.6z"/>
	</g>
	<g id="XMLID_4859_">
		<path id="XMLID_4862_" class="st3" d="M34.9,97.5c1.6,0.3,2.9,0.1,4.4-0.6C37.7,96.8,36.3,97,34.9,97.5z"/>
	</g>
	<g id="XMLID_4853_">
		<path id="XMLID_4856_" class="st3" d="M146.5,61.4c4.1,1.9,7.9,3.3,12.3,4.4C154.7,63.9,150.8,62.5,146.5,61.4z"/>
	</g>
	<g id="XMLID_4815_">
		<path id="XMLID_4852_" class="st3" d="M148.6,63.5c3.2,1.4,6.1,2.5,9.4,3.6C155.1,65.2,152.1,64,148.6,63.5z"/>
	</g>
	<g id="XMLID_4813_">
		<path id="XMLID_4814_" class="st3" d="M141.9,65.9c3.5,1.4,6.8,2.3,10.5,2.8C148.9,67.3,145.6,66.4,141.9,65.9z"/>
	</g>
	<g id="XMLID_4811_">
		<path id="XMLID_4812_" class="st3" d="M152.5,83.7c-2.8-1.1-5.4-1.7-8.4-1.9C146.9,82.8,149.6,83.4,152.5,83.7z"/>
	</g>
	<g id="XMLID_4809_">
		<path id="XMLID_4810_" class="st3" d="M147.1,74.7c3.6,1.3,7,2.1,10.9,2.6C154.3,76,150.9,75.1,147.1,74.7z"/>
	</g>
	<g id="XMLID_4807_">
		<path id="XMLID_4808_" class="st3" d="M147.4,91.4c3.8,1.1,7.3,1.7,11.3,1.9C154.9,92.2,151.4,91.6,147.4,91.4z"/>
	</g>
	<g id="XMLID_4805_">
		<path id="XMLID_4806_" class="st3" d="M152.3,95.7c-2.6-0.6-5-0.8-7.6-0.5C147.2,95.7,149.6,95.9,152.3,95.7z"/>
	</g>
	<g id="XMLID_4803_">
		<path id="XMLID_4804_" class="st3" d="M68.6,52.7c10.9-1.1,20.7-1.6,31.6-1.6C89.5,50.2,79.4,50.7,68.6,52.7z"/>
	</g>
	<g id="XMLID_4801_">
		<path id="XMLID_4802_" class="st3" d="M87.1,52.5c-5.7,0-10.8,0.3-16.5,1.1C76.3,53.7,81.4,53.4,87.1,52.5z"/>
	</g>
	<g id="XMLID_4799_">
		<path id="XMLID_4800_" class="st3" d="M82.7,55.3c-4.8-0.1-9.3,0.3-14.1,1C73.5,56.4,77.9,56.1,82.7,55.3z"/>
	</g>
	<g id="XMLID_4797_">
		<path id="XMLID_4798_" class="st3" d="M80.5,61.6c8.4,0.3,15.9,0.1,24.3-0.5C96.4,60.8,88.8,61,80.5,61.6z"/>
	</g>
	<g id="XMLID_4795_">
		<path id="XMLID_4796_" class="st3" d="M114.5,53.8c-3.5-0.7-6.7-1-10.3-0.9C107.7,53.7,110.9,53.9,114.5,53.8z"/>
	</g>
	<g id="XMLID_4793_">
		<path id="XMLID_4794_" class="st3" d="M69,67.1c8.4,0.2,16-0.1,24.4-0.8C85.1,66.1,77.4,66.4,69,67.1z"/>
	</g>
	<g id="XMLID_4791_">
		<path id="XMLID_4792_" class="st3" d="M90.2,83.6c8-0.4,15.2-0.2,23.1,0.7C105.6,82.6,98.2,82.4,90.2,83.6z"/>
	</g>
	<g id="XMLID_4789_">
		<path id="XMLID_4790_" class="st3" d="M112.9,82c-4.1-0.9-7.9-1.3-12.2-1.4C104.8,81.6,108.6,82,112.9,82z"/>
	</g>
	<g id="XMLID_4787_">
		<path id="XMLID_4788_" class="st3" d="M69,82.8c6,0.1,11.4-0.2,17.4-1C80.5,81.8,75,82.1,69,82.8z"/>
	</g>
	<g id="XMLID_4785_">
		<path id="XMLID_4786_" class="st3" d="M72.1,78.8c2,0.3,3.7,0.1,5.6-0.5C75.7,78.1,74,78.2,72.1,78.8z"/>
	</g>
	<g id="XMLID_4783_">
		<path id="XMLID_4784_" class="st3" d="M91.2,73.6c7.3-0.4,13.8-0.3,21.1,0.1C105.2,72.4,98.5,72.4,91.2,73.6z"/>
	</g>
	<g id="XMLID_4780_">
		<path id="XMLID_4781_" class="st3" d="M91.5,92.9c-3.2-0.5-6.2-0.6-9.5-0.3C85.2,93.2,88.2,93.3,91.5,92.9z"/>
	</g>
	<g id="XMLID_4778_">
		<path id="XMLID_4779_" class="st3" d="M111.8,97.2c-3.4-0.5-6.5-0.6-9.9-0.3C105.3,97.4,108.4,97.5,111.8,97.2z"/>
	</g>
	<g id="XMLID_4776_">
		<path id="XMLID_4777_" class="st3" d="M72.1,105.9c7.9,0.4,15,0.3,22.9-0.3C87.1,105.3,80,105.4,72.1,105.9z"/>
	</g>
	<g id="XMLID_4774_">
		<path id="XMLID_4775_" class="st3" d="M84.6,107.8c2.5,0.5,4.8,0.5,7.2,0C89.4,107.4,87.1,107.4,84.6,107.8z"/>
	</g>
	<g id="XMLID_4772_">
		<path id="XMLID_4773_" class="st3" d="M43.4,59.1c-0.5,6.8-0.5,12.9,0,19.7C43.9,72.1,43.8,65.9,43.4,59.1z"/>
	</g>
	<g id="XMLID_4770_">
		<path id="XMLID_4771_" class="st3" d="M44.3,58.9c-0.5,6.8-0.5,13,0,19.7C44.7,71.9,44.7,65.7,44.3,58.9z"/>
	</g>
	<g id="XMLID_4768_">
		<path id="XMLID_4769_" class="st3" d="M45.1,58.7c-0.5,6.8-0.5,13,0,19.8C45.5,71.8,45.5,65.5,45.1,58.7z"/>
	</g>
	<g id="XMLID_4766_">
		<path id="XMLID_4767_" class="st3" d="M45.9,58.5c-0.5,6.8-0.5,13,0,19.9C46.3,71.6,46.3,65.3,45.9,58.5z"/>
	</g>
	<g id="XMLID_4764_">
		<path id="XMLID_4765_" class="st3" d="M46.7,58.3c-0.5,6.8-0.5,13.1,0,19.9C47.1,71.4,47.1,65.1,46.7,58.3z"/>
	</g>
	<g id="XMLID_4761_">
		<path id="XMLID_4762_" class="st3" d="M47.5,58c-0.5,6.9-0.5,13.1,0,20C48,71.2,47.9,64.9,47.5,58z"/>
	</g>
	<g id="XMLID_4759_">
		<path id="XMLID_4760_" class="st3" d="M48.4,57.8c-0.5,6.9-0.5,13.1,0,20C48.8,71,48.8,64.7,48.4,57.8z"/>
	</g>
	<g id="XMLID_4757_">
		<path id="XMLID_4758_" class="st3" d="M49.2,57.6c-0.5,6.9-0.5,13.2,0,20.1C49.6,70.9,49.6,64.5,49.2,57.6z"/>
	</g>
	<g id="XMLID_4755_">
		<path id="XMLID_4756_" class="st3" d="M50,57.4c-0.5,6.9-0.5,13.2,0,20.2C50.4,70.7,50.4,64.3,50,57.4z"/>
	</g>
	<g id="XMLID_4753_">
		<path id="XMLID_4754_" class="st3" d="M50.8,57.2c-0.5,7-0.5,13.3,0,20.2C51.2,70.5,51.2,64.1,50.8,57.2z"/>
	</g>
	<g id="XMLID_4751_">
		<path id="XMLID_4752_" class="st3" d="M51.6,56.9c-0.5,7-0.5,13.3,0,20.3C52,70.3,52,63.9,51.6,56.9z"/>
	</g>
	<g id="XMLID_4749_">
		<path id="XMLID_4750_" class="st3" d="M52.5,56.7c-0.5,7-0.5,13.3,0,20.3C52.9,70.1,52.9,63.7,52.5,56.7z"/>
	</g>
	<g id="XMLID_4747_">
		<path id="XMLID_4748_" class="st3" d="M53.3,56.5c-0.5,7-0.5,13.4,0,20.4C53.7,70,53.7,63.5,53.3,56.5z"/>
	</g>
	<g id="XMLID_4745_">
		<path id="XMLID_4746_" class="st3" d="M54.1,56.3c-0.5,7-0.5,13.4,0,20.5C54.5,69.8,54.5,63.3,54.1,56.3z"/>
	</g>
	<g id="XMLID_4743_">
		<path id="XMLID_4744_" class="st3" d="M54.9,56.1c-0.5,7.1-0.4,13.5,0,20.5C55.4,69.6,55.2,63.1,54.9,56.1z"/>
	</g>
	<g id="XMLID_4741_">
		<path id="XMLID_4742_" class="st3" d="M55.7,55.8c-0.6,7.1-0.4,13.5,0,20.6C56.2,69.4,56,62.9,55.7,55.8z"/>
	</g>
	<g id="XMLID_4739_">
		<path id="XMLID_4740_" class="st3" d="M56.5,55.6c-0.6,7.1-0.3,13.5,0,20.6C57.1,69.2,56.8,62.7,56.5,55.6z"/>
	</g>
	<g id="XMLID_4737_">
		<path id="XMLID_4738_" class="st3" d="M57.4,55.4c-0.6,7.1-0.3,13.6,0,20.7C57.9,69,57.6,62.5,57.4,55.4z"/>
	</g>
	<g id="XMLID_4735_">
		<path id="XMLID_4736_" class="st3" d="M58.2,55.2c-0.6,7.1-0.3,13.6,0,20.7C58.7,68.9,58.5,62.3,58.2,55.2z"/>
	</g>
	<g id="XMLID_4733_">
		<path id="XMLID_4734_" class="st3" d="M59,55c-0.6,7.2-0.3,13.7,0,20.8C59.6,68.7,59.3,62.1,59,55z"/>
	</g>
	<g id="XMLID_4731_">
		<path id="XMLID_4732_" class="st3" d="M59.8,54.7c-0.6,7.2-0.3,13.7,0,20.9C60.4,68.5,60.1,61.9,59.8,54.7z"/>
	</g>
	<g id="XMLID_4729_">
		<path id="XMLID_4730_" class="st3" d="M60.6,54.5c-0.6,7.2-0.3,13.7,0,20.9C61.2,68.3,60.9,61.7,60.6,54.5z"/>
	</g>
	<g id="XMLID_4727_">
		<path id="XMLID_4728_" class="st3" d="M61.5,54.3c-0.6,7.2-0.3,13.8,0,21C62,68.1,61.7,61.5,61.5,54.3z"/>
	</g>
	<g id="XMLID_4725_">
		<path id="XMLID_4726_" class="st3" d="M62.3,54.1c-0.6,7.2-0.3,13.8,0,21C62.9,68,62.5,61.3,62.3,54.1z"/>
	</g>
	<g id="XMLID_4723_">
		<path id="XMLID_4724_" class="st3" d="M63.1,53.9c-0.6,7.3-0.3,13.8,0,21.1C63.7,67.8,63.3,61.1,63.1,53.9z"/>
	</g>
	<g id="XMLID_4721_">
		<path id="XMLID_4722_" class="st3" d="M63.9,53.6c-0.6,7.3-0.3,13.9,0,21.2C64.5,67.6,64.1,60.9,63.9,53.6z"/>
	</g>
	<g id="XMLID_4719_">
		<path id="XMLID_4720_" class="st3" d="M64.7,53.4c-0.7,7.3-0.3,13.9,0,21.2C65.4,67.4,64.9,60.7,64.7,53.4z"/>
	</g>
	<g id="XMLID_4717_">
		<path id="XMLID_4718_" class="st3" d="M118.4,130.2c0.1,7,0.4,14,0.8,21.3c0.3-7.3,0.4-14.4,0.4-21.5c0.1,6.9,0.4,13.9,0.8,21.2
			c0.3-7.3,0.4-14.3,0.4-21.3c0.1,6.9,0.4,13.8,0.8,21c0.3-7.2,0.4-14.2,0.4-21.2c0.1,6.8,0.4,13.7,0.8,20.9
			c0.3-7.2,0.4-14.1,0.4-21.1c0.1,6.8,0.4,13.6,0.8,20.7c0.3-7.1,0.4-14,0.4-20.9c0.1,6.7,0.4,13.5,0.8,20.6
			c0.3-7.1,0.4-14,0.4-20.8c0.1,6.7,0.4,13.4,0.8,20.5c0.3-7.1,0.4-13.9,0.4-20.7c0.1,6.7,0.4,13.4,0.8,20.3
			c0.3-7,0.4-13.8,0.4-20.5c0.1,6.6,0.4,13.3,0.8,20.2c0.3-7,0.4-13.7,0.4-20.4c0.1,6.6,0.4,13.2,0.8,20c0.3-6.9,0.4-13.6,0.4-20.2
			c0.1,6.5,0.4,13.1,0.8,19.9c0.3-6.9,0.4-13.5,0.4-20.1c0.1,6.5,0.4,13,0.8,19.8c0.3-6.8,0.4-13.4,0.4-20
			c0.1,6.4,0.4,12.9,0.8,19.6c0.3-6.8,0.4-13.3,0.4-19.8c0.1,6.4,0.4,12.8,0.8,19.5c0.3-6.7,0.4-13.2,0.4-19.7
			c0.1,6.3,0.4,12.7,0.8,19.4c0.3-6.7,0.4-13.1,0.4-19.5c0.1,6.3,0.4,12.6,0.8,19.2c0.3-6.6,0.4-13,0.4-19.4
			c0.1,6.2,0.4,12.5,0.8,19.1c0.7-15.3,0.5-29.5-0.4-45c-0.3,6.7-0.5,13.1-0.5,19.5c-0.1-6.4-0.4-12.8-0.8-19.5
			c-0.3,6.7-0.5,13.2-0.5,19.6c-0.1-6.4-0.4-12.9-0.8-19.6c-0.3,6.8-0.5,13.3-0.5,19.7c-0.1-6.5-0.4-13-0.8-19.7
			c-0.3,6.8-0.5,13.4-0.5,19.9c-0.1-6.5-0.4-13.1-0.8-19.9c-0.3,6.9-0.5,13.5-0.5,20c-0.1-6.6-0.4-13.2-0.8-20
			c-0.3,6.9-0.5,13.6-0.5,20.2c-0.1-6.6-0.4-13.3-0.8-20.2c-0.3,7-0.5,13.7-0.5,20.3c-0.1-6.6-0.4-13.3-0.8-20.3
			c-0.3,7-0.5,13.8-0.5,20.5c-0.1-6.7-0.4-13.4-0.8-20.5c-0.3,7.1-0.5,13.9-0.5,20.6c-0.1-6.7-0.4-13.5-0.8-20.6
			c-0.3,7.1-0.5,13.9-0.5,20.7c-0.1-6.8-0.4-13.6-0.8-20.7c-0.3,7.2-0.5,14-0.5,20.9c-0.1-6.8-0.4-13.7-0.8-20.9
			c-0.3,7.2-0.5,14.1-0.5,21c-0.1-6.9-0.4-13.8-0.8-21c-0.3,7.3-0.5,14.2-0.5,21.2c-0.1-6.9-0.4-13.9-0.8-21.2
			c-0.3,7.3-0.5,14.3-0.5,21.3c-0.1-7-0.4-14-0.8-21.3c-0.3,7.4-0.5,14.4-0.5,21.4c-0.1-7-0.4-14.1-0.8-21.4
			c-0.3,7.4-0.5,14.5-0.5,21.6c-0.1-7.1-0.4-14.2-0.8-21.6c-0.3,7.5-0.5,14.6-0.5,21.7c-0.1-7.1-0.4-14.3-0.8-21.7
			c-0.8,17.4-0.6,33.2,0.4,50.6C118.3,144.5,118.4,137.4,118.4,130.2z"/>
	</g>
	<g id="XMLID_4715_">
		<path id="XMLID_4716_" class="st3" d="M139.2,59.5c-0.5,6.8-0.5,12.9,0,19.7C139.6,72.5,139.6,66.3,139.2,59.5z"/>
	</g>
	<g id="XMLID_4713_">
		<path id="XMLID_4714_" class="st3" d="M138.4,59.3c-0.5,6.8-0.5,13,0,19.7C138.8,72.3,138.8,66.1,138.4,59.3z"/>
	</g>
	<g id="XMLID_4706_">
		<path id="XMLID_4712_" class="st3" d="M137.6,59.1c-0.5,6.8-0.5,13,0,19.8C138,72.1,138,65.9,137.6,59.1z"/>
	</g>
	<g id="XMLID_4704_">
		<path id="XMLID_4705_" class="st3" d="M136.7,58.8c-0.5,6.8-0.5,13,0,19.9C137.1,71.9,137.1,65.7,136.7,58.8z"/>
	</g>
	<g id="XMLID_4702_">
		<path id="XMLID_4703_" class="st3" d="M135.9,58.6c-0.5,6.8-0.5,13.1,0,19.9C136.3,71.7,136.3,65.5,135.9,58.6z"/>
	</g>
	<g id="XMLID_4679_">
		<path id="XMLID_4701_" class="st3" d="M135.1,58.4c-0.5,6.9-0.5,13.1,0,20C135.5,71.6,135.5,65.3,135.1,58.4z"/>
	</g>
	<g id="XMLID_4647_">
		<path id="XMLID_4648_" class="st3" d="M134.3,58.2c-0.5,6.9-0.5,13.1,0,20C134.7,71.4,134.7,65.1,134.3,58.2z"/>
	</g>
	<g id="XMLID_4645_">
		<path id="XMLID_4646_" class="st3" d="M133.5,58c-0.5,6.9-0.5,13.2,0,20.1C133.9,71.2,133.9,64.9,133.5,58z"/>
	</g>
	<g id="XMLID_4643_">
		<path id="XMLID_4644_" class="st3" d="M132.6,57.7c-0.5,6.9-0.5,13.2,0,20.2C133.1,71,133,64.7,132.6,57.7z"/>
	</g>
	<g id="XMLID_4641_">
		<path id="XMLID_4642_" class="st3" d="M131.8,57.5c-0.5,7-0.5,13.3,0,20.2C132.2,70.8,132.2,64.5,131.8,57.5z"/>
	</g>
	<g id="XMLID_4639_">
		<path id="XMLID_4640_" class="st3" d="M131,57.3c-0.5,7-0.5,13.3,0,20.3C131.4,70.7,131.4,64.3,131,57.3z"/>
	</g>
	<g id="XMLID_4637_">
		<path id="XMLID_4638_" class="st3" d="M130.2,57.1c-0.5,7-0.5,13.3,0,20.3C130.6,70.5,130.6,64.1,130.2,57.1z"/>
	</g>
	<g id="XMLID_4635_">
		<path id="XMLID_4636_" class="st3" d="M129.4,56.9c-0.5,7-0.5,13.4,0,20.4C129.8,70.3,129.8,63.9,129.4,56.9z"/>
	</g>
	<g id="XMLID_4633_">
		<path id="XMLID_4634_" class="st3" d="M128.5,56.6c-0.5,7-0.5,13.4,0,20.5C129,70.1,129,63.7,128.5,56.6z"/>
	</g>
	<g id="XMLID_4631_">
		<path id="XMLID_4632_" class="st3" d="M127.7,56.4c-0.4,7.1-0.6,13.5,0,20.5C128,69.9,128.2,63.5,127.7,56.4z"/>
	</g>
	<g id="XMLID_4629_">
		<path id="XMLID_4630_" class="st3" d="M126.9,56.2c-0.3,7.1-0.6,13.5,0,20.6C127.2,69.8,127.4,63.3,126.9,56.2z"/>
	</g>
	<g id="XMLID_4624_">
		<path id="XMLID_4628_" class="st3" d="M126.1,56c-0.3,7.1-0.6,13.5,0,20.6C126.4,69.6,126.6,63.1,126.1,56z"/>
	</g>
	<g id="XMLID_4621_">
		<path id="XMLID_4622_" class="st3" d="M125.3,55.8c-0.3,7.1-0.6,13.6,0,20.7C125.6,69.4,125.8,62.9,125.3,55.8z"/>
	</g>
	<g id="XMLID_4619_">
		<path id="XMLID_4620_" class="st3" d="M124.5,55.5c-0.3,7.1-0.6,13.6,0,20.7C124.7,69.2,125,62.7,124.5,55.5z"/>
	</g>
	<g id="XMLID_4617_">
		<path id="XMLID_4618_" class="st3" d="M123.6,55.3c-0.3,7.2-0.6,13.6,0,20.8C123.9,69,124.2,62.5,123.6,55.3z"/>
	</g>
	<g id="XMLID_4615_">
		<path id="XMLID_4616_" class="st3" d="M122.8,55.1c-0.3,7.2-0.6,13.7,0,20.9C123.1,68.9,123.4,62.3,122.8,55.1z"/>
	</g>
	<g id="XMLID_4577_">
		<path id="XMLID_4613_" class="st3" d="M122,54.9c-0.3,7.2-0.6,13.7,0,20.9C122.3,68.7,122.6,62.1,122,54.9z"/>
	</g>
	<g id="XMLID_4575_">
		<path id="XMLID_4576_" class="st3" d="M121.2,54.7c-0.3,7.2-0.6,13.8,0,21C121.4,68.5,121.7,61.9,121.2,54.7z"/>
	</g>
	<g id="XMLID_4573_">
		<path id="XMLID_4574_" class="st3" d="M120.4,54.4c-0.3,7.2-0.6,13.8,0,21C120.6,68.3,120.9,61.7,120.4,54.4z"/>
	</g>
	<g id="XMLID_4571_">
		<path id="XMLID_4572_" class="st3" d="M119.5,54.2c-0.3,7.3-0.6,13.8,0,21.1C119.8,68.1,120.1,61.5,119.5,54.2z"/>
	</g>
	<g id="XMLID_4569_">
		<path id="XMLID_4570_" class="st3" d="M118.7,54c-0.3,7.3-0.7,13.9,0,21.2C118.9,68,119.3,61.3,118.7,54z"/>
	</g>
	<g id="XMLID_4567_">
		<path id="XMLID_4568_" class="st3" d="M117.9,53.8c-0.2,7.3-0.7,13.9,0,21.2C118.1,67.8,118.5,61.1,117.9,53.8z"/>
	</g>
	<g id="XMLID_4565_">
		<path id="XMLID_4566_" class="st3" d="M94.9,39.7c0.5-1.6,0.6-3.2,0.3-4.9C94.6,36.5,94.5,38,94.9,39.7z"/>
	</g>
	<g id="XMLID_4563_">
		<path id="XMLID_4564_" class="st3" d="M170.3,99.3c1.5-0.1,2.8-0.1,4.1,0c1.3,0.1,2.7,0.2,4.1,0.5C176,98.4,173,98.2,170.3,99.3z"
			/>
	</g>
	<g id="XMLID_4561_">
		<path id="XMLID_4562_" class="st3" d="M172.1,108.1c0.3-2.2,0.2-4.1-0.3-6.3C171.4,104,171.5,105.9,172.1,108.1z"/>
	</g>
	<g id="XMLID_4559_">
		<path id="XMLID_4560_" class="st3" d="M176.3,108.2c0.5-1.2,0.5-2.4,0.1-3.6C175.9,105.8,175.9,106.9,176.3,108.2z"/>
	</g>
	<g id="XMLID_4556_">
		<path id="XMLID_4557_" class="st3" d="M167.3,118.6c1.3,0.5,2.4,0.5,3.7,0.1C169.7,118.2,168.6,118.2,167.3,118.6z"/>
	</g>
	<g id="XMLID_4554_">
		<path id="XMLID_4555_" class="st3" d="M179.8,120.5c-1.4-0.4-2.6-0.5-4-0.1C177.2,120.9,178.4,121,179.8,120.5z"/>
	</g>
	<g id="XMLID_4552_">
		<path id="XMLID_4553_" class="st3" d="M177,122.4c0.7,0.5,1.3,0.6,2,0.2C178.3,122.1,177.7,122,177,122.4z"/>
	</g>
</g>
</svg>
