<?xml version="1.0" encoding="utf-8"?>
<!-- Generator: Adobe Illustrator 21.0.2, SVG Export Plug-In . SVG Version: 6.00 Build 0)  -->
<svg version="1.1" id="Layer_1" xmlns="http://www.w3.org/2000/svg" xmlns:xlink="http://www.w3.org/1999/xlink" x="0px" y="0px"
	 viewBox="0 0 267.7 200" style="enable-background:new 0 0 267.7 200;" xml:space="preserve">
<style type="text/css">
	.st0{fill:#98813C;}
	.st1{fill:#016F5C;}
	.st2{fill:#CFC9C3;}
	.st3{fill:#99803D;}
	.st4{fill:#FFFFFF;}
	.st5{fill:#805622;}
	.st6{fill:#CFCAC4;}
	.st7{fill-rule:evenodd;clip-rule:evenodd;fill:#FFFFFF;}
</style>
<g id="XMLID_5309_">
	<g id="XMLID_5310_">
		<g id="XMLID_5311_">
			<g id="XMLID_5406_">
				<g id="XMLID_6422_">
					<g id="XMLID_6485_">
						<path id="XMLID_6486_" class="st3" d="M167.2,164.2c-1-0.1-23.5-1.3-26.7-5.6c-0.5-0.7-0.5-1.4-0.4-1.9c0.4-2,0.4-2.7,0.2-4.6
							c-2.3-1.4-3.9-3.8-4.3-6.5c-0.4-2.6,0.6-5.3,2.6-7.5c2.8-14.2,4.2-27.2,4.4-39.8c-0.4,0.1-0.8,0.2-1.2,0.2
							c-0.3,0-0.5-0.1-0.8-0.2c-1.1-0.4-1.8-1.3-2-2.5c-0.2-1.5,0.5-2.8,1-3.8c0.9-1.6,1.4-3.4,1.5-5.2c-2.1-1-3.8-2.8-4.7-5
							c-0.9-2.2-1.1-4.9-0.4-7.4c0.6-2.3,1.9-4.4,3.6-5.7c1.6-1.3,3.7-2,5.6-1.9c0.4,0,0.7,0.1,1.1,0.1c0.4,0.1,1.4,0.5,2.3,1
							c0.2-0.6,0.4-1.1,0.7-1.7c0.1-0.2,0.3-0.5,0.4-0.7c0.6-1,1.5-1.9,2.3-2.6c0.1-2.6,1.4-4.9,3.6-6c1.1-0.5,2.3-0.8,3.6-0.7
							c1.5,0.1,3,0.6,4.2,1.6c0.2,0.1,0.3,0.3,0.4,0.4c0.7-0.2,1.3-0.3,2-0.3c0.9,0,1.7,0.4,2.4,0.9c0.9,0.7,1.5,1.9,1.6,3.2
							c0.1,0,0.1-0.1,0.2-0.1c0.9-0.5,1.9-0.7,2.9-0.6c0.5,0,0.9,0.1,1.3,0.2c0.6-0.1,1.1-0.2,1.7-0.1c1.4,0.1,2.7,0.6,3.7,1.5
							c0.8,0.7,1.4,1.7,1.8,2.8c0.3,0,0.7,0,1,0c0,0,0.1,0,0.1,0c0.8-1.2,2-2.3,3.6-2.9c1.3-0.5,2.8-0.8,4.3-0.7
							c1.3,0.1,2.6,0.4,3.8,1c2.5,1.2,4.5,3.5,5.3,6.2c0.1,0.2,0.1,0.4,0.2,0.6c1.3,0.6,2.2,1.9,2.5,3.5c1.2,1.3,1.9,3.1,2,4.8
							c0.1,1.9-0.5,3.8-1.6,5.2c-0.7,0.9-1.5,1.6-2.5,2.1c-0.4,1.2-0.7,2.7-1,4.7l11.6,1.2c3.1,0.3,6.9,0.7,9.8,2.9
							c2.8,2,4.6,5.4,5,9.3c0.3,3-0.1,6.2-1.4,10.2c-4,12.5-13.3,23.5-25,29.5c0.8,1.9,1.1,3.8,0.6,5.6c-0.7,2.6-2.6,4.8-5,6
							c-0.4,1.8-0.5,2.5-0.3,4.6c0,0.3,0,1.1-0.6,1.8C190.7,165.4,168.2,164.3,167.2,164.2z M197.6,125.6c1.2,0.7,2.7,1.1,4.4,1.2
							c0.5,0,1.1,0,1.6,0c2.4-0.1,5-1.7,7.6-4.7c1.7-1.9,5.6-9.5,5.2-14.8c-0.1-1.7-0.7-3-1.6-3.8c-1.3-1.1-3.6-1.8-6.5-1.9
							c-3.6-0.2-7.5,0.4-10.1,1.6C197.6,110.4,197.4,117.8,197.6,125.6z"/>
					</g>
					<g id="XMLID_6481_">
						<path id="XMLID_6482_" class="st4" d="M225.6,103.9c-0.4-3.8-2.1-7-4.8-8.9c-2.8-2-6.6-2.4-9.6-2.8L199,91
							c0.3-2.4,0.7-4.2,1.1-5.5c1-0.5,1.9-1.2,2.6-2c1.1-1.4,1.6-3.1,1.5-4.9c-0.1-1.7-0.8-3.4-2-4.6c-0.2-1.6-1.2-2.9-2.5-3.4
							c-0.1-0.3-0.1-0.6-0.2-0.8c-0.8-2.5-2.6-4.7-5-5.9c-2.4-1.1-5.3-1.2-7.7-0.2c-1.6,0.7-2.8,1.7-3.5,3c-0.6-0.1-1.2-0.1-1.8,0
							c-0.3-1.2-0.9-2.2-1.7-3c-1.4-1.2-3.3-1.7-5.1-1.2c-1.3-0.4-2.7-0.3-3.9,0.3c-0.4,0.2-0.7,0.4-1,0.7c0-0.3,0-0.6,0-0.8
							c-0.1-1.1-0.5-2.2-1.4-2.9c-1.2-0.9-2.7-1-4.2-0.4c-0.2-0.2-0.4-0.4-0.6-0.6c-2-1.6-4.9-1.9-7.2-0.8c-2.1,1-3.3,3.2-3.3,5.8
							c-0.9,0.6-1.8,1.5-2.4,2.6c-0.1,0.2-0.3,0.4-0.4,0.7c-0.4,0.7-0.7,1.6-0.8,2.4c-1-0.8-2.3-1.4-2.7-1.4
							c-2.1-0.4-4.4,0.2-6.3,1.6c-1.6,1.3-2.8,3.2-3.4,5.4c-0.7,2.4-0.5,4.9,0.3,7c0.9,2.2,2.6,3.9,4.7,4.8c-0.1,2-0.6,4-1.6,5.8
							c-0.5,0.9-1.1,2.1-0.9,3.4c0.1,1,0.8,1.7,1.6,2.1c0.8,0.3,1.7,0.1,2.4-0.4c-0.2,13.1-1.6,26.4-4.5,41c-2,2-3,4.7-2.6,7.1
							c0.4,2.6,2,4.9,4.3,6.2c0.3,2.2,0.2,2.9-0.2,5c-0.1,0.3-0.1,0.8,0.3,1.4c2.5,3.3,18.3,4.9,26.3,5.4c8,0.4,23.9,0.5,26.7-2.5
							c0.5-0.5,0.5-1,0.5-1.3c-0.2-2.2-0.1-2.9,0.4-5.1c2.4-1,4.3-3.2,4.9-5.7c0.5-1.8,0.2-3.9-0.8-5.7
							c11.8-5.9,21.2-16.8,25.2-29.4C225.5,110,225.9,106.8,225.6,103.9z M211.8,122.4c-2.7,3.1-5.4,4.7-8,4.9
							c-1.8,0.1-4.4-0.1-6.6-1.4c-0.2-8,0-15.7,0.6-23.2c4.8-2.3,14.2-2.6,17.6,0.3c1.1,0.9,1.7,2.3,1.8,4.2
							C217.5,112.7,213.5,120.4,211.8,122.4z"/>
					</g>
					<g id="XMLID_6423_">
						<g id="XMLID_6479_">
							<path id="XMLID_6480_" class="st3" d="M176,65.2c0.7,0.3,1.3,0.8,1.7,1.3c0.4,0.6,0.7,1.3,0.7,2.1c0.1,0.8-0.1,1.7-0.6,2.5
								c1.8-0.9,2.4-3.6,1.1-5.5c-1.3-1.8-4.1-2.1-5.6-0.7C174.4,64.8,175.3,65,176,65.2z"/>
						</g>
						<g id="XMLID_6477_">
							<path id="XMLID_6478_" class="st3" d="M161.3,72.8c-0.2-0.5-0.2-1.1-0.2-1.7c0-0.6,0.2-1.2,0.6-1.7c-0.6,0.3-1,1-1.2,1.6
								c-0.2,0.7-0.3,1.3-0.3,2c0.1,1.4,0.7,2.7,1.7,3.7c1,1,2.4,1.6,3.7,1.7c0.1,0,0.1,0,0.2,0c0.7,1.5,1.9,2.7,3.3,3.5
								c1.5,0.8,3.2,1.1,4.8,0.9c1.6-0.2,3.3-0.9,4.5-2.1c1.2-1.2,1.9-2.9,1.6-4.5c-0.3,1.6-1.2,2.8-2.3,3.6
								c-1.2,0.8-2.5,1.3-3.9,1.4c-1.4,0.2-2.8,0-4.2-0.4c-1.4-0.5-2.7-1.3-3.8-2.4c1.3,0,2.6-0.4,3.6-1.2c-1.2,0.4-2.5,0.4-3.6,0.1
								c-1.1-0.3-2.1-0.8-2.8-1.6C162.2,74.9,161.7,73.9,161.3,72.8z"/>
						</g>
						<g id="XMLID_6475_">
							<path id="XMLID_6476_" class="st3" d="M178,98c0,0.5,0,0.9-0.1,1.3c-0.1,0.4-0.2,0.7-0.3,0.8c-0.1,0.2-0.4,0.3-0.7,0.3
								c-0.3,0-0.6-0.1-0.9-0.3c-0.6-0.4-1-1.3-1.1-2.3c-0.2,0.5-0.3,1-0.2,1.5c0,0.5,0.2,1.1,0.6,1.5c0.4,0.5,0.9,0.8,1.6,0.9
								c0.6,0.1,1.3-0.1,1.9-0.6c0.5-0.5,0.7-1.2,0.7-1.7c0-0.6-0.1-1-0.2-1.5c-0.2-1-0.6-1.9-1.1-2.8C178.1,96.1,178.1,97,178,98z"
								/>
						</g>
						<g id="XMLID_6473_">
							<path id="XMLID_6474_" class="st3" d="M142.7,80.1c0.5,0.9,1.3,1.5,2.2,1.9c-0.5-0.1-1.1-0.3-1.6-0.6c-1-0.5-2-1.4-2.5-2.6
								c0.1,1.3,0.8,2.6,1.9,3.5c1.1,0.9,2.5,1.3,3.9,1.3c1.4,0,2.7-0.4,3.9-1.2c1.1-0.8,2-1.8,2.7-3c-1.2,1-2.5,1.8-3.9,2.2
								c0.9-0.5,1.6-1.2,2-2.1c-1.4,0.9-2.8,1.2-4.2,1.3C145.7,80.9,144.2,80.8,142.7,80.1z"/>
						</g>
						<g id="XMLID_6471_">
							<path id="XMLID_6472_" class="st3" d="M157.4,72.7c-2-0.3-3.4-1.3-4.1-2.7c-0.3-0.7-0.5-1.4-0.3-2.2c0.2-0.8,0.6-1.6,1.5-2.1
								c-1,0-2,0.7-2.5,1.7c-0.5,1-0.5,2.3,0,3.3c0.5,1,1.4,1.8,2.4,2.1C155.3,73.1,156.4,73.1,157.4,72.7z"/>
						</g>
						<g id="XMLID_6469_">
							<path id="XMLID_6470_" class="st3" d="M149.4,84.5c1.3-0.6,2.4-1.4,3.3-2.4c-2.2,1.6-4.8,2.4-7.3,2.1
								c-2.4-0.3-4.5-1.9-5.3-4.1c-0.9-2.2-0.8-4.9,0.4-7c1.2-2.1,3.6-3.7,6.4-3.6c-1.3-0.3-2.8-0.2-4.1,0.4
								c-1.3,0.5-2.4,1.4-3.3,2.6c-1.7,2.3-1.9,5.5-0.9,8.1c0.5,1.3,1.4,2.5,2.6,3.4c1.2,0.8,2.6,1.3,4,1.3
								C146.8,85.4,148.2,85.1,149.4,84.5z"/>
						</g>
						<g id="XMLID_6467_">
							<path id="XMLID_6468_" class="st3" d="M162.2,62.9c0.3,0.8,0.3,1.6,0.2,2.5c-0.1,0.9-0.4,1.8-1,2.7c1.9-1,2.9-3.5,2.2-5.7
								c-0.7-2.2-3-3.6-5.1-3.4c1,0.4,1.8,1,2.4,1.6C161.5,61.4,161.9,62.1,162.2,62.9z"/>
						</g>
						<g id="XMLID_6465_">
							<path id="XMLID_6466_" class="st3" d="M193.7,80.9c0.2,1.1,0.9,2.1,1.8,2.7c1,0.6,2.2,0.9,3.4,0.6c1.2-0.3,2.2-1.1,2.8-2.1
								c0.6-1,0.8-2.2,0.4-3.3c-0.2,1.1-0.7,1.9-1.3,2.6c-0.6,0.6-1.4,1.1-2.2,1.3c-0.8,0.2-1.7,0.1-2.5-0.2
								C195.2,82.3,194.3,81.8,193.7,80.9z"/>
						</g>
						<g id="XMLID_6463_">
							<path id="XMLID_6464_" class="st3" d="M184.9,78.4c0,0.8,0.3,1.7,1,2.2c0.6,0.6,1.5,0.9,2.4,1c0.9,0,1.8-0.3,2.4-0.9
								c0.6-0.6,1.1-1.4,1.1-2.2c-0.5,0.6-1.1,1-1.7,1.2c-0.6,0.2-1.2,0.3-1.8,0.3c-0.6,0-1.2-0.1-1.8-0.4
								C185.9,79.5,185.3,79.1,184.9,78.4z"/>
						</g>
						<g id="XMLID_6461_">
							<path id="XMLID_6462_" class="st3" d="M194.6,74.5c1.3-0.8,2.1-2.5,1.9-4.1c-0.2-1.6-1.4-3-2.8-3.5c0.9,1.3,1.2,2.5,1.3,3.7
								C195.1,71.8,195.1,73,194.6,74.5z"/>
						</g>
						<g id="XMLID_6459_">
							<path id="XMLID_6460_" class="st3" d="M195.8,68c0.5,0.9,0.8,1.9,1,2.8c0.1,1,0,2-0.3,3c-0.3,1-0.8,2-1.6,2.9
								c2.2-1,3.7-3.6,3.3-6.1c-0.3-2.5-2.3-4.7-4.7-5.2C194.5,66.3,195.3,67.1,195.8,68z"/>
						</g>
						<g id="XMLID_6457_">
							<path id="XMLID_6458_" class="st3" d="M177.4,84.5c0.7,0.5,1.7,0.6,2.6,0.3c0.9-0.3,1.6-1,2-1.8c0.4-0.8,0.6-1.7,0.5-2.6
								c-0.1-0.9-0.3-1.7-0.7-2.4c-0.2,1.7-0.5,3.1-1.1,4.3c-0.3,0.6-0.7,1.1-1.2,1.5C178.9,84.2,178.2,84.6,177.4,84.5z"/>
						</g>
						<g id="XMLID_6455_">
							<path id="XMLID_6456_" class="st3" d="M170,102c0,1.3,0,2.6-0.3,3.7c-0.3,1.1-1,1.8-2.1,1.7c-0.5-0.1-1-0.3-1.3-0.8
								c-0.3-0.5-0.5-1.2-0.2-1.9c-0.4,0.6-0.6,1.4-0.4,2.1c0.2,0.8,0.9,1.4,1.7,1.7c0.8,0.3,1.7,0.2,2.5-0.4c0.7-0.5,1.1-1.3,1.3-2
								c0.2-0.7,0.2-1.5,0.2-2.2c0-0.7-0.1-1.4-0.2-2.1c-0.3-1.4-0.8-2.7-1.5-3.9C169.9,99.3,170,100.7,170,102z"/>
						</g>
						<g id="XMLID_6453_">
							<path id="XMLID_6454_" class="st3" d="M185,70.6c0.4,0.7,0.6,1.4,0.6,2.1c0,0.7-0.2,1.4-0.6,2.1c-0.4,0.7-1,1.3-1.9,1.8
								c2,0.2,4-1.6,4-3.8c0.1-2.2-1.9-4.1-3.9-4C184,69.2,184.6,69.9,185,70.6z"/>
						</g>
						<g id="XMLID_6451_">
							<path id="XMLID_6452_" class="st3" d="M160.8,85c-1-0.7-1.9-1.6-2.6-2.7c-0.3-0.5-0.6-1.1-0.8-1.7c-0.1-0.6-0.1-1.3,0.2-2
								c-0.5,0.5-0.8,1.2-0.9,2c0,0.8,0.1,1.5,0.4,2.2c0.6,1.4,1.5,2.6,2.7,3.4c1.2,0.9,2.7,1.3,4.1,1.4c1.5,0,2.9-0.3,4.2-1.1
								C165.4,87.1,162.8,86.4,160.8,85z"/>
						</g>
						<g id="XMLID_6449_">
							<path id="XMLID_6450_" class="st3" d="M159.4,86.4c-1.4-1.1-2.6-2.7-3.1-4.9c-0.5,2.2,0.3,4.7,2.2,6.1
								c1.8,1.4,4.5,1.7,6.4,0.6C162.7,88.3,160.9,87.5,159.4,86.4z"/>
						</g>
						<g id="XMLID_6447_">
							<path id="XMLID_6448_" class="st3" d="M192.8,147.6c-16.3,4.8-34,4-49.8-2.4c-0.8-0.3-1.8,0.1-2.2,0.9
								c-0.3,0.8,0.1,1.8,0.9,2.2c8.1,3.3,16.7,5.1,25.3,5.6c8.9,0.5,18-0.5,26.6-3.1c0.9-0.3,1.4-1.2,1.1-2.1
								C194.6,147.8,193.7,147.3,192.8,147.6z"/>
						</g>
						<g id="XMLID_6445_">
							<path id="XMLID_6446_" class="st3" d="M146.7,142.2c0.6-3.7,1.2-7.4,1.7-11.1c0.6-4.6,1.1-9.1,1.5-13.7
								c0.4-4.6,0.7-9.2,0.9-13.8c0.2-3.5,0.3-7,0.4-10.5c-0.5,0.1-0.9,0.2-1.4,0.3c-0.7,0.2-1.3,0.8-1.3,1.6
								c0,14.2-1.2,27.9-3.7,44.4c-0.1,0.6,0.1,1.2,0.6,1.7C145.7,141.5,146.1,141.8,146.7,142.2z"/>
						</g>
						<g id="XMLID_6443_">
							<path id="XMLID_6444_" class="st3" d="M191.4,143.6c0.5-0.5,0.8-1.1,0.7-1.7c-0.7-16.7-0.4-30.4,1.1-44.6
								c0.1-0.8-0.4-1.5-1.1-1.7c-0.8-0.3-1.6-0.5-2.3-0.8c-1.2,16.6-1.6,33.3-0.3,49.8C190.3,144.4,191,144,191.4,143.6z"/>
						</g>
						<g id="XMLID_6441_">
							<path id="XMLID_6442_" class="st3" d="M150.8,153.8l-3.9-1.1l0,0c-1-0.3-2-0.5-2.8-1.1c0.2,1.7,0.1,3.4-0.4,5.1
								c0.9,0.7,1.9,1.1,3,1.3l0,0c1.1,0.4,2.3,0.7,3.5,0.9c0,0,0.5,0.1,1,0.1c0.5,0,1,0,1-0.1c0-0.1-0.4-0.3-0.8-0.5
								c-0.4-0.2-0.8-0.3-0.8-0.3c-0.7-0.3-1.5-0.6-2.2-1c0.7,0.1,1.3,0.2,2,0.3c0,0,0.5,0.1,1,0.1c0.5,0,1,0,1-0.1
								c0-0.1-0.4-0.3-0.8-0.4c-0.4-0.2-0.9-0.3-0.9-0.3c-0.8-0.3-1.5-0.6-2.2-0.9c0.7,0.1,1.4,0.2,2.1,0.2c0,0,0.5,0,1,0.1
								c0.5,0,1,0,1-0.1c0-0.1-0.4-0.3-0.9-0.4c-0.4-0.2-0.9-0.3-0.9-0.3c-0.8-0.2-1.5-0.5-2.3-0.8l2.2,0.1c0,0,1.9,0.1,2-0.1
								C152.6,154.3,150.8,153.8,150.8,153.8z"/>
						</g>
						<g id="XMLID_6439_">
							<path id="XMLID_6440_" class="st3" d="M191.4,154.2c-0.8,0.5-1.9,0.7-2.9,0.8l0,0l-4,0.6c0,0-1.8,0.3-1.8,0.5
								c0,0.2,1.9,0.3,1.9,0.3l2.2,0.1c-0.8,0.2-1.6,0.4-2.4,0.5c0,0-0.4,0.1-0.9,0.2c-0.4,0.1-0.9,0.2-0.9,0.3c0,0.1,0.5,0.2,1,0.2
								c0.5,0,1,0.1,1,0.1c0.7,0,1.4,0,2.1,0c-0.8,0.2-1.5,0.4-2.3,0.6c0,0-0.4,0.1-0.9,0.2c-0.4,0.1-0.9,0.3-0.9,0.3
								c0,0.1,0.5,0.2,1,0.2c0.5,0,1,0,1,0c0.7,0,1.4-0.1,2-0.1c-0.7,0.3-1.5,0.5-2.3,0.7c0,0-0.4,0.1-0.9,0.3
								c-0.4,0.1-0.9,0.3-0.9,0.4c0,0.1,0.5,0.2,1,0.2c0.5,0,1,0,1,0c1.2-0.1,2.4-0.2,3.6-0.5l0,0c1.1,0,2.2-0.3,3.1-0.9
								C190.9,157.6,191,155.9,191.4,154.2z"/>
						</g>
						<g id="XMLID_6437_">
							<path id="XMLID_6438_" class="st3" d="M167.9,155.7c-4.2-0.1-8.3-0.4-12.7-0.9c3.3,1.1,6.7,1.9,10.1,2.2
								c-1.7,0-3.3,0-5.1,0.1c2.2,0.7,4.4,1.1,6.7,1.3c-0.6,0.1-1.3,0.2-2,0.3c2.2,1.3,4.6,1.4,6.8,0.1c-0.5-0.1-1-0.2-1.5-0.3
								c2.3-0.1,4.6-0.4,7-1c-1.9-0.1-3.7-0.2-5.6-0.3c3-0.2,6-0.7,9-1.5C176.2,155.7,172.1,155.8,167.9,155.7z"/>
						</g>
						<g id="XMLID_6435_">
							<path id="XMLID_6436_" class="st3" d="M168.2,150.1c8.4,0.3,16.8-0.9,25.1-3.7c-8.4,1.9-16.7,2.6-25,2.3
								c-8.3-0.3-16.5-1.6-24.9-4.2C151.5,148,159.9,149.8,168.2,150.1z"/>
						</g>
						<g id="XMLID_6426_">
							<path id="XMLID_6427_" class="st3" d="M225.6,103.9c-0.4-3.8-2.1-7-4.8-8.9c-2.8-2-6.6-2.4-9.6-2.8L199,91
								c0.3-2.4,0.7-4.2,1.1-5.5c1-0.5,1.9-1.2,2.6-2c1.1-1.4,1.6-3.1,1.5-4.9c-0.1-1.7-0.8-3.4-2-4.6c-0.2-1.6-1.2-2.9-2.5-3.4
								c-0.1-0.3-0.1-0.6-0.2-0.8c-0.8-2.5-2.6-4.7-5-5.9c-2.4-1.1-5.3-1.2-7.7-0.2c-1.6,0.7-2.8,1.7-3.5,3c-0.6-0.1-1.2-0.1-1.8,0
								c-0.3-1.2-0.9-2.2-1.7-3c-1.4-1.2-3.3-1.7-5.1-1.2c-1.3-0.4-2.7-0.3-3.9,0.3c-0.4,0.2-0.7,0.4-1,0.7c0-0.3,0-0.6,0-0.8
								c-0.1-1.1-0.5-2.2-1.4-2.9c-1.2-0.9-2.7-1-4.2-0.4c-0.2-0.2-0.4-0.4-0.6-0.6c-2-1.6-4.9-1.9-7.2-0.8c-2.1,1-3.3,3.2-3.3,5.8
								c-0.9,0.6-1.8,1.5-2.4,2.6c-0.1,0.2-0.3,0.4-0.4,0.7c-0.4,0.7-0.7,1.6-0.8,2.4c-1-0.8-2.3-1.4-2.7-1.4
								c-2.1-0.4-4.4,0.2-6.3,1.6c-1.6,1.3-2.8,3.2-3.4,5.4c-0.7,2.4-0.5,4.9,0.3,7c0.9,2.2,2.6,3.9,4.7,4.8c-0.1,2-0.6,4-1.6,5.8
								c-0.5,0.9-1.1,2.1-0.9,3.4c0.1,1,0.8,1.7,1.6,2.1c0.8,0.3,1.7,0.1,2.4-0.4c-0.2,13.1-1.6,26.4-4.5,41c-2,2-3,4.7-2.6,7.1
								c0.4,2.6,2,4.9,4.3,6.2c0.3,2.2,0.2,2.9-0.2,5c-0.1,0.3-0.1,0.8,0.3,1.4c2.5,3.3,18.3,4.9,26.3,5.4c8,0.4,23.9,0.5,26.7-2.5
								c0.5-0.5,0.5-1,0.5-1.3c-0.2-2.2-0.1-2.9,0.4-5.1c2.4-1,4.3-3.2,4.9-5.7c0.5-1.8,0.2-3.9-0.8-5.7
								c11.8-5.9,21.2-16.8,25.2-29.4C225.5,110,225.9,106.8,225.6,103.9z M143.1,96.3c-0.5,0.5-1.1,0.6-1.6,0.5
								c-0.5-0.2-0.8-0.6-0.9-1.1c-0.1-0.9,0.2-1.7,0.8-2.7c1.1-2.1,1.7-4.4,1.7-6.8l0-0.4l-0.4-0.1c-1.9-0.7-3.6-2.4-4.4-4.3
								c-0.8-1.9-0.9-4.1-0.3-6.3c0.5-2,1.6-3.7,3-4.8c1.5-1.2,3.5-1.7,5.3-1.4c0.6,0.1,2.4,1.2,3,2.1c0.4,0.6,0.8,1.4,0.8,3
								c0.4-0.5,0.6-1.2,0.5-1.9c1,1.2,2.5,2,4,1.9c-2.9-1.4-4.2-4.3-3.4-7c0.6-1.1,1.6-2.1,2.5-2.7l0.3-0.2l0-0.3
								c-0.1-2.2,0.9-4.2,2.6-5c1.9-0.9,4.4-0.8,5.9,0.6c2.7,2.5,2,5.7,2,5.7c-0.1,0.9-0.3,1.7-0.6,2.7c0.8-0.6,1.3-1.5,1.5-2.5l0,0
								c0.5-1.8,0.1-3.7-0.8-5.3c1.1-0.4,1.9-0.2,2.4,0.1c0.7,0.4,1.2,1.2,1.3,2c0.1,0.9,0,1.7-0.2,2.6c0,0,0,0.1,0,0.2
								c-0.1,0.3-0.2,1.3-0.8,2.3c0,0-0.2,0.3-0.3,0.6c-0.2,0.3-0.3,0.6-0.3,0.6c0.1,0,1.6-0.9,2.2-2.2c0.6-1.4,1.2-2.2,2.3-2.7
								c1-0.5,2.1-0.5,3.1-0.1l0.2,0.1l0.2-0.1c1.5-0.4,3.1-0.1,4.2,0.9c1.9,1.8,1.6,4.2,1.6,4.2c0,0,0,0,0,0.1c0,0.9,0,1.7-0.2,2.8
								c0.9-0.7,1.2-2.7,1.2-2.7c0.1-0.3,0.1-0.7,0.1-1c1.7-0.3,3.5,0.3,4.7,1.7c2,2.3,0.9,5.9,0.9,5.9c0,0,0,0,0,0.1
								c-0.3,0.8-0.6,1.6-1.1,2.5c1-0.4,1.7-1.2,2.1-2.2c0.1-0.2,0.1-0.3,0.1-0.5c0.6-2.1,0.5-4.8-1.1-6.6c-0.8-0.9-1.7-1.5-2.8-1.8
								c0.6-0.9,1.5-1.6,2.7-2.1c2.1-0.9,4.7-0.8,6.8,0.2c2.1,1,3.7,2.9,4.4,5.1c0.7,2.2,0,6.9-1.9,8.9c1.2-0.2,2.1-1.6,2.1-1.6
								c1-1.6,1.4-3.5,1.3-5.4c0.8,0.6,1.1,1.6,1.2,2.5c0.1,1.3-0.8,2.7-2.1,3.1c0,0,2.3,0.2,3.1-1.9c0.5,0.9,0.9,1.9,0.9,2.9
								c0.1,1.4-0.4,2.9-1.3,4.1c-0.9,1.1-2.2,1.9-3.5,2.1c-1.4,0.2-2.8-0.1-3.9-1c-0.7-0.5-1.1-1.3-1.4-2.1
								c-0.1-0.2-0.1-0.6-0.1-0.6c0-0.3-0.1-0.6,0-0.9l0.2-2.5l-1.3,2.1c-0.1,0.2-0.3,0.4-0.4,0.6c0,0.1-0.2,0.2-0.2,0.2
								c-1,1-2.4,1.4-3.8,1.2c-1.5-0.3-2.7-1.7-3.3-3.6c0,0-0.2-0.9-1.2-1.2c-0.2-0.1-0.4-0.1-0.6-0.1c0.3,0.2,0.3,0.5,0.4,0.8
								c0.1,0.3,0.2,0.8,0.2,0.8c0.6,2,0.3,4-0.8,5.6c-0.3,0.5-1.2,1.6-2.4,1.6l-0.5,0l-0.1,0.5c-0.6,4.2-0.1,7.7,0.4,10.7
								c0.1,1,0.3,1.9,0.2,2.9c-0.1,1-0.6,1.7-1.2,2.2c-0.9,0.6-2.2,0.4-3.1-0.5c-1.1-1-1.3-2.5-1.4-3.3c-0.1-1.3,0.2-2.7,0.5-4
								l0.5-2.1c0.2-1,0.4-2.4-0.7-3.1c-0.6-0.4-1.3-0.5-1.9-0.3c-0.6,0.2-1,0.5-1.2,1.1c-0.6,1.4-0.4,10.1,0.7,13.9
								c0.5,1.6-0.1,3.7-1.4,4.9c-0.7,0.7-1.8,1-2.8,0.8c-1-0.2-1.9-0.9-2.2-1.9c-0.4-1-0.5-2.1-0.3-3.1c1.1-4.6,1.3-9.2,0.7-14.3
								l-0.1-0.7l-0.7,0.3c-2.1,0.8-4.7,0.5-6.6-0.9c-1.9-1.3-3-3.7-3-6l0-1.7l-1.1,1.3c-0.4,0.5-0.9,1-1.5,1.4l0,0l0,0
								c-1.7,1.3-4.1,2.1-6.3,2.3l0,0l-1.1,0.1c-1.2,0.1-1.9,0.8-1.9,1.9c0.1,2.6,0.1,5.1,0.1,7.7L143.1,96.3z M173.9,91.5
								c-0.6-0.1-1.2-0.1-1.8-0.2c0-0.5,0.1-0.8,0.2-1c0.1-0.2,0.3-0.4,0.5-0.4c0.3-0.1,0.7,0,0.9,0.2
								C173.9,90.3,174,90.8,173.9,91.5z M198.7,148.8c-0.6,2.3-2.3,4.2-4.5,5l-0.3,0.1l-0.1,0.3c-0.6,2.5-0.7,3.3-0.5,5.7
								c0,0.1,0,0.2-0.2,0.4c-2.1,2.2-14.8,2.7-25.8,2.1c-11-0.6-23.6-2.5-25.5-4.9c-0.2-0.2-0.2-0.4-0.1-0.5
								c0.4-2.4,0.5-3.2,0.1-5.7l0-0.3l-0.3-0.1c-2.1-1.1-3.6-3.2-4-5.5c-0.3-2.1,0.6-4.5,2.4-6.3l0.1-0.1l0-0.2
								c3.6-18.3,5-34.4,4.5-50.9c0-0.5,0.4-0.6,0.8-0.7l0.1,0v0c0.6,0,1.3,0,1.9-0.1l0.8,3.5c0,0,0.5,2,0.7,2c0.3,0,0.4-2,0.4-2
								l0.2-4c1.2-0.4,2.4-0.9,3.5-1.6l0.7,4c0,0,0.5,2.6,0.7,2.5c0.3,0,0.4-2.5,0.4-2.5l0.1-2.8c0.6,1.3,1.5,2.5,2.7,3.4
								c2,1.4,4.6,1.9,7,1.3c0,0.1,0,0.2,0,0.3c-3.1,0.2-6.2,0.5-9.3,1c0.1,3.8,0.2,7.6,0.2,11.5c0,4.7-0.2,9.3-0.5,14
								c-0.3,4.7-0.6,9.3-1.1,14c-0.4,4.2-0.9,8.4-1.6,12.6c0.7,0.2,1.5,0.4,2.3,0.5c2.6-15.4,3.6-31.2,3.6-46.9
								c1,15.7,0.9,31.6-0.8,47.4c3.5,0.6,7.2,1,10.7,1.2c6.2,0.3,13.3,0.1,18.1-0.9c-0.9-17.2,0.1-34.3,1.9-51.3
								c-2.6-0.8-5.3-1.4-8-1.9c-0.1-1.7-0.1-3.5,0.1-5.5c1.1-0.2,2.1-1,2.8-2.1c0.1-0.1,0.1-0.3,0.2-0.4c-0.1,1.5-0.2,2.9-0.2,4.4
								c0,0,0,0.9,0.1,1.8c0.1,0.9,0.2,1.8,0.3,1.8c0.1,0,0.3-0.9,0.4-1.7c0.1-0.8,0.3-1.7,0.3-1.7c0.1-0.9,0.3-1.8,0.5-2.7
								l-0.1,0.7c0,0-0.2,2.4,0.1,2.5c0.3,0,1-2.1,1-2.1l1.3-4.3c0,0,0,0,0.1,0c1.2,0.2,2.4,0,3.5-0.5c-0.4,1.5-0.7,3.1-0.9,4.7
								c0,0-0.1,0.8-0.1,1.7c0,0.8,0.1,1.7,0.2,1.7c0.1,0,0.3-0.8,0.5-1.5c0.2-0.7,0.4-1.5,0.4-1.5c0.4-1.5,0.9-3,1.5-4.4
								c0.3,0.6,0.8,1.1,1.3,1.5c0.1,0.1,0.2,0.1,0.2,0.2c-0.6,2.2-1.1,4.4-1.4,6.7c0,0-0.1,0.8-0.1,1.7c0,0.8,0,1.7,0.1,1.7
								c0.1,0,0.4-0.8,0.6-1.5c0.2-0.8,0.4-1.5,0.4-1.5c0.6-2.1,1.4-4.2,2.3-6.1c0.8,0.2,1.8,0.3,2.6,0.1c0.1,0,0.2-0.1,0.4-0.1
								c-0.4,1.3-0.7,3-1,5c-0.3,2.4-0.6,4.8-0.9,7.3c0,0,0,0,0,0l0,0.1c-1.4,13.8-1.5,27.9-0.1,43.7l0,0.2l0.1,0.1
								C198.6,144.3,199.2,146.7,198.7,148.8z M208.8,126.6c-0.1,0-0.2,0.1-0.2,0.1c0.2-0.1,0.3-0.2,0.5-0.3
								C209,126.5,208.9,126.5,208.8,126.6z M211.8,122.4c-2.7,3.1-5.4,4.7-8,4.9c-1.8,0.1-4.4-0.1-6.6-1.4c-0.2-8,0-15.7,0.6-23.2
								c4.8-2.3,14.2-2.6,17.6,0.3c1.1,0.9,1.7,2.3,1.8,4.2C217.5,112.7,213.5,120.4,211.8,122.4z M223.2,113.6
								c-3.9,12.2-13,22.9-24.5,28.7c5.8-3.5,11-8,15.3-13.3c0,0,0.1-0.1,0.3-0.3c0.2-0.2,0.4-0.5,0.7-0.9c0.3-0.4,0.6-0.8,1-1.3
								c0.3-0.5,0.7-1,1.1-1.5c1.4-2.1,2.6-4.4,2.5-4.5c-0.1-0.1-1.5,1.9-2.9,3.8c-0.4,0.5-0.7,1-1.1,1.4c-0.4,0.4-0.7,0.8-1,1.2
								c-0.6,0.7-1,1.1-1,1.1c-2,2.3-4.2,4.4-6.6,6.3c0.7-0.8,1.2-1.6,1.1-1.7c-0.1-0.1-0.8,0.6-1.6,1.2c-0.8,0.6-1.6,1.2-1.6,1.2
								c-2.2,1.6-4.6,2.7-7.1,3.4c-0.3-3.8-0.5-7.4-0.6-11c1.6,0.8,3.3,1.1,4.8,1.2c0.6,0,1.3,0,1.8,0c-1.3,0.4-2.7,0.9-4.3,1.3
								c1.3,0.4,2.7,0.5,4,0.4c-1.3,0.7-2.6,1.5-4,2.3c4.4,0,8.4-1.9,11.1-5.3c0.9-0.6,1.7-1.4,2.5-2.2c0.6-0.6,1-1.3,1.5-2.1
								c0.6-0.7,1.1-1.4,1.5-2.2c3-4.3,4-9.9,2.5-15.1c-0.1,1-0.2,2-0.4,3c0-0.5,0-0.9,0-1.3c-0.1-2.1-0.9-3.8-2.2-4.9
								c-3-2.6-10-2.9-15.3-1.6c3.7-1.4,7.8-1.6,11.7-0.7c0,0,0.1,0,0.3,0.1c0.2,0.1,0.5,0.1,0.8,0.2c0.2,0,0.3,0.1,0.5,0.1
								c0.2,0.1,0.4,0.1,0.6,0.2c0.4,0.1,0.9,0.3,1.3,0.5c0.9,0.3,1.7,0.8,2.3,1.1c0.6,0.3,1,0.6,1.1,0.5c0-0.1-0.3-0.4-0.8-0.8
								c-0.3-0.2-0.6-0.4-0.9-0.7c-0.2-0.1-0.4-0.2-0.6-0.4c-0.2-0.1-0.4-0.2-0.6-0.3c-0.2-0.1-0.4-0.2-0.6-0.3
								c-0.2-0.1-0.4-0.2-0.6-0.3c-0.4-0.2-0.8-0.4-1.1-0.5c-0.7-0.2-1.1-0.4-1.1-0.4c-2.7-0.9-5.6-1.2-8.5-1c1-0.2,2.1-0.3,3.1-0.3
								c0,0,0.1,0,0.2,0c0.1,0,0.3,0,0.6,0c0.2,0,0.5,0,0.8,0c0.3,0,0.6,0,0.9,0.1c1.3,0.1,2.5,0.3,2.5,0.2c0-0.1-1.1-0.6-2.3-0.9
								c-0.6-0.2-1.2-0.3-1.7-0.3c-0.5-0.1-0.8-0.1-0.8-0.1c-0.2,0-0.3,0-0.5,0c0.5-0.2,1-0.4,1.5-0.6c-0.4-0.2-0.9-0.3-1.3-0.4
								c0.4-0.1,0.9-0.3,1.3-0.5c-2.6-1.2-5-1.3-7.6-0.1c0.4,0.2,0.8,0.4,1.2,0.5c-0.9,0.2-1.9,0.5-2.8,0.8c0.7,0.2,1.3,0.4,1.9,0.6
								c-1.1,0.2-2.3,0.5-3.4,0.9c0.2-1.9,0.4-3.8,0.7-5.6l12.2,1.3c3,0.3,6.5,0.7,9.1,2.6c2.4,1.7,3.9,4.7,4.3,8.1
								C224.8,106.8,224.4,109.8,223.2,113.6z"/>
						</g>
						<g id="XMLID_6424_">
							<path id="XMLID_6425_" class="st3" d="M222.1,98.5c-1.3-1.7-3.2-3.1-5.4-3.5c2.1,0.7,3.7,2.2,4.8,3.9
								c1.1,1.7,1.6,3.7,1.8,5.7c0.3,4-0.9,8-2.4,12.1c1-1.9,1.9-3.8,2.5-5.9c0.6-2,0.9-4.2,0.8-6.3
								C224.1,102.4,223.4,100.3,222.1,98.5z"/>
						</g>
					</g>
				</g>
				<g id="XMLID_5407_">
					<g id="XMLID_6420_">
						<path id="XMLID_6421_" class="st4" d="M246.1,148.9l12-28l-19.5-8c0,0-0.9-6.6-2.5-8.5c-1.6-1.9-2.2-3.2-5.4-4.6
							c-3.2-1.4-9.2-1.7-14-3.6c-4.8-1.8-6.1,0.8-6.1,0.8s-2.5-1.2-3.5-0.6c-1,0.6-2.5,2.7-2.8,4.4c-0.4,1.7-0.4,3.2-0.4,3.2
							s-2.9,1.9-3.1,4.6c-0.2,2.8,0.8,5.7,0.8,5.7s-2.8,1.3-3,4.1c-0.2,2.9,1.5,5.7,1.5,5.7s-2.9,1.9-3.1,4.4c-0.2,2.4,1,4,1.4,4.1
							c0.4,0.1,8.7,4.2,9.9,4.3c1.2,0.1,3.5-0.1,3.5-0.1s6.6,4.3,9.4,4.8c2.8,0.5,7.5-0.7,7.5-0.7s2.8,2.3,3.8,2.9
							c1,0.7,3,1.9,3.9,1.8c0.9-0.2,4.2,1.1,4.2,1.1L246.1,148.9z"/>
					</g>
					<g id="XMLID_5408_">
						<path id="XMLID_5409_" class="st3" d="M230.4,99.1c-1.9-0.6-3.8-0.9-5.7-1.2c-2.2-0.4-4.4-0.7-6.1-1.5
							c-2.6-1.6-5.3-1.8-7.3-0.5c-0.1,0.1-0.2,0.2-0.3,0.2c-1.5-0.5-2.8-0.5-4.2,0.1c-1.9,0.8-3.6,4.9-3.5,6.9c0,0.3,0,0.5,0.1,0.7
							c-1.6,0.8-2.8,3.1-3.2,5.2c-0.4,2.1-0.1,3.9,0.8,5c-1.7,0.9-2.9,3.2-3.1,5.2c-0.2,2,0.3,3.6,1.5,4.6c-1.6,1.1-2.4,3.1-2.6,4.7
							c-0.2,2.2,0.5,4,1.8,4.7c0,0,0,0,0,0c0.7,0.3,1.3,0.6,1.9,0.9c4.3,2,7.9,3.7,10.9,3.2c7.4,4.6,13.2,6,17.3,4.2
							c0.1,0,0.2-0.1,0.3-0.2c1.1,0.4,1.8,1.2,2.5,1.9c0.9,0.9,1.8,1.9,3.4,2.4c0.7,0.2,2.5,0.2,3.1,0.2l8,2.8l-7.8-4l-0.1,0
							c-0.9,0-2.4,0-2.9-0.2c-1.3-0.5-2.1-1.3-2.9-2.1c-0.6-0.7-1.3-1.3-2.1-1.8c0.2-0.2,0.5-0.4,0.7-0.6c0.6,0.7,1.3,1.2,2,1.7
							c0.3,1,1,1.8,1.9,2.2c0.8,0.4,1.8,0.4,2.6,0.1c0.7,0.3,1.4,0.5,2.1,0.8c0,0,1.2,0.4,2.4,0.7c1.2,0.3,2.4,0.6,2.4,0.6
							c0-0.1-1-0.6-2.1-1c-0.5-0.2-0.9-0.4-1.3-0.5c0.1,0,0.2,0.1,0.3,0.1c1,0.4,2.1,0.7,2.1,0.6c0-0.1-0.9-0.6-1.8-1
							c-0.9-0.5-1.8-1-1.8-1c-0.6-0.3-1.2-0.7-1.7-1c0.3,0.1,0.8,0.3,1.3,0.5c0.8,0.3,1.6,0.5,1.6,0.4c0-0.1-0.7-0.5-1.3-0.8
							c-0.7-0.4-1.3-0.8-1.3-0.8c-1.9-1.1-3.7-2.4-5.3-3.9c0.3-0.5,0.6-1.1,0.9-1.8c1.1-2.6,0.4-5.5,0.4-5.5
							c-0.9,5.4-2.9,8.8-5.9,10.1c-3.6,1.6-8.9,0.3-15.7-3.8c1.1-0.9,1.9-1.9,2.3-3c0.7-1.5,0.7-3.2,0-4.8c1.6-0.4,3-2.3,3.7-4.2
							c0.2-0.6,0.4-1.2,0.5-1.8c0.2,1.1,0.6,2.1,1.1,3.1c-0.2-1.8-0.3-3.4-0.4-5c0-0.1,0-0.2,0-0.2c0.3,2.1,1.3,4.1,2.9,5.6
							c-0.9-2.1-1.4-4.1-1.6-6.1c-0.1-1.1-0.2-2.2-0.1-3.4c0,0,0,0,0,0c0,1.5,0.3,3.1,0.8,4.6c0.5,1.5,1.4,2.9,2.6,3.9
							c-0.8-1.3-1.3-2.8-1.6-4.2c-0.1-0.5-0.2-1-0.2-1.5c0.7,2.1,1.8,4,3.2,5.7c-1.6-3-2.5-6.2-2.7-9.3c0.2,1.5,0.9,2.9,1.9,4
							c-0.4-1.7-0.6-3.2-0.7-4.7c-0.1-1.5-0.2-3,0-4.7c-0.7,1-1.1,2.2-1.3,3.4c0.1-3.2,0.8-6.3,2.4-9.4c-0.2,0.3-0.4,0.5-0.6,0.8
							c0,0,0-0.1,0-0.1c0,0-0.2,0.3-0.6,0.8c0.3-0.7,0.5-1.4,0.4-2.1c-0.4,0.8-0.9,1.4-1.4,1.9c-0.1,0.1-0.2,0.2-0.4,0.3
							c0.5-0.6,0.8-1.4,0.9-2.2c-0.7,1-1.6,1.7-2.5,2.3c-0.9,0.5-1.9,1-3.2,1.1c0.4,0.2,0.8,0.3,1.2,0.3c-0.7,0.1-1.4,0-2.2-0.2
							c0.6,0.5,1.3,0.9,2.1,1.1c-1-0.1-2.1-0.5-3.3-1.2l0,0c0.7-1.4,1-3,0.8-4.6c-0.7,2-1.6,3.6-2.6,5.2c-1,1.6-2.2,3.1-3.7,4.5
							c0.7-0.2,1.3-0.6,1.9-0.9c-1.2,1.1-2.4,1.8-3.7,1.8c-1,0.1-1.9-0.2-2.6-0.9c0.2,0,0.4,0,0.6-0.1c0.1,0,0.2-0.1,0.3-0.1
							c0.1-0.1,0.2-0.1,0.3-0.2c0.3-0.2,0.6-0.5,0.8-0.8c0.2-0.3,0.3-0.5,0.5-0.8c0.7-1,1.3-2.2,1.5-3.5c0,0,0-0.2,0-0.6
							c0-0.4-0.1-0.8-0.3-1.3c-0.2-0.4-0.5-0.8-0.8-1.1c-0.3-0.2-0.5-0.3-0.5-0.3c0,0,0.1,0.2,0.3,0.4c0.2,0.2,0.4,0.6,0.4,1
							c0.1,0.4,0.1,0.8,0.1,1.1c0,0.3-0.1,0.5-0.1,0.5c-0.2,1.1-0.9,2.1-1.6,3c-0.4,0.5-0.8,1-1.1,1.2c-0.1,0-0.2,0.1-0.2,0.1
							c-0.1,0-0.1,0-0.2,0c-0.1,0-0.1,0-0.1-0.1c0,0,0,0,0,0l-0.2,0.1c1.3-2.2,2.2-4.5,2.7-6.7l0,0c0-0.1,0-0.1,0-0.2l0-0.7
							c0.4-0.7,0.7-1.6,1-2.5c0.6-1.7,1.3-3.6,2.5-4.3c1.2-0.8,2.5-0.8,3.6-0.5c-1.1-0.1-2.3,0.1-3.2,0.8c0.8-0.1,1.5,0,2.2,0.2
							c0.7,0.1,1.3,0.4,1.9,0.6c0.6,0.3,1.1,0.6,1.7,1.1c0.5,0.4,1,1,1.5,1.6c0-1.3-0.7-2.5-1.7-3.3c0,0,0.1,0,0.1,0.1l0.1,0
							c1.9,0.8,4.1,1.2,6.5,1.6c1.8,0.3,3.7,0.6,5.5,1.1c4.7,1.4,7.5,5.9,8,12.8l0,0.4c8.2,3,19.4,8.6,20,7.6l-18.9-8.4
							C238.7,105.3,235.6,100.5,230.4,99.1z M211.6,136.2C211.5,136.2,211.5,136.2,211.6,136.2l-0.2,0.2c-2.6,0.4-6.1-1.2-10.3-3.1
							c-0.6-0.3-1.3-0.6-1.9-0.9c-0.9-0.5-1.4-1.9-1.2-3.6c0.1-1.3,0.8-2.9,1.8-3.7c0,0,0,0,0,0c-0.3,0.3-0.5,0.7-0.6,1.1
							c-0.1,0.4-0.2,0.8-0.3,1.2c0.7-0.5,1.2-1.2,1.6-1.7c0.2-0.3,0.4-0.5,0.7-0.7c0.1,0,0.1-0.1,0.2-0.1c4.1,2,8.6,3.9,12.4,4.2
							C215,131.7,214.2,134.3,211.6,136.2z M217.6,124.5c-0.8,2.1-2.2,3.6-3.5,3.5c0,0,0,0,0,0v0c-0.7,0-1.4-0.1-2.2-0.3
							c-2.8-1.3-5.3-2.4-8.3-3.4c0.4,0.3,0.8,0.7,1.2,1c-1.3-0.6-2.7-1.2-3.9-1.9l0,0c0,0,0,0,0,0c-2-0.8-1.9-3-1.8-4
							c0.2-2.2,1.6-4.2,3-4.5c-0.3,0.2-0.5,0.4-0.7,0.6c0.9,0,1.7-0.1,2.5-0.2c0.8-0.1,1.5-0.3,2.4-0.6c-0.4-0.2-0.9-0.3-1.3-0.4
							c0.6,0,1.2,0,1.9,0c3.5,1.4,7.5,3.1,10.4,4.8C218.4,120.3,218.3,122.6,217.6,124.5z M222.1,109.5
							C222.1,109.5,222.1,109.5,222.1,109.5C222.1,109.5,222.1,109.5,222.1,109.5C222.1,109.5,222.1,109.5,222.1,109.5
							C222.1,109.5,222.1,109.5,222.1,109.5z M219.9,118.2L219.9,118.2C219.9,118.2,219.9,118.3,219.9,118.2
							C219.9,118.3,219.9,118.2,219.9,118.2z M209.9,114.5c2.2-0.6,4.3-2.6,6-5.6c1.6,0.9,3.1,1.2,4.4,1.1c0.9,1,1,3.1,0.2,5.1
							c-0.7,1.8-1.8,3-2.9,3.1C215.4,116.9,212.7,115.6,209.9,114.5z M204.1,111.7l-0.2,0.3l0.2,0.3c0.2,0.3,0.5,0.6,0.8,0.9
							c-1.1,0-2,0.2-2.7,0.5c-0.9-0.8-1.2-2.4-0.8-4.4c0.1-0.7,0.4-1.4,0.7-2c-0.1,0.3-0.1,0.6-0.1,0.9c0.5-0.9,1.2-1.5,1.8-2
							c0,0.1-0.1,0.1-0.1,0.2c0.7,0,1.2-0.1,1.7-0.4c0.2-0.1,0.4-0.3,0.6-0.4c0.2-0.1,0.4-0.3,0.7-0.4c-0.1-0.1-0.2-0.1-0.3-0.2
							c0.2,0,0.4-0.1,0.6-0.1c-1.1-0.5-2.4-0.4-3.4,0.3c0,0-0.1,0.1-0.1,0.1c0.4-0.3,0.7-0.5,1.1-0.6c0,0,0.1,0,0.1,0
							c0.7-0.2,1.5-0.2,2.6,0.1C206.5,107.1,205.5,109.4,204.1,111.7z M208.4,100.8c-0.3,0.8-0.6,1.6-0.9,2.2
							c-0.1-0.1-0.3-0.2-0.4-0.2c-0.5-0.1-1,0-1.5,0.3c0.2,0.1,0.3,0.2,0.4,0.3c-0.5,0-1,0-1.5,0.1c-0.1-0.2-0.1-0.6,0.1-1.4
							c0.4-2.1,1.7-4.4,2.7-4.8c0.2-0.1,0.4-0.1,0.6-0.2c-0.8,0.3-1.5,0.9-1.9,1.8c0.9-0.4,1.6-0.7,2.3-0.9c0.5-0.1,1-0.3,1.5-0.4
							C209.2,98.6,208.8,99.7,208.4,100.8z M226.8,139.4C226.8,139.4,226.8,139.4,226.8,139.4c-0.5,0.1-1.1,0.2-1.6,0.2
							c-1.1,0-2.1-0.1-3.1-0.4c2.1-0.4,4-0.7,5.6-1.5c0.8-0.4,1.5-0.9,2.1-1.6c0.5-0.7,1-1.6,1-2.6c0.5,1,0.4,2.2-0.1,3.2
							c-0.2,0.4-0.4,0.7-0.7,1.1c0.3-0.3,0.6-0.6,0.9-1c1-1.3,1.7-3,1.8-4.9c0.4,1.8,0,3.8-1,5.5c-1,1.6-2.6,2.9-4.5,3.4
							c-1.9,0.6-3.8,0.3-5.6-0.3c-1.8-0.6-3.3-1.6-4.9-2.6c1.8,0.7,3.5,1.3,5.2,1.7C223.5,139.8,225.2,139.8,226.8,139.4z
							 M237.1,115.5c-0.1-1.5-0.4-2.8-0.9-4.1c0.3,1.2,0.4,2.4,0.3,3.7c-0.7-2.4-1.6-4.4-2.7-6.4c-1.1-2-2.2-3.8-3.8-5.7
							c0.9,0.5,1.8,1.2,2.5,1.9c-1.5-1.8-3.4-3.3-5.7-4.5c3.3,0.7,6.3,2.7,8.2,5.5C236.9,108.7,237.7,112.2,237.1,115.5z
							 M205.9,111.2L205.9,111.2C205.9,111.2,205.9,111.2,205.9,111.2z M218,117.2c-0.2,0-0.4-0.1-0.5-0.2c-0.5-0.2-1-0.5-1.5-0.7
							c-1-0.5-2-1.1-3-1.7c1.1,0.3,2.2,0.6,3.3,1c0.5,0.2,1.1,0.4,1.6,0.6c0.1,0,0.2,0.1,0.3,0.1c0.1,0,0.1,0,0.2,0
							c0.1,0,0.2-0.2,0.4-0.4c0.1-0.2,0.2-0.5,0.4-0.7c0.1-0.2,0.2-0.5,0.4-0.7c0.2-0.5,0.4-1,0.5-1.5c0.1-0.5,0.1-1,0-1.5
							c-0.1-0.5-0.4-1-0.8-1.4c0.5,0.2,1,0.7,1.2,1.3c0.3,0.6,0.4,1.2,0.3,1.8c0,0.6-0.2,1.2-0.4,1.7c-0.1,0.3-0.2,0.5-0.3,0.8
							c-0.1,0.3-0.2,0.5-0.4,0.8c-0.2,0.3-0.4,0.6-0.8,0.8C218.4,117.3,218.2,117.3,218,117.2z M217.5,122.1
							c-0.1,0.8-0.4,1.5-0.8,2.1c-0.4,0.6-0.7,1.2-1.2,1.7c-0.3,0.3-0.6,0.5-0.9,0.7c-0.4,0.2-0.8,0.3-1.2,0.3
							c-0.4,0-0.8-0.1-1.1-0.3c-0.3-0.1-0.6-0.3-1-0.5c-1.2-0.6-2.5-1.3-3.7-2c1.4,0.4,2.7,0.9,4,1.3c0.7,0.2,1.3,0.5,1.8,0.5
							c0.5,0,1-0.3,1.4-0.8c0.4-0.4,0.8-1,1.2-1.6c0.4-0.5,0.7-1.1,0.8-1.7c0.2-1.2-0.4-2.6-1.7-3.2
							C216.5,119.1,217.7,120.6,217.5,122.1z M213,130.9c0.1,0.6,0.2,1.1,0.1,1.7c0,0.6-0.1,1.2-0.4,1.7c-0.3,0.5-0.8,1-1.4,1.2
							c-0.6,0.2-1.3,0.2-1.8,0.1c-0.6-0.1-1.1-0.3-1.6-0.5c-0.5-0.2-1-0.4-1.5-0.6c-1-0.4-2.1-0.9-3.1-1.4c1.1,0.2,2.2,0.4,3.3,0.7
							c0.5,0.1,1.1,0.3,1.6,0.4c0.5,0.2,1,0.3,1.5,0.4c0.5,0.1,1,0.1,1.4,0c0.4-0.1,0.8-0.4,1.1-0.8
							C212.7,133.2,212.9,132,213,130.9z M202.6,129.4c0.5-0.9,1-1.7,1.5-2.7c0.3,2.3-1,4.4-3,5.4
							C201.7,131.1,202.1,130.2,202.6,129.4z M203.1,131.2c0.2-0.6,0.3-1.1,0.5-1.5c0.2-0.4,0.5-0.8,1-1.3
							C205.1,129.6,204.4,130.8,203.1,131.2z M207.2,120.8c-0.5,1.1-1.3,2-2.2,2.7c0.8-1.4,1.3-2.7,1.7-4c0.4-1.3,0.7-2.7,0.8-4.3
							c0.3,0.9,0.5,1.8,0.4,2.7c0.1-0.2,0.1-0.4,0.2-0.6c0.5,0.8,0.6,1.7,0.4,2.6c-0.2,0.8-0.7,1.6-1.5,2.1
							C207,121.6,207.1,121.2,207.2,120.8z M236.8,133.4c2.8,0.2,5,1,7.2,2.8C241.1,136.1,238.9,135.2,236.8,133.4z M238.3,124.5
							c3.9,0.4,7.2,1.5,10.5,3.4C244.9,127.7,241.6,126.6,238.3,124.5z M239.6,114.5c5.2,1.5,9.7,3.5,14.1,6.5
							C248.4,119.6,244,117.5,239.6,114.5z"/>
					</g>
				</g>
			</g>
			<g id="XMLID_5312_">
				<g id="XMLID_5339_">
					<g id="XMLID_5402_">
						<path id="XMLID_5403_" class="st3" d="M76.5,143.2c-0.7-0.6-0.8-1.3-0.8-1.7c0-2.1-0.1-2.8-0.7-4.6c-2.5-0.9-4.6-3-5.5-5.5
							c-0.6-1.7-0.6-3.7,0.1-5.7c-12.2-5-22.4-15.2-27.4-27.3c-1.6-3.9-2.3-7.1-2.2-10.1c0.1-3.9,1.6-7.5,4.2-9.7
							c2.8-2.4,6.5-3.1,9.6-3.7l11.5-2.2c-0.5-1.9-0.9-3.4-1.3-4.6c-1-0.4-2-1.1-2.7-1.9c-1.3-1.4-2-3.2-2.1-5.1
							c-0.1-1.8,0.5-3.6,1.6-5c0.1-1.6,1-3,2.2-3.7c0-0.2,0.1-0.4,0.1-0.6c0.6-2.7,2.4-5.2,4.8-6.6c1.1-0.7,2.4-1.1,3.7-1.3
							c1.5-0.2,3-0.1,4.4,0.3c1.6,0.5,3,1.4,3.8,2.6c0,0,0.1,0,0.1,0c0.3,0,0.7-0.1,1-0.1c0.2-1.1,0.8-2.2,1.5-3
							c0.9-1,2.2-1.7,3.6-1.9c0.6-0.1,1.1-0.1,1.7,0c0.4-0.2,0.9-0.3,1.3-0.4c1-0.1,2,0,2.9,0.4c0.1,0,0.2,0.1,0.2,0.1
							c0-1.3,0.5-2.5,1.4-3.3c0.6-0.6,1.5-1,2.4-1.1c0.6-0.1,1.3,0,2,0.1c0.1-0.2,0.3-0.3,0.4-0.4c1.1-1,2.5-1.7,4-1.9
							c1.3-0.2,2.5,0,3.6,0.4c2.2,0.9,3.8,3.1,4.1,5.7c0.9,0.6,1.8,1.4,2.5,2.3c0.2,0.2,0.3,0.5,0.5,0.7c0.3,0.5,0.6,1.1,0.8,1.6
							c0.8-0.7,1.8-1.1,2.2-1.2c0.3-0.1,0.7-0.2,1.1-0.2c1.9-0.3,4,0.2,5.8,1.4c1.8,1.2,3.3,3.1,4.1,5.4c0.9,2.5,1,5.1,0.3,7.4
							c-0.7,2.3-2.2,4.2-4.2,5.4c0.3,1.8,0.9,3.5,1.9,5.1c0.6,0.9,1.4,2.1,1.3,3.7c-0.1,1.2-0.7,2.2-1.8,2.7
							c-0.3,0.1-0.5,0.2-0.8,0.2c-0.4,0.1-0.8,0-1.2-0.1c1.3,12.6,3.9,25.5,7.8,39.3c2.2,2,3.4,4.6,3.3,7.2
							c-0.2,2.7-1.6,5.2-3.8,6.8c-0.1,1.9,0,2.6,0.6,4.5c0.1,0.4,0.2,1.1-0.3,1.9c-2.9,4.5-25.2,7.7-26.2,7.8
							C102.8,143.7,80.5,146.8,76.5,143.2z M67.7,85.3c-2.7-0.9-6.7-1.2-10.2-0.7c-2.9,0.4-5.2,1.3-6.4,2.5
							c-0.9,0.9-1.3,2.2-1.3,3.9c0.1,5.4,4.6,12.6,6.5,14.3c2.9,2.7,5.5,4.1,8,4c0.6,0,1.1-0.1,1.6-0.1c1.7-0.2,3.1-0.7,4.3-1.5
							C69.8,99.9,68.9,92.6,67.7,85.3z"/>
					</g>
					<g id="XMLID_5398_">
						<path id="XMLID_5399_" class="st4" d="M42.7,98.3c5,12.2,15.3,22.3,27.6,27.2c-0.8,1.9-0.9,4-0.3,5.8c0.9,2.5,2.9,4.5,5.4,5.3
							c0.7,2.1,0.8,2.8,0.8,5c0,0.3,0.1,0.8,0.6,1.3c3,2.7,18.9,1.3,26.9,0.2s23.6-4.1,25.8-7.6c0.4-0.6,0.3-1.1,0.2-1.4
							c-0.6-2.1-0.7-2.8-0.6-5c2.2-1.5,3.6-3.9,3.8-6.6c0.2-2.5-1-5-3.2-6.9c-4.1-14.3-6.7-27.4-8-40.5c0.8,0.5,1.7,0.6,2.5,0.2
							c0.9-0.4,1.4-1.2,1.5-2.2c0.1-1.4-0.6-2.5-1.2-3.3c-1.1-1.7-1.8-3.6-2-5.7c2-1.1,3.6-3,4.3-5.2c0.7-2.2,0.6-4.7-0.3-7
							c-0.8-2.2-2.2-4-3.9-5.1c-1.9-1.3-4.3-1.7-6.4-1.1c-0.4,0.1-1.7,0.7-2.6,1.7c-0.2-0.8-0.6-1.6-1-2.3c-0.1-0.2-0.3-0.4-0.4-0.6
							c-0.8-1-1.7-1.8-2.6-2.4c-0.2-2.6-1.6-4.6-3.7-5.5c-2.3-0.9-5.3-0.4-7.1,1.4c-0.2,0.2-0.4,0.4-0.6,0.7
							c-1.6-0.5-3.1-0.2-4.2,0.8c-0.8,0.8-1.2,1.9-1.2,3.1c0,0.3,0,0.6,0.1,0.8c-0.3-0.2-0.7-0.4-1.1-0.6c-1.2-0.5-2.7-0.5-3.9,0
							c-1.9-0.3-3.7,0.3-5,1.7c-0.8,0.9-1.3,2-1.5,3.2c-0.6,0-1.2,0-1.8,0.1c-0.8-1.2-2.1-2.1-3.7-2.7c-2.5-0.8-5.4-0.4-7.7,0.9
							c-2.3,1.3-4,3.7-4.5,6.3c-0.1,0.3-0.1,0.6-0.1,0.8c-1.3,0.6-2.1,2-2.2,3.6c-1.1,1.3-1.7,3.1-1.6,4.8c0,1.7,0.7,3.5,1.9,4.7
							c0.8,0.8,1.7,1.4,2.7,1.8c0.5,1.3,1,3.1,1.6,5.4l-12.1,2.3c-3,0.6-6.7,1.3-9.3,3.6c-2.5,2.1-3.9,5.5-4,9.3
							C40.5,91.4,41.2,94.5,42.7,98.3z M49.3,91c0-1.8,0.5-3.3,1.5-4.3c3.1-3.2,12.5-3.7,17.5-1.8c1.3,7.5,2.1,15.1,2.6,23.1
							c-2.1,1.5-4.7,1.9-6.5,1.9c-2.6,0.1-5.4-1.3-8.4-4.2C54,103.9,49.4,96.5,49.3,91z"/>
					</g>
					<g id="XMLID_5340_">
						<g id="XMLID_5396_">
							<path id="XMLID_5397_" class="st3" d="M86.7,45.7c-0.7,0.4-1.3,0.9-1.6,1.5c-0.4,0.6-0.5,1.3-0.5,2.1c0,0.8,0.2,1.7,0.8,2.5
								c-1.8-0.8-2.7-3.4-1.6-5.4c1.1-1.9,3.9-2.4,5.5-1.2C88.2,45.1,87.4,45.4,86.7,45.7z"/>
						</g>
						<g id="XMLID_5394_">
							<path id="XMLID_5395_" class="st3" d="M101.9,52c0.1-0.6,0.1-1.2,0.1-1.7c-0.1-0.6-0.3-1.2-0.7-1.7c0.6,0.3,1.1,0.9,1.3,1.5
								c0.3,0.6,0.4,1.3,0.4,2c0,1.4-0.5,2.8-1.4,3.9c-0.9,1.1-2.2,1.8-3.6,2c-0.1,0-0.1,0-0.2,0c-0.6,1.5-1.7,2.8-3,3.7
								c-1.4,0.9-3.1,1.4-4.7,1.3c-1.7,0-3.3-0.6-4.6-1.7c-1.3-1.1-2.1-2.7-2-4.4c0.4,1.6,1.4,2.7,2.6,3.4c1.2,0.7,2.6,1,4,1.1
								c1.4,0,2.8-0.2,4.1-0.8c1.3-0.6,2.6-1.5,3.6-2.8c-1.3,0.1-2.6-0.2-3.7-0.9c1.3,0.3,2.5,0.2,3.6-0.2c1.1-0.4,2-1,2.7-1.8
								C101.2,54.2,101.7,53.2,101.9,52z"/>
						</g>
						<g id="XMLID_5392_">
							<path id="XMLID_5393_" class="st3" d="M87.4,78.5c0.1,0.5,0.1,0.9,0.2,1.3c0.1,0.4,0.2,0.6,0.4,0.8c0.2,0.1,0.4,0.2,0.7,0.2
								c0.3,0,0.6-0.1,0.9-0.4c0.6-0.5,0.9-1.4,0.9-2.4c0.2,0.5,0.4,1,0.4,1.5c0,0.5-0.1,1.1-0.5,1.6c-0.3,0.5-0.8,0.9-1.5,1
								c-0.6,0.1-1.4,0-1.9-0.4c-0.6-0.5-0.8-1.1-0.8-1.7c-0.1-0.6,0-1,0-1.5c0.1-1,0.4-1.9,0.9-2.9C87.2,76.7,87.3,77.6,87.4,78.5z
								"/>
						</g>
						<g id="XMLID_5390_">
							<path id="XMLID_5391_" class="st3" d="M121.1,57.7c-0.4,0.9-1.2,1.6-2.1,2.1c0.5-0.2,1.1-0.4,1.5-0.7c1-0.6,1.8-1.5,2.3-2.8
								c0,1.3-0.6,2.7-1.6,3.6c-1,1-2.4,1.5-3.7,1.6c-1.4,0.1-2.8-0.2-4-0.9c-1.2-0.7-2.2-1.6-2.9-2.7c1.3,0.9,2.7,1.5,4.1,1.9
								c-0.9-0.4-1.7-1.1-2.1-2c1.5,0.7,2.9,0.9,4.3,0.9C118.2,58.8,119.6,58.5,121.1,57.7z"/>
						</g>
						<g id="XMLID_5388_">
							<path id="XMLID_5389_" class="st3" d="M105.9,51.6c1.9-0.5,3.3-1.6,3.9-3.1c0.3-0.7,0.4-1.5,0.2-2.2c-0.2-0.8-0.7-1.6-1.6-2
								c1-0.1,2.1,0.6,2.7,1.5c0.6,1,0.7,2.2,0.2,3.3c-0.4,1-1.2,1.9-2.2,2.3C107.9,51.8,106.8,51.9,105.9,51.6z"/>
						</g>
						<g id="XMLID_5386_">
							<path id="XMLID_5387_" class="st3" d="M114.8,62.7c-1.3-0.5-2.5-1.2-3.5-2.1c2.3,1.4,5,2,7.4,1.5c2.4-0.5,4.3-2.3,5-4.5
								c0.7-2.3,0.4-4.9-1-6.9c-1.4-2-3.9-3.4-6.7-3.1c1.3-0.4,2.8-0.4,4.1,0c1.3,0.4,2.5,1.2,3.5,2.3c1.8,2.2,2.4,5.3,1.6,8
								c-0.4,1.4-1.2,2.7-2.3,3.6c-1.1,0.9-2.5,1.5-3.9,1.7C117.5,63.4,116.1,63.2,114.8,62.7z"/>
						</g>
						<g id="XMLID_5384_">
							<path id="XMLID_5385_" class="st3" d="M100.2,42.2c-0.2,0.8-0.2,1.7,0,2.5c0.2,0.9,0.5,1.8,1.2,2.6c-2-0.8-3.2-3.2-2.6-5.5
								c0.5-2.2,2.6-3.9,4.8-3.8c-1,0.5-1.7,1.1-2.2,1.8C100.8,40.6,100.4,41.4,100.2,42.2z"/>
						</g>
						<g id="XMLID_5382_">
							<path id="XMLID_5383_" class="st3" d="M70.4,62.9c-0.1,1.1-0.7,2.2-1.6,2.9c-0.9,0.7-2.1,1.1-3.3,0.9
								c-1.2-0.2-2.3-0.9-2.9-1.8c-0.7-0.9-1-2.1-0.7-3.2c0.3,1,0.9,1.8,1.6,2.4c0.7,0.6,1.5,1,2.3,1.1c0.8,0.1,1.7,0,2.5-0.4
								C69,64.4,69.8,63.8,70.4,62.9z"/>
						</g>
						<g id="XMLID_5380_">
							<path id="XMLID_5381_" class="st3" d="M79,59.6c0.1,0.8-0.2,1.7-0.8,2.3c-0.6,0.6-1.4,1.1-2.3,1.2c-0.9,0.1-1.8-0.2-2.5-0.7
								c-0.7-0.5-1.2-1.3-1.3-2.1c0.6,0.6,1.2,0.9,1.8,1.1c0.6,0.2,1.2,0.2,1.8,0.2c0.6-0.1,1.2-0.2,1.7-0.5
								C78,60.8,78.6,60.3,79,59.6z"/>
						</g>
						<g id="XMLID_5378_">
							<path id="XMLID_5379_" class="st3" d="M68.9,56.5c-1.4-0.7-2.3-2.3-2.2-3.9c0.1-1.6,1.1-3.1,2.5-3.7c-0.8,1.4-1,2.6-1,3.8
								C68.2,53.9,68.3,55.1,68.9,56.5z"/>
						</g>
						<g id="XMLID_5376_">
							<path id="XMLID_5377_" class="st3" d="M67.2,50.2c-0.4,1-0.7,1.9-0.7,2.9c0,1,0.1,2,0.5,3c0.4,1,0.9,1.9,1.8,2.8
								c-2.3-0.8-3.9-3.2-3.8-5.8c0.1-2.5,1.9-4.9,4.3-5.5C68.3,48.3,67.7,49.2,67.2,50.2z"/>
						</g>
						<g id="XMLID_5374_">
							<path id="XMLID_5375_" class="st3" d="M87,65.1c-0.7,0.6-1.7,0.7-2.5,0.5c-0.9-0.2-1.7-0.9-2.2-1.6c-0.5-0.8-0.7-1.7-0.7-2.5
								c0-0.9,0.2-1.7,0.5-2.5c0.4,1.7,0.8,3.1,1.5,4.2c0.4,0.5,0.8,1,1.3,1.4C85.4,64.9,86.1,65.2,87,65.1z"/>
						</g>
						<g id="XMLID_5372_">
							<path id="XMLID_5373_" class="st3" d="M95.8,81.8c0.1,1.3,0.3,2.6,0.6,3.7c0.4,1.1,1.1,1.7,2.2,1.5c0.5-0.1,1-0.4,1.3-0.9
								c0.3-0.5,0.4-1.2,0.1-1.9c0.5,0.5,0.7,1.3,0.5,2.1c-0.1,0.8-0.8,1.5-1.5,1.8c-0.8,0.3-1.7,0.3-2.5-0.1
								c-0.8-0.4-1.2-1.2-1.5-1.9c-0.3-0.7-0.4-1.5-0.4-2.1c0-0.7,0-1.4,0.1-2.1c0.2-1.4,0.5-2.8,1.2-4
								C95.7,79.2,95.7,80.5,95.8,81.8z"/>
						</g>
						<g id="XMLID_5370_">
							<path id="XMLID_5371_" class="st3" d="M78.2,51.8c-0.3,0.7-0.4,1.5-0.4,2.1c0.1,0.7,0.3,1.4,0.8,2c0.5,0.6,1.1,1.2,2,1.6
								c-1.9,0.3-4.1-1.3-4.3-3.4c-0.2-2.2,1.5-4.2,3.5-4.3C79,50.4,78.5,51.1,78.2,51.8z"/>
						</g>
						<g id="XMLID_5368_">
							<path id="XMLID_5369_" class="st3" d="M103.5,64.2c1-0.8,1.8-1.8,2.4-2.9c0.3-0.6,0.5-1.2,0.6-1.8c0.1-0.6,0-1.3-0.4-1.9
								c0.6,0.4,0.9,1.2,1,1.9c0.1,0.8,0,1.5-0.2,2.2c-0.4,1.4-1.3,2.7-2.4,3.6c-1.1,1-2.5,1.6-4,1.7c-1.5,0.2-3-0.1-4.2-0.7
								C99.1,66.6,101.6,65.7,103.5,64.2z"/>
						</g>
						<g id="XMLID_5366_">
							<path id="XMLID_5367_" class="st3" d="M105,65.4c1.3-1.2,2.4-2.9,2.7-5.1c0.7,2.1,0.1,4.7-1.7,6.2c-1.7,1.6-4.3,2-6.4,1.1
								C101.8,67.5,103.6,66.7,105,65.4z"/>
						</g>
						<g id="XMLID_5364_">
							<path id="XMLID_5365_" class="st3" d="M76.9,129.2c16.7,3.4,34.2,1.1,49.4-6.6c0.8-0.4,1.8-0.1,2.2,0.7
								c0.4,0.8,0.1,1.8-0.7,2.2c-7.8,3.9-16.2,6.5-24.8,7.7c-8.9,1.2-17.9,1-26.8-0.8c-0.9-0.2-1.5-1.1-1.3-2
								C75.1,129.6,76,129,76.9,129.2z"/>
						</g>
						<g id="XMLID_5362_">
							<path id="XMLID_5363_" class="st3" d="M122.4,119.9c-0.9-3.6-1.8-7.3-2.6-10.9c-1-4.5-1.9-9-2.7-13.5
								c-0.8-4.5-1.5-9.1-2.1-13.6c-0.5-3.5-0.9-7-1.3-10.5c0.5,0.1,0.9,0.1,1.4,0.2c0.8,0.1,1.3,0.7,1.4,1.5
								c1.2,14.2,3.5,27.7,7.4,44c0.1,0.6,0,1.2-0.4,1.8C123.3,119.1,122.9,119.5,122.4,119.9z"/>
						</g>
						<g id="XMLID_5360_">
							<path id="XMLID_5361_" class="st3" d="M77.9,125.1c-0.5-0.5-0.8-1-0.9-1.6c-0.7-16.7-2.2-30.3-4.9-44.3
								c-0.1-0.8,0.2-1.5,0.9-1.8c0.7-0.3,1.5-0.6,2.3-1c2.6,16.5,4.5,33.1,4.5,49.6C79.1,125.8,78.4,125.5,77.9,125.1z"/>
						</g>
						<g id="XMLID_5358_">
							<path id="XMLID_5359_" class="st3" d="M119.3,131.9l3.8-1.4l0,0c0.9-0.3,1.9-0.7,2.7-1.3c-0.1,1.7,0.2,3.4,0.8,5
								c-0.8,0.8-1.8,1.3-2.8,1.5l0,0c-1.1,0.5-2.2,0.9-3.4,1.2c0,0-0.5,0.1-1,0.2c-0.5,0.1-1,0.1-1,0c0-0.1,0.4-0.3,0.8-0.5
								c0.4-0.2,0.8-0.4,0.8-0.4c0.7-0.4,1.4-0.7,2.1-1.2c-0.7,0.2-1.3,0.4-2,0.5c0,0-0.5,0.1-1,0.2c-0.5,0.1-1,0.1-1,0
								c0-0.1,0.4-0.3,0.8-0.5c0.4-0.2,0.8-0.4,0.8-0.4c0.7-0.3,1.4-0.7,2.1-1.1c-0.7,0.1-1.4,0.3-2.1,0.4c0,0-0.5,0.1-1,0.1
								c-0.5,0.1-1,0.1-1,0c0-0.1,0.4-0.3,0.8-0.5c0.4-0.2,0.8-0.4,0.8-0.4c0.7-0.3,1.5-0.6,2.2-1l-2.2,0.3c0,0-1.9,0.3-2,0.1
								C117.5,132.5,119.3,131.9,119.3,131.9z"/>
						</g>
						<g id="XMLID_5356_">
							<path id="XMLID_5357_" class="st3" d="M78.9,135.7c0.9,0.4,1.9,0.5,2.9,0.6l0,0l4.1,0.3c0,0,1.8,0.2,1.9,0.4
								c0,0.2-1.9,0.5-1.9,0.5l-2.2,0.3c0.8,0.1,1.6,0.2,2.4,0.3c0,0,0.5,0.1,0.9,0.1c0.5,0.1,0.9,0.2,0.9,0.3c0,0.1-0.5,0.2-1,0.3
								c-0.5,0.1-1,0.1-1,0.1c-0.7,0.1-1.4,0.1-2.1,0.2c0.8,0.2,1.6,0.3,2.3,0.4c0,0,0.5,0.1,0.9,0.2c0.5,0.1,0.9,0.2,0.9,0.3
								c0,0.1-0.5,0.2-1,0.3c-0.5,0.1-1,0.1-1,0.1c-0.7,0-1.4,0.1-2,0.1c0.8,0.2,1.5,0.4,2.3,0.5c0,0,0.4,0.1,0.9,0.2
								c0.5,0.1,0.9,0.2,0.9,0.3c0,0.1-0.5,0.2-1,0.3c-0.5,0.1-1,0.1-1,0.1c-1.2,0-2.4,0-3.6-0.2c0,0,0,0,0,0
								c-1.1,0.1-2.2-0.1-3.2-0.7C79.6,139,79.4,137.3,78.9,135.7z"/>
						</g>
						<g id="XMLID_5354_">
							<path id="XMLID_5355_" class="st3" d="M102.4,135.1c4.1-0.5,8.3-1.1,12.6-2c-3.2,1.4-6.5,2.4-9.9,3c1.7-0.1,3.3-0.3,5.1-0.4
								c-2.2,0.9-4.3,1.5-6.5,1.8c0.6,0,1.3,0,2,0.1c-2,1.5-4.5,1.8-6.8,0.6c0.5-0.2,1-0.3,1.5-0.4c-2.3,0.1-4.7,0-7.1-0.4
								c1.9-0.3,3.7-0.5,5.5-0.7c-3,0.1-6.1-0.2-9.1-0.7C94.1,135.9,98.2,135.6,102.4,135.1z"/>
						</g>
						<g id="XMLID_5352_">
							<path id="XMLID_5353_" class="st3" d="M101.6,129.7c-8.3,1-16.9,0.6-25.3-1.6c8.6,1.2,16.9,1.2,25.1,0.2
								c8.2-1,16.3-3,24.5-6.3C118.1,126.1,109.9,128.6,101.6,129.7z"/>
						</g>
						<g id="XMLID_5343_">
							<path id="XMLID_5344_" class="st3" d="M42.7,98.3c5,12.2,15.3,22.3,27.6,27.2c-0.8,1.9-0.9,4-0.3,5.8
								c0.9,2.5,2.9,4.5,5.4,5.3c0.7,2.1,0.8,2.8,0.8,5c0,0.3,0.1,0.8,0.6,1.3c3,2.7,18.9,1.3,26.9,0.2s23.6-4.1,25.8-7.6
								c0.4-0.6,0.3-1.1,0.2-1.4c-0.6-2.1-0.7-2.8-0.6-5c2.2-1.5,3.6-3.9,3.8-6.6c0.2-2.5-1-5-3.2-6.9c-4.1-14.3-6.7-27.4-8-40.5
								c0.8,0.5,1.7,0.6,2.5,0.2c0.9-0.4,1.4-1.2,1.5-2.2c0.1-1.4-0.6-2.5-1.2-3.3c-1.1-1.7-1.8-3.6-2-5.7c2-1.1,3.6-3,4.3-5.2
								c0.7-2.2,0.6-4.7-0.3-7c-0.8-2.2-2.2-4-3.9-5.1c-1.9-1.3-4.3-1.7-6.4-1.1c-0.4,0.1-1.7,0.7-2.6,1.7c-0.2-0.8-0.6-1.6-1-2.3
								c-0.1-0.2-0.3-0.4-0.4-0.6c-0.8-1-1.7-1.8-2.6-2.4c-0.2-2.6-1.6-4.6-3.7-5.5c-2.3-0.9-5.3-0.4-7.1,1.4
								c-0.2,0.2-0.4,0.4-0.6,0.7c-1.6-0.5-3.1-0.2-4.2,0.8c-0.8,0.8-1.2,1.9-1.2,3.1c0,0.3,0,0.6,0.1,0.8c-0.3-0.2-0.7-0.4-1.1-0.6
								c-1.2-0.5-2.7-0.5-3.9,0c-1.9-0.3-3.7,0.3-5,1.7c-0.8,0.9-1.3,2-1.5,3.2c-0.6,0-1.2,0-1.8,0.1c-0.8-1.2-2.1-2.1-3.7-2.7
								c-2.5-0.8-5.4-0.4-7.7,0.9c-2.3,1.3-4,3.7-4.5,6.3c-0.1,0.3-0.1,0.6-0.1,0.8c-1.3,0.6-2.1,2-2.2,3.6
								c-1.1,1.3-1.7,3.1-1.6,4.8c0,1.7,0.7,3.5,1.9,4.7c0.8,0.8,1.7,1.4,2.7,1.8c0.5,1.3,1,3.1,1.6,5.4l-12.1,2.3
								c-3,0.6-6.7,1.3-9.3,3.6c-2.5,2.1-3.9,5.5-4,9.3C40.5,91.4,41.2,94.5,42.7,98.3z M121.6,73.5c-0.2-2.6-0.4-5.1-0.6-7.7
								c-0.1-1-0.9-1.7-2-1.7l-1.1,0l0,0c-2.2,0-4.7-0.6-6.5-1.8l0,0h0c-0.6-0.4-1.2-0.8-1.6-1.3l-1.2-1.2l0.2,1.7
								c0.3,2.3-0.7,4.7-2.4,6.2c-1.7,1.5-4.3,2-6.5,1.4l-0.7-0.2l0,0.7c-0.2,5.1,0.4,9.7,1.9,14.2c0.3,1,0.3,2.1,0,3.1
								c-0.3,1-1.1,1.8-2.1,2.1c-1,0.3-2.1,0.1-2.9-0.5c-1.4-1.1-2.2-3.1-1.8-4.8c0.7-3.8,0.2-12.6-0.5-13.9c-0.3-0.5-0.7-0.9-1.3-1
								c-0.7-0.1-1.4,0.1-1.9,0.5c-1,0.8-0.7,2.2-0.4,3.2l0.6,2c0.4,1.3,0.8,2.6,0.8,3.9c0,0.8-0.1,2.3-1.1,3.4
								c-0.8,0.9-2.1,1.2-3.1,0.7c-0.7-0.3-1.2-1.1-1.4-2c-0.2-0.9-0.2-1.9-0.1-2.9c0.2-3.1,0.4-6.5-0.5-10.7l-0.1-0.5l-0.5,0
								c-1.2,0.1-2.2-1-2.5-1.4c-1.2-1.5-1.6-3.5-1.2-5.5c0,0,0.1-0.5,0.2-0.8c0.1-0.3,0-0.6,0.3-0.8c-0.2-0.1-0.4,0-0.6,0.1
								c-1,0.4-1.1,1.3-1.1,1.3c-0.4,2-1.5,3.5-3,3.9c-1.3,0.4-2.8,0-3.8-0.9c-0.1-0.1-0.2-0.2-0.3-0.2c-0.2-0.2-0.3-0.3-0.4-0.5
								l-1.4-2l0.4,2.5c0,0.3,0.1,0.6,0,0.9c0,0,0,0.4-0.1,0.6c-0.2,0.8-0.6,1.6-1.2,2.2c-1,0.9-2.4,1.4-3.8,1.3
								c-1.4-0.1-2.7-0.8-3.7-1.8c-1-1.1-1.6-2.5-1.6-4c0-1,0.2-2,0.7-3c1.1,2,3.3,1.6,3.3,1.6c-1.3-0.3-2.3-1.6-2.4-3
								c0-0.9,0.2-1.9,1-2.6c0.1,1.9,0.7,3.7,1.8,5.3c0,0,1,1.3,2.2,1.4c-2-1.8-3.1-6.4-2.6-8.7c0.5-2.3,2-4.3,4-5.5
								c2-1.2,4.5-1.5,6.7-0.8c1.3,0.4,2.3,1.1,2.9,1.9c-1,0.4-1.9,1.1-2.6,2c-1.5,1.9-1.3,4.6-0.5,6.6c0.1,0.2,0.1,0.3,0.2,0.5
								c0.4,0.9,1.3,1.7,2.3,2c-0.6-0.9-1-1.6-1.4-2.4c0,0,0,0,0-0.1c0,0-1.4-3.5,0.4-5.9c1.1-1.5,2.8-2.2,4.6-2.1
								c0,0.3,0.1,0.7,0.2,1c0,0,0.4,2,1.4,2.5c-0.2-1-0.3-1.9-0.4-2.7c0,0,0,0,0-0.1c0,0-0.5-2.4,1.2-4.3c1-1.1,2.5-1.6,4.1-1.3
								l0.2,0l0.2-0.1c1-0.5,2.1-0.5,3.1-0.2c1,0.4,1.8,1.1,2.5,2.5c0.7,1.3,2.3,2.1,2.4,2c0-0.1-0.1-0.3-0.3-0.6
								c-0.2-0.3-0.3-0.5-0.3-0.5c-0.6-0.9-0.8-1.9-0.9-2.2c0-0.1-0.1-0.2-0.1-0.2c-0.3-0.8-0.4-1.7-0.4-2.6c0-0.8,0.4-1.7,1.1-2.1
								c0.5-0.3,1.3-0.6,2.4-0.3c-0.8,1.6-1,3.6-0.4,5.3l0,0c0.3,0.9,0.9,1.8,1.7,2.3c-0.4-1-0.6-1.8-0.8-2.7c0,0-1-3.1,1.5-5.8
								c1.4-1.5,3.9-1.9,5.8-1.1c1.8,0.7,2.9,2.6,3,4.8l0,0.3l0.3,0.2c1,0.5,2,1.4,2.7,2.5c1,2.6,0.1,5.6-2.8,7.2
								c1.5,0,2.9-0.9,3.8-2.2c0,0.7,0.3,1.3,0.7,1.8c-0.1-1.6,0.2-2.4,0.5-3c0.5-1,2.3-2.2,2.8-2.4c1.7-0.5,3.7-0.2,5.4,0.9
								c1.5,1,2.7,2.6,3.4,4.5c0.8,2.1,0.9,4.3,0.2,6.3c-0.6,2-2.2,3.8-4,4.7l-0.4,0.2l0,0.4c0.2,2.4,1,4.6,2.3,6.6
								c0.6,1,1.1,1.7,1,2.6c0,0.5-0.3,1-0.8,1.2c-0.5,0.2-1.1,0.1-1.6-0.3L121.6,73.5z M91.1,70.3c0.2-0.2,0.6-0.3,0.9-0.2
								c0.2,0,0.4,0.1,0.5,0.4c0.1,0.2,0.2,0.5,0.3,1c-0.6,0.1-1.2,0.2-1.8,0.3C90.8,71,90.9,70.5,91.1,70.3z M72.3,124.3l0.1-0.1
								l0-0.2c0-15.8-1.2-29.9-3.8-43.5l0-0.1c0,0,0,0,0,0c-0.5-2.4-1-4.8-1.5-7.2c-0.5-2.1-0.9-3.6-1.4-4.9c0.1,0,0.2,0,0.4,0
								c0.9,0.1,1.8-0.1,2.6-0.4c1.1,1.9,2,3.9,2.8,5.9c0,0,0.3,0.7,0.6,1.5c0.3,0.7,0.6,1.5,0.7,1.5c0.1,0,0.1-0.9,0-1.7
								c-0.1-0.8-0.3-1.7-0.3-1.7c-0.5-2.2-1.1-4.4-1.9-6.6c0.1-0.1,0.2-0.1,0.2-0.2c0.5-0.5,0.9-1,1.1-1.6c0.7,1.4,1.4,2.8,1.9,4.2
								c0,0,0.3,0.7,0.5,1.5c0.3,0.7,0.5,1.5,0.7,1.4c0.1,0,0.1-0.9,0-1.7c-0.1-0.8-0.2-1.7-0.2-1.7c-0.3-1.5-0.7-3.1-1.2-4.6
								c1.1,0.5,2.4,0.6,3.5,0.2c0,0,0,0,0.1,0l1.7,4.2c0,0,0.9,2.1,1.1,2c0.3-0.1-0.1-2.5-0.1-2.5l-0.1-0.6
								c0.2,0.9,0.5,1.7,0.7,2.6c0,0,0.2,0.8,0.4,1.7c0.2,0.8,0.4,1.7,0.6,1.7c0.1,0,0.2-0.9,0.2-1.8c0-0.9-0.1-1.8-0.1-1.8
								c-0.1-1.5-0.3-2.9-0.5-4.4c0.1,0.1,0.2,0.2,0.3,0.4c0.9,1.1,1.9,1.7,3,1.8c0.4,2,0.5,3.8,0.6,5.5c-2.6,0.7-5.2,1.6-7.8,2.6
								c3.2,16.8,5.7,33.8,6.3,50.9c4.9,0.6,12,0.2,18.1-0.7c3.5-0.5,7.2-1.2,10.6-2.1c-3-15.6-4.5-31.4-4.9-47.2
								c1.3,15.7,3.6,31.3,7.5,46.4c0.8-0.2,1.5-0.5,2.2-0.7c-1-4.1-1.8-8.3-2.6-12.5c-0.9-4.6-1.6-9.2-2.3-13.8
								c-0.6-4.6-1.2-9.3-1.6-13.9c-0.3-3.8-0.6-7.6-0.8-11.4c-3.1-0.2-6.2-0.3-9.3-0.2c0-0.1,0-0.2,0-0.3c2.4,0.4,5-0.2,6.9-1.8
								c1.1-1,2-2.2,2.4-3.6l0.3,2.8c0,0,0.3,2.5,0.6,2.5c0.3,0,0.5-2.6,0.5-2.6l0.4-4c1.1,0.6,2.3,1.1,3.6,1.3l0.5,4
								c0,0,0.3,1.9,0.5,1.9s0.6-2,0.6-2l0.5-3.6c0.7,0,1.3,0,1.9,0l0,0l0.1,0c0.4,0,0.8,0.1,0.8,0.6c0.9,16.4,3.6,32.4,8.8,50.3
								l0,0.2l0.1,0.1c2,1.6,3.1,3.9,2.9,6c-0.2,2.3-1.5,4.6-3.5,5.8l-0.3,0.2l0,0.3c-0.1,2.5,0,3.4,0.6,5.7c0,0.1,0.1,0.3-0.1,0.5
								c-1.6,2.5-14.1,5.5-24.9,7c-10.9,1.5-23.7,2.1-25.9,0c-0.2-0.2-0.2-0.3-0.2-0.4c0-2.4-0.1-3.3-1-5.7l-0.1-0.3l-0.3-0.1
								c-2.3-0.7-4.1-2.4-4.9-4.6C70.4,128.9,70.8,126.4,72.3,124.3z M58.9,109.4c0.2,0.1,0.3,0.2,0.5,0.3c-0.1,0-0.2,0-0.2-0.1
								C59.1,109.6,59,109.5,58.9,109.4z M49.3,91c0-1.8,0.5-3.3,1.5-4.3c3.1-3.2,12.5-3.7,17.5-1.8c1.3,7.5,2.1,15.1,2.6,23.1
								c-2.1,1.5-4.7,1.9-6.5,1.9c-2.6,0.1-5.4-1.3-8.4-4.2C54,103.9,49.4,96.5,49.3,91z M41.6,88.5c0.1-3.5,1.4-6.5,3.6-8.4
								c2.4-2.1,5.8-2.7,8.8-3.3l12.1-2.3c0.4,1.9,0.8,3.7,1.2,5.6c-1.1-0.3-2.3-0.5-3.4-0.6c0.6-0.2,1.2-0.4,1.9-0.7
								c-1-0.3-1.9-0.5-2.9-0.6c0.4-0.2,0.8-0.4,1.2-0.6c-2.7-0.9-5.1-0.7-7.6,0.8c0.5,0.2,0.9,0.3,1.3,0.4
								c-0.4,0.1-0.9,0.3-1.3,0.5c0.5,0.2,1,0.3,1.5,0.5c-0.2,0-0.3,0-0.5,0.1c0,0-0.3,0.1-0.8,0.2c-0.5,0.1-1.1,0.3-1.6,0.5
								c-1.2,0.4-2.3,1-2.2,1.1c0.1,0.1,1.3-0.2,2.5-0.4c0.3-0.1,0.6-0.1,0.9-0.1c0.3,0,0.6-0.1,0.8-0.1c0.2,0,0.4,0,0.6-0.1
								c0.1,0,0.2,0,0.2,0c1-0.1,2.1-0.1,3.1,0c-2.9,0-5.8,0.6-8.4,1.7c0,0-0.4,0.2-1,0.5c-0.3,0.1-0.7,0.4-1,0.6
								c-0.2,0.1-0.4,0.2-0.6,0.3c-0.2,0.1-0.4,0.3-0.6,0.4c-0.2,0.1-0.4,0.3-0.6,0.4c-0.2,0.1-0.4,0.3-0.5,0.4
								c-0.3,0.3-0.6,0.5-0.9,0.8c-0.5,0.5-0.8,0.8-0.7,0.9c0,0,0.5-0.2,1-0.6c0.6-0.4,1.4-0.9,2.2-1.3c0.4-0.2,0.8-0.4,1.2-0.6
								c0.2-0.1,0.4-0.2,0.6-0.3c0.2-0.1,0.4-0.1,0.5-0.2c0.3-0.1,0.6-0.2,0.8-0.3c0.2-0.1,0.3-0.1,0.3-0.1
								c3.8-1.3,7.9-1.3,11.7-0.3c-5.4-0.8-12.4,0.1-15.1,2.9c-1.2,1.2-1.8,3-1.8,5.1c0,0.4,0,0.9,0.1,1.3c-0.2-1-0.4-1.9-0.6-3
								c-1,5.3,0.5,10.8,3.8,14.9c0.5,0.8,1,1.4,1.7,2c0.5,0.7,1,1.4,1.6,2c0.8,0.8,1.7,1.4,2.6,2c3,3.1,7.1,4.7,11.5,4.4
								c-1.5-0.7-2.8-1.3-4.2-1.9c1.3,0,2.7-0.2,4-0.7c-1.6-0.3-3-0.6-4.4-0.9c0.5,0,1.2-0.1,1.8-0.1c1.5-0.2,3.2-0.7,4.7-1.6
								c0.2,3.6,0.3,7.3,0.4,11.1c-2.6-0.5-5-1.4-7.3-2.8c0,0-0.8-0.5-1.7-1c-0.8-0.5-1.6-1.1-1.7-1.1c-0.1,0.1,0.5,0.9,1.2,1.6
								c-2.5-1.7-4.9-3.6-7.1-5.7c0,0-0.4-0.4-1.1-1c-0.3-0.3-0.7-0.7-1.1-1.1c-0.4-0.4-0.8-0.8-1.2-1.3c-1.6-1.8-3.1-3.7-3.3-3.6
								c-0.1,0.1,1.3,2.2,2.8,4.2c0.4,0.5,0.8,1,1.2,1.5c0.4,0.5,0.8,0.9,1.1,1.2c0.3,0.4,0.6,0.7,0.8,0.9c0.2,0.2,0.3,0.3,0.3,0.3
								c4.7,4.9,10.2,8.9,16.3,11.9c-11.9-4.8-21.9-14.6-26.8-26.5C42.3,94.2,41.6,91.2,41.6,88.5z"/>
						</g>
						<g id="XMLID_5341_">
							<path id="XMLID_5342_" class="st3" d="M43.5,82.8c1.1-1.8,2.9-3.4,5.1-3.9c-2,0.9-3.5,2.5-4.4,4.3c-0.9,1.8-1.3,3.8-1.3,5.8
								c0,4,1.6,7.9,3.4,11.9c-1.2-1.8-2.2-3.7-3-5.6c-0.8-2-1.3-4.1-1.3-6.2C41.9,86.8,42.4,84.6,43.5,82.8z"/>
						</g>
					</g>
				</g>
				<g id="XMLID_5313_">
					<g id="XMLID_5337_">
						<path id="XMLID_5338_" class="st4" d="M23.9,135L9.6,108.2l18.7-9.6c0,0,0.4-6.7,1.8-8.7c1.4-2,1.9-3.4,5-5.1
							c3.1-1.7,9.1-2.5,13.7-4.7c4.6-2.2,6.1,0.2,6.1,0.2s2.4-1.4,3.4-0.8c1.1,0.5,2.7,2.5,3.2,4.2c0.5,1.7,0.6,3.1,0.6,3.1
							s3.1,1.6,3.5,4.3c0.4,2.7-0.3,5.8-0.3,5.8s2.9,1,3.4,3.9c0.5,2.8-1,5.8-1,5.8s3.1,1.7,3.4,4.1c0.4,2.4-0.6,4.1-1.1,4.2
							c-0.4,0.2-8.3,4.9-9.5,5.1c-1.2,0.2-3.5,0.2-3.5,0.2s-6.2,4.8-9,5.6s-7.6-0.1-7.6-0.1s-2.6,2.5-3.5,3.3
							c-0.9,0.8-2.8,2.2-3.7,2.1c-0.9-0.1-4.1,1.5-4.1,1.5L23.9,135z"/>
					</g>
					<g id="XMLID_5314_">
						<path id="XMLID_5315_" class="st3" d="M27.7,98.2l-18.2,9.9c0.7,1,11.4-5.6,19.3-9.2l0-0.4c-0.2-6.9,2.3-11.7,6.8-13.5
							c1.8-0.7,3.6-1.2,5.4-1.6c2.3-0.6,4.5-1.1,6.3-2.1l0.1,0c0,0,0.1-0.1,0.1-0.1c-0.9,0.9-1.5,2.2-1.4,3.4
							c0.4-0.7,0.9-1.3,1.4-1.8c0.5-0.5,1-0.9,1.6-1.2c0.6-0.3,1.1-0.6,1.8-0.8c0.7-0.2,1.4-0.3,2.2-0.4c-1-0.6-2.1-0.7-3.2-0.5
							c1.1-0.4,2.4-0.4,3.6,0.2c1.2,0.7,2.1,2.5,2.8,4.1c0.4,0.9,0.8,1.7,1.2,2.4l0.1,0.7c0,0.1,0,0.1,0,0.2l0,0
							c0.7,2.2,1.8,4.4,3.3,6.5L60.8,94c0,0,0,0,0,0c0,0-0.1,0.1-0.1,0.1c-0.1,0-0.1,0-0.2,0c-0.1,0-0.1,0-0.2-0.1
							c-0.4-0.2-0.8-0.6-1.2-1.1c-0.8-0.9-1.6-1.8-1.9-2.9c0,0-0.1-0.2-0.1-0.5c0-0.3-0.1-0.7,0-1.1c0.1-0.4,0.2-0.8,0.4-1
							c0.2-0.3,0.3-0.4,0.3-0.5c0,0-0.2,0.1-0.5,0.3c-0.3,0.2-0.5,0.7-0.7,1.1c-0.2,0.5-0.2,0.9-0.2,1.3c0,0.4,0.1,0.6,0.1,0.6
							c0.3,1.3,1,2.4,1.8,3.4c0.2,0.2,0.4,0.5,0.6,0.7c0.2,0.3,0.5,0.5,0.8,0.7c0.1,0.1,0.2,0.1,0.3,0.1c0.1,0,0.2,0.1,0.3,0.1
							c0.2,0,0.4,0,0.6,0c-0.7,0.7-1.6,1.1-2.6,1.1c-1.2,0-2.5-0.5-3.8-1.5c0.6,0.3,1.3,0.6,2,0.8c-1.6-1.3-2.9-2.7-4.1-4.2
							c-1.2-1.5-2.2-3.1-3.1-5c0,1.6,0.5,3.2,1.2,4.6l0,0c-1.1,0.8-2.2,1.3-3.2,1.4c0.8-0.2,1.5-0.7,2-1.2c-0.8,0.3-1.5,0.3-2.2,0.3
							c0.4-0.1,0.8-0.2,1.2-0.4c-1.3,0-2.3-0.4-3.3-0.8c-1-0.5-1.9-1.1-2.7-2.1c0.1,0.8,0.5,1.5,1.1,2.1c-0.1-0.1-0.3-0.2-0.4-0.3
							c-0.6-0.5-1.1-1-1.5-1.8c0,0.7,0.2,1.5,0.6,2.1c-0.4-0.4-0.6-0.8-0.6-0.8c0,0,0,0.1,0.1,0.1c-0.2-0.3-0.5-0.5-0.7-0.8
							c1.8,3,2.8,6.1,3.1,9.2c-0.2-1.2-0.8-2.3-1.6-3.3c0.3,1.7,0.4,3.2,0.4,4.7c0,1.5,0,3-0.3,4.7c0.9-1.2,1.5-2.6,1.6-4.1
							c0.1,3.1-0.5,6.3-1.9,9.5c1.3-1.8,2.2-3.8,2.7-5.9c0,0.5-0.1,1-0.1,1.5c-0.2,1.4-0.5,2.9-1.3,4.3c1.1-1.2,1.8-2.6,2.2-4.1
							c0.4-1.5,0.5-3.1,0.4-4.6l0,0c0.2,1.1,0.2,2.3,0.2,3.4c-0.1,2-0.4,4.1-1.1,6.2c1.5-1.6,2.3-3.7,2.4-5.8c0,0.1,0,0.2,0,0.2
							c0.1,1.6,0.1,3.2,0,5c0.5-1,0.8-2.1,0.9-3.2c0.2,0.6,0.4,1.2,0.6,1.8c0.9,1.8,2.4,3.5,4,3.8c-0.5,1.7-0.4,3.3,0.4,4.8
							c0.6,1,1.4,2,2.6,2.8c-6.4,4.7-11.6,6.4-15.3,5.1c-3.1-1.1-5.4-4.3-6.7-9.5c0,0-0.5,3,0.8,5.5c0.3,0.6,0.7,1.2,1.1,1.7
							c-1.5,1.6-3.1,3.1-4.9,4.3c0,0-0.6,0.4-1.3,0.9c-0.6,0.4-1.3,0.9-1.2,1c0,0.1,0.8-0.2,1.6-0.5c0.5-0.2,1-0.5,1.3-0.6
							c-0.5,0.4-1.1,0.8-1.7,1.1c0,0-0.9,0.6-1.7,1.1c-0.9,0.6-1.8,1.1-1.7,1.2c0,0.1,1.1-0.3,2.1-0.8c0.1,0,0.2-0.1,0.3-0.1
							c-0.4,0.2-0.8,0.4-1.2,0.7c-1,0.5-2.1,1.1-2,1.2c0,0.1,1.2-0.3,2.4-0.8c1.2-0.4,2.3-0.9,2.3-0.9c0.7-0.3,1.4-0.6,2-0.9
							c0.9,0.3,1.8,0.1,2.6-0.3c0.9-0.5,1.5-1.3,1.7-2.3c0.7-0.6,1.3-1.2,1.9-1.9c0.2,0.2,0.5,0.3,0.7,0.5c-0.8,0.6-1.4,1.3-2,2
							c-0.7,0.9-1.4,1.8-2.7,2.4c-0.4,0.2-1.9,0.4-2.9,0.4l-0.1,0l-7.4,4.6l7.7-3.5c0.6,0,2.4-0.2,3.1-0.5c1.5-0.7,2.4-1.7,3.2-2.7
							c0.7-0.8,1.3-1.6,2.3-2.1c0.1,0,0.2,0.1,0.3,0.1c4.2,1.5,9.9-0.4,16.9-5.6c3,0.2,6.5-1.8,10.6-4.1c0.6-0.3,1.2-0.7,1.9-1.1
							c0,0,0,0,0,0c1.3-0.9,1.8-2.7,1.4-4.9c-0.3-1.6-1.3-3.6-3-4.5c1.1-1.1,1.5-2.7,1.1-4.7c-0.4-2-1.7-4.2-3.5-4.9
							c0.8-1.2,1-3,0.4-5.1c-0.6-2.1-2-4.2-3.7-4.9c0-0.2,0.1-0.4,0-0.7c-0.1-2-2.2-6-4.1-6.6c-1.4-0.4-2.7-0.3-4.1,0.3
							c-0.1-0.1-0.2-0.2-0.4-0.2c-2.1-1.1-4.8-0.7-7.2,1.1c-1.7,0.9-3.8,1.4-6,2c-1.8,0.4-3.7,0.9-5.6,1.6
							C30.3,85.9,27.6,91,27.7,98.2z M54.5,112.6c3.8-0.6,8.1-2.9,12-5.2c0.1,0,0.1,0.1,0.2,0.1c0.3,0.2,0.5,0.4,0.7,0.6
							c0.5,0.5,1,1.1,1.8,1.5c-0.1-0.4-0.2-0.8-0.4-1.2c-0.2-0.4-0.4-0.7-0.7-1c0,0,0,0,0,0c1.2,0.7,1.9,2.2,2.1,3.5
							c0.3,1.6,0,3.1-0.9,3.7c-0.6,0.4-1.2,0.7-1.8,1.1c-3.9,2.3-7.4,4.2-10,4l-0.1-0.2c0,0-0.1,0-0.1,0.1
							C54.5,117.8,53.5,115.2,54.5,112.6z M50.3,103c2.7-2,6.5-4,9.9-5.7c0.7-0.1,1.4-0.2,1.9-0.2c-0.4,0.1-0.9,0.3-1.3,0.5
							c0.9,0.2,1.7,0.3,2.4,0.4c0.8,0.1,1.5,0,2.5,0c-0.3-0.2-0.5-0.4-0.8-0.5c1.4,0.2,2.9,2.1,3.4,4.2c0.2,0.9,0.4,3.1-1.5,4.1
							c0,0,0,0,0,0l0,0c-1.2,0.7-2.5,1.5-3.8,2.2c0.4-0.3,0.8-0.7,1.1-1.1c-2.9,1.3-5.4,2.6-8,4.1c-0.7,0.2-1.4,0.4-2.1,0.5v0
							c0,0,0,0,0,0c-1.2,0.2-2.8-1.1-3.8-3.2C49.4,106.5,49.1,104.1,50.3,103z M44.5,93.7C44.5,93.7,44.5,93.7,44.5,93.7
							C44.5,93.7,44.5,93.7,44.5,93.7C44.5,93.7,44.5,93.7,44.5,93.7C44.5,93.7,44.5,93.7,44.5,93.7z M47.4,102.3
							C47.4,102.3,47.4,102.2,47.4,102.3C47.4,102.2,47.4,102.2,47.4,102.3C47.4,102.2,47.4,102.3,47.4,102.3z M49.7,102
							c-1.1,0-2.3-1.1-3.2-2.8c-1-2-1.1-4-0.3-5.1c1.3,0,2.8-0.5,4.3-1.5c1.9,2.8,4.2,4.6,6.4,5.1C54.4,99,51.8,100.5,49.7,102z
							 M59,87.8c1.1-0.4,1.9-0.5,2.6-0.3c0,0,0.1,0,0.1,0c0.4,0,0.7,0.2,1.1,0.5c0,0-0.1-0.1-0.1-0.1c-1.1-0.6-2.4-0.6-3.4,0
							c0.2,0,0.4,0,0.6,0.1c-0.1,0.1-0.2,0.1-0.3,0.2c0.3,0.1,0.6,0.2,0.8,0.3c0.2,0.1,0.4,0.3,0.7,0.4c0.5,0.2,1,0.3,1.7,0.3
							c0-0.1-0.1-0.1-0.1-0.2c0.7,0.4,1.4,1,2,1.8c0-0.3-0.1-0.6-0.2-0.9c0.3,0.6,0.6,1.2,0.8,1.9c0.6,1.9,0.4,3.5-0.5,4.4
							C64,96,63.1,95.9,62,96c0.3-0.3,0.5-0.6,0.7-1l0.2-0.3l-0.2-0.3C61,92.2,59.8,90,59,87.8z M55.7,80.8c0.6,0.1,1,0.2,1.5,0.3
							c0.7,0.2,1.5,0.3,2.4,0.7c-0.4-0.8-1.2-1.4-2-1.6c0.2,0,0.4,0.1,0.6,0.1c1,0.3,2.5,2.5,3.1,4.6c0.2,0.8,0.2,1.2,0.2,1.4
							c-0.4-0.1-0.9-0.1-1.5,0c0.1-0.1,0.3-0.2,0.4-0.3c-0.5-0.3-1-0.4-1.5-0.2c-0.2,0.1-0.3,0.1-0.4,0.2c-0.4-0.6-0.7-1.3-1.1-2.2
							C56.9,82.9,56.4,81.7,55.7,80.8z M47.3,123.5c1.7-0.5,3.3-1.3,5-2.1c-1.5,1.2-2.9,2.3-4.6,3c-1.7,0.8-3.6,1.1-5.5,0.8
							c-1.9-0.4-3.6-1.5-4.8-3c-1.1-1.5-1.7-3.5-1.5-5.3c0.2,1.8,1.1,3.5,2.2,4.7c0.3,0.3,0.6,0.6,1,0.9c-0.3-0.3-0.6-0.6-0.8-1
							c-0.6-1-0.8-2.2-0.4-3.2c0.1,1,0.6,1.9,1.2,2.6c0.6,0.7,1.4,1.1,2.2,1.5c1.7,0.7,3.6,0.8,5.7,1c-1,0.3-2,0.6-3.1,0.6
							c-0.5,0-1.1,0-1.6-0.1c0,0,0,0,0,0C44,124.2,45.6,124,47.3,123.5z M31.3,91.3c1.6-2.9,4.4-5.2,7.7-6.2c-2.2,1.4-3.9,3-5.3,4.9
							c0.7-0.8,1.5-1.5,2.4-2.1c-1.4,2-2.4,4-3.3,6c-0.9,2-1.6,4.1-2.1,6.6c-0.2-1.2-0.2-2.5,0-3.7c-0.3,1.3-0.5,2.7-0.5,4.2
							C29.2,97.7,29.7,94.2,31.3,91.3z M60.8,94L60.8,94C60.8,94,60.8,94,60.8,94z M48.6,101.1c-0.4-0.1-0.7-0.4-0.9-0.7
							c-0.2-0.3-0.3-0.5-0.5-0.8c-0.1-0.2-0.3-0.5-0.4-0.8c-0.3-0.5-0.5-1.1-0.6-1.7c-0.1-0.6-0.1-1.2,0.1-1.8
							c0.2-0.6,0.6-1.1,1.1-1.4c-0.4,0.4-0.6,0.9-0.7,1.5c-0.1,0.5,0,1.1,0.1,1.5c0.2,0.5,0.4,1,0.7,1.4c0.1,0.2,0.3,0.5,0.4,0.7
							c0.1,0.2,0.3,0.5,0.4,0.7c0.1,0.2,0.3,0.3,0.4,0.4c0.1,0,0.1,0,0.2,0c0.1,0,0.2,0,0.3-0.1c0.5-0.2,1-0.5,1.5-0.7
							c1-0.5,2.1-0.9,3.2-1.3c-1,0.7-1.9,1.3-2.9,1.9c-0.5,0.3-1,0.6-1.5,0.9c-0.1,0.1-0.3,0.1-0.5,0.2
							C49.1,101.1,48.8,101.1,48.6,101.1z M52.2,102.4c-1.2,0.7-1.7,2.2-1.4,3.4c0.2,0.6,0.5,1.1,0.9,1.6c0.4,0.5,0.8,1.1,1.3,1.5
							c0.5,0.4,0.9,0.7,1.5,0.7c0.5,0,1.1-0.3,1.8-0.6c1.3-0.6,2.6-1.1,3.9-1.7c-1.2,0.8-2.4,1.6-3.5,2.3c-0.3,0.2-0.6,0.4-0.9,0.5
							c-0.3,0.2-0.7,0.3-1.1,0.4c-0.4,0.1-0.9,0-1.2-0.2c-0.4-0.2-0.7-0.4-1-0.6c-0.6-0.5-1-1.1-1.4-1.6c-0.4-0.6-0.8-1.2-0.9-2
							C49.8,104.4,50.8,102.8,52.2,102.4z M56.5,117.2c0.3,0.4,0.7,0.6,1.1,0.7c0.4,0.1,0.9,0,1.4-0.1c0.5-0.1,1-0.3,1.5-0.5
							c0.5-0.2,1-0.4,1.6-0.5c1-0.3,2.1-0.7,3.2-1c-1,0.6-2,1.1-3,1.6c-0.5,0.3-1,0.5-1.5,0.7c-0.5,0.2-1,0.5-1.6,0.6
							c-0.6,0.2-1.2,0.2-1.8,0.1c-0.6-0.2-1.2-0.6-1.5-1.1c-0.3-0.5-0.5-1.1-0.6-1.7c-0.1-0.6,0-1.2,0-1.7
							C55.6,115.4,55.8,116.5,56.5,117.2z M67.3,114.5c-2.1-0.8-3.5-2.9-3.5-5.2c0.6,0.9,1.2,1.8,1.7,2.6
							C66.1,112.7,66.7,113.5,67.3,114.5z M63.5,111c0.5,0.4,0.8,0.8,1.1,1.2c0.3,0.4,0.4,0.9,0.6,1.5
							C63.9,113.5,63.2,112.3,63.5,111z M60.6,104.9c-0.8-0.4-1.4-1.2-1.7-2c-0.3-0.8-0.2-1.8,0.2-2.6c0.1,0.2,0.1,0.4,0.2,0.6
							c-0.1-0.9,0-1.8,0.2-2.7c0.2,1.5,0.7,2.9,1.2,4.2c0.5,1.3,1.1,2.6,2,3.9c-1-0.6-1.9-1.5-2.4-2.5
							C60.4,104.1,60.5,104.5,60.6,104.9z M25,122.1c2-1.9,4.2-2.9,6.9-3.4C29.9,120.7,27.8,121.8,25,122.1z M19.5,114.4
							c3.1-2.2,6.3-3.6,10.1-4.3C26.5,112.4,23.3,113.8,19.5,114.4z M14,107.8c4.2-3.4,8.4-5.8,13.5-7.7
							C23.3,103.6,19.1,106,14,107.8z"/>
					</g>
				</g>
			</g>
		</g>
	</g>
</g>
</svg>
