<?xml version="1.0" encoding="utf-8"?>
<!-- Generator: Adobe Illustrator 21.0.2, SVG Export Plug-In . SVG Version: 6.00 Build 0)  -->
<svg version="1.1" id="Layer_1" xmlns="http://www.w3.org/2000/svg" xmlns:xlink="http://www.w3.org/1999/xlink" x="0px" y="0px"
	 viewBox="0 0 183.4 210.6" style="enable-background:new 0 0 183.4 210.6;" xml:space="preserve">
<style type="text/css">
	.st0{fill:#98813C;}
	.st1{fill:#016F5C;}
	.st2{fill:#CFC9C3;}
	.st3{fill:#99803D;}
	.st4{fill:#FFFFFF;}
	.st5{fill:#805622;}
	.st6{fill:#CFCAC4;}
	.st7{fill-rule:evenodd;clip-rule:evenodd;fill:#FFFFFF;}
</style>
<g id="XMLID_7_">
	<g id="XMLID_4337_">
		<g id="XMLID_4422_">
			<path id="XMLID_4540_" class="st3" d="M108.6,114.4c-1.7-1.8-3.3-3.5-4.4-5.7c-1.2-2.5-1.7-5.3-2-8c-0.5-4.9-0.5-9.9-1-14.8
				c-0.5-5.2-0.4-10.5-1.5-15.6c0,0,0,0,0-0.1c0.2,0.1,0.5,0.1,0.8,0c0.5-0.2,0.5-0.8,0.5-1.3c0-0.3-0.1-0.6-0.2-0.9
				c-0.2-1.6-1.1-4.4-2.3-5.4c-1.8-1.6-13.2-1.3-15-0.4c-1.8,1-2.3,4.5-2.7,6.3c0,0.2,0,0.3,0.1,0.5c0,0.4,0.1,0.9,0.5,1.1
				c0.3,0.2,0.5,0.1,0.8,0c0,0,0.1,0.1,0.1,0.1c-1.1,4.9-1,10-1.4,14.9c-0.4,4.9-0.6,9.9-1,14.8c-0.2,2.5-0.6,4.9-1.4,7.2
				c-0.9,2.7-2.6,4.7-4.6,6.7c-6.5,6.7-4.4,12.4-4.4,18.5c0,3.8,0,7.7,0,11.5c0,1.8,0,3.7-0.1,5.5c0,1.4-0.3,2.9,0.2,4.2
				c0.1,11.6,0.5,23.1,0.2,34.7c-0.3,1.2,0.2,3,0.7,3.7c1.1,1.7,3.3,2.6,5.2,3.2c4.9,1.5,10.3,1.1,15.3,1.1c5,0,10.1,0.2,15-1
				c2-0.5,4.2-1.4,5.4-3.1c0.6-0.8,1.3-2.8,0.9-4c-0.3-11.7,0.1-23.4,0.2-35.1c0.2-0.8,0.2-1.6,0.2-2.5c0-1.7,0-3.4,0-5.1
				c-0.1-3.9,0-7.7,0-11.6C112.6,125.4,114.4,120.6,108.6,114.4z M75.7,190.1c-2.5-0.8-3.2-2.6-3.4-4.6c0.1-6.9,0-13.9-0.1-20.8
				c0.3-0.1,0.6-0.3,1-0.4c1.2-0.3,2.5-0.2,3.6,0.2c1.5,0.5,1,2.4,1.2,3.6c0.2,1.3,0.6,2.5,1.2,3.7c2.1,4.4,6.9,7.2,11.7,7.3
				c4.7,0.1,9.2-2.9,11.5-6.8c0.7-1.1,1.1-2.4,1.4-3.6c0.3-1.1-0.1-3.2,0.8-3.8c1-0.7,2.5-0.6,3.5-0.4c0.7,0.1,1.2,0.4,1.8,0.6
				c-0.1,7-0.2,14-0.1,21c-0.3,1.2-0.6,2.4-1.5,3.3c-1.3,1.3-3.7,1.5-5.5,1.8c-4.7,0.7-9.5,0.6-14.3,0.6
				C84.2,191.8,79.9,191.4,75.7,190.1z M84.8,192.8c-1.7-0.1-3.4-0.2-5.2-0.5c-1-0.2-2-0.4-3-0.7c1,0.3,2.1,0.4,3.1,0.6
				C81.5,192.5,83.2,192.7,84.8,192.8z M84.4,70c0.2,0.3,0.5,0.6,0.8,0.6c0.4,0.1,0.8-0.2,1-0.5c0,0,0.1,0,0.1,0
				c0.3,0.4,0.7,0.6,1.2,0.7c0.2,0,0.4-0.1,0.4-0.3c0,0,0-0.1,0.1-0.1c0.1,0,0.1,0,0.2,0c0.3,0.3,0.6,0.5,1,0.5
				c0.2,0,0.5-0.2,0.7-0.3c0.1,0,0.2,0,0.3-0.1c0.2,0.3,0.5,0.5,0.8,0.5c0.1,0,0.1,0,0.2,0c0.1,0,0.1,0,0.2,0c0.4,0,0.6-0.2,0.8-0.5
				c0.1,0.1,0.2,0.1,0.3,0.1c0.2,0.2,0.4,0.3,0.7,0.3c0.4,0.1,0.8-0.2,1-0.5c0.1,0,0.1,0,0.2,0c0,0,0.1,0.1,0.1,0.1
				c0,0.2,0.2,0.3,0.4,0.3c0.5,0,0.9-0.3,1.1-0.7c0,0,0.1,0,0.1,0c0.3,0.3,0.6,0.6,1,0.5c0.3-0.1,0.6-0.3,0.8-0.6
				c0.3,0.2,0.6,0.3,0.9,0.4c-0.1,3.2,0.1,6.4,0.3,9.5c-2-0.2-4.1,0.2-6.1,0.4c-3.2,0.3-6.3,0.2-9.3-1.1c-0.1,0-0.1,0-0.2,0
				c0.2-2.9,0.3-5.8,0.2-8.7C83.8,70.4,84.1,70.2,84.4,70z M83.2,80.4c2.4,1,4.9,1.3,7.5,1.2c2.6-0.1,5.5-0.4,8.2-0.9
				c0,0.6,0.1,1.1,0.1,1.7c-2.8,0.4-5.6,0.9-8.5,1.1c-1.5,0.1-3,0-4.4-0.4c-1.1-0.3-2-0.8-3-1.1C83.2,81.5,83.2,81,83.2,80.4z
				 M91.2,85.1c2.4-0.2,5.7-0.3,7.9-1.6c0,0.4,0.1,0.8,0.1,1.2c-0.2,0-0.3,0.1-0.5,0.1c-0.4,0.1-0.9,0.2-1.2,0.4
				c-0.2,0.1-0.1,0.5,0.1,0.5c0.4,0,0.8-0.1,1.2-0.1c0.2,0,0.4,0,0.5-0.1c0,0.1,0,0.3,0,0.4c0,0.3,0,0.6,0.1,0.9
				c-0.3-0.1-0.6,0.1-0.9,0.2c-0.5,0.2-1.1,0.3-1.6,0.4c-0.4,0.1-0.2,0.5,0.1,0.6c0.5,0.1,1.1,0,1.6-0.1c0.3-0.1,0.6-0.1,0.9-0.3
				c0,0.5,0.1,0.9,0.1,1.4c-0.3,0.1-0.6,0.2-0.9,0.3c-0.4,0.1-0.9,0.1-1.3,0.2c-0.4,0-0.5,0.6-0.1,0.7c0.7,0.2,1.6,0.1,2.3-0.2
				c0,0.3,0,0.6,0,0.9c-0.2,0.1-0.4,0.1-0.7,0.2c-0.8,0.2-1.6,0.5-2.4,0.7c-0.1,0-0.1,0.3,0,0.3c0.7,0.1,1.4,0,2.1-0.1
				c0.4-0.1,0.7-0.2,1.1-0.3c0,0.4,0,0.7,0.1,1.1c-0.4,0-0.8,0.1-1.2,0.2c-1.1,0.2-2.1,0.5-3.2,0.7c0,0-0.1,0.1,0,0.1
				c0.9,0.2,1.7,0.2,2.7,0.1c0.5-0.1,1.2-0.1,1.7-0.2c0,0.2,0,0.4,0,0.6c0,0,0,0-0.1,0c-1.3,0.3-2.5,0.6-3.9,0.8c-1,0.1-2,0.1-3,0.2
				c-0.2,0-0.1,0.3,0,0.3c2.2,0.6,4.9,0.3,7-0.5c0,0.5,0.1,1,0.1,1.5c-0.8,0-1.6,0.3-2.4,0.4c-0.9,0.1-1.8,0-2.7,0.3
				c-0.2,0.1-0.2,0.3,0,0.4c1.3,0.4,3.6,0.6,5-0.1c-2.1,1.6-5.1,1-7.7,0.9c-1.8,0-3.5,0-5.3-0.1c-0.4,0-0.7-0.1-1.1-0.1
				c1.6,0,3.3-0.1,4.8-0.4c0.3-0.1,0.3-0.5,0-0.5c-2.8-0.6-5.6-0.3-8.3-0.9c0,0,0,0,0,0c0.6,0.1,1.3,0.1,1.8,0.1
				c1,0.1,2.1,0.3,3.2,0.2c0.2,0,0.3-0.2,0.1-0.3c-0.7-0.8-1.8-0.9-2.8-1c-0.7-0.1-1.5-0.3-2.3-0.3c0-0.3,0-0.6,0-0.9
				c1.2,0.2,2.4,0.5,3.6,0.1c0.2-0.1,0.2-0.3,0-0.4c-1.2-0.3-2.3-0.9-3.6-1.1c0-0.3,0-0.5,0-0.8c0.8,0.2,1.7,0.3,2.4,0.1
				c0.3-0.1,0.3-0.4,0.1-0.6c-0.6-0.4-1.6-0.8-2.4-0.8c0-0.4,0-0.7,0.1-1.1c0.7,0.2,1.4,0.3,2,0.3c0.2,0,0.4-0.3,0.2-0.5
				c-0.6-0.5-1.4-0.9-2.2-1.1c0-0.3,0-0.5,0.1-0.8c0.5,0,1-0.1,1.4-0.2c0.2,0,0.2-0.4,0-0.4c-0.4-0.1-0.9-0.3-1.4-0.4
				c0-0.1,0-0.2,0-0.3c0.2,0.1,0.5,0.1,0.7,0.2c0.4,0.1,0.8,0.2,1.3,0.3c0.3,0,0.5-0.5,0.3-0.7c-0.3-0.3-0.7-0.4-1.1-0.6
				c-0.3-0.1-0.7-0.3-1-0.3c0-0.4,0.1-0.8,0.1-1.2C85.6,84.9,88.2,85.3,91.2,85.1z M82.1,98.9c3,1.8,7.8,1,10.9,1
				c1.8,0,5.6,0.3,7.1-1.3c0.1,0.7,0.1,1.4,0.2,2.1c0,0.1,0,0.2,0,0.3c-6.2,1.9-12.1,0.7-18.3-0.4C82,100,82,99.4,82.1,98.9z
				 M84.2,64c1.3-0.9,12.2-0.7,13.3-0.1c1.2,0.6,1.6,2.5,2,3.8c0,0,0,0,0,0c0.1,0.3,0.1,0.6,0.2,0.9c0,0.2,0,0.3,0,0.4
				c0,0,0,0-0.1,0c0,0-0.1-0.1-0.1-0.1c-0.1-0.6-0.5-1.2-1.1-1.4c-0.1,0-0.1,0.1-0.1,0.1c0.1,0.4,0.2,0.7,0.3,1c0.1,0.3,0,0.6,0,0.9
				c-0.1-0.1-0.2-0.1-0.2-0.2c-0.1-0.8-0.3-1.6-0.9-2.2c-0.1-0.1-0.3,0-0.3,0.1c0,0.4,0.1,0.8,0.1,1.2c0,0.2,0,0.5,0,0.7
				c0,0-0.1,0.1-0.1,0.1c0,0.1-0.4,0.7-0.5,0.6c-0.2-0.1-0.3-0.3-0.4-0.5c0-0.5-0.1-1.2-0.4-1.5c-0.1-0.1-0.3-0.1-0.4,0.1
				c-0.1,0.3-0.1,0.5-0.1,0.8c0,0.1,0,0.2,0,0.3c-0.1,0.1-0.2,0.3-0.1,0.5c-0.2,0.2-0.3,0.4-0.6,0.5c-0.1-0.2-0.2-0.3-0.3-0.4
				c0-0.4,0.1-0.8-0.2-1.2c-0.1-0.1-0.2-0.1-0.3,0c-0.2,0.3-0.3,0.7-0.3,1c0,0,0,0,0,0c-0.1,0.1-0.5,0.7-0.7,0.6
				c-0.1-0.1-0.3-0.2-0.4-0.3c-0.1-0.6-0.2-1.6-0.8-1.7c-0.1,0-0.2,0-0.2,0.1c-0.1,0.3,0.1,0.6,0.1,0.9c0,0.1,0,0.1,0,0.2
				c-0.2-0.1-0.5,0-0.5,0.3c0,0.2-0.1,0.4-0.2,0.5c-0.1-0.2-0.1-0.4-0.2-0.5c-0.1-0.3-0.3-0.3-0.5-0.3c0-0.1,0-0.1,0-0.2
				c0-0.3,0.2-0.6,0.1-0.9c0-0.1-0.1-0.1-0.2-0.1c-0.6,0.1-0.7,1-0.8,1.7c-0.1,0.1-0.2,0.2-0.3,0.3c-0.2,0.2-0.6-0.4-0.7-0.6
				c0,0,0,0,0,0c0-0.4-0.1-0.7-0.3-1c-0.1-0.1-0.2-0.1-0.3,0c-0.2,0.4-0.1,0.8-0.2,1.2c-0.1,0.1-0.2,0.3-0.3,0.4
				c-0.2-0.1-0.4-0.3-0.6-0.5c0.1-0.2,0.1-0.4-0.1-0.5c0-0.1,0-0.1,0-0.2c0-0.3,0-0.6-0.1-0.9c0-0.2-0.2-0.2-0.4-0.1
				c-0.3,0.4-0.4,1-0.4,1.5c-0.1,0.2-0.2,0.4-0.4,0.5c0,0-0.5-0.5-0.5-0.6c0-0.1,0-0.1-0.1-0.1c0-0.2,0-0.4,0-0.6
				c0-0.4,0.1-0.8,0.1-1.2c0-0.1-0.2-0.2-0.3-0.1c-0.6,0.6-0.8,1.4-0.9,2.2c-0.1,0-0.1,0.1-0.2,0.1c0,0,0-0.1,0-0.1
				c0-0.1,0-0.1-0.1-0.2c0-0.2,0-0.4,0-0.5c0.1-0.4,0.2-0.7,0.3-1c0-0.1,0-0.1-0.1-0.1c-0.6,0.2-1,0.8-1.1,1.4c0,0-0.1,0-0.1,0.1
				c0,0,0,0,0,0c0,0,0-0.1,0-0.1c0,0,0,0,0,0C82.7,67.2,82.8,65,84.2,64z M77.6,113.1c2.7-3.3,3.7-7.4,4.2-11.5
				c5.8,2,12.7,2.3,18.6,0.6c0.5,3.9,1.6,7.9,4.1,11c1.6,1.9,3.4,3.5,4.6,5.7c1,1.9,1.4,4.9,1.4,7.2c0,0.1,0,0.3,0,0.4
				c0,0-0.1,0.1,0,0.2c0,0,0,0.1,0,0.2c-0.2,2.7-0.2,5.3-0.3,8c0,1.1,0,2.1,0,3.2c-0.6,0.2-1.1,0.5-1.6,0.7
				c-1.2,0.3-2.5,0.2-3.6-0.2c-1.5-0.5-1-2.4-1.2-3.6c-0.2-1.3-0.6-2.5-1.2-3.7c-2.1-4.4-7.1-3.5-11.9-3.6c-4.7-0.1-9-0.8-11.4,3.1
				c-0.7,1.1-1.1,2.4-1.4,3.6c-0.3,1.1,0.1,3.2-0.8,3.8c-1,0.7-2.5,0.6-3.5,0.4c-0.6-0.1-1.1-0.4-1.6-0.6c0-1,0-2.1,0-3.1
				c0-2.7-0.1-5.3-0.3-8c0-0.1,0-0.1,0-0.2c0-0.1,0-0.1,0-0.2c0-0.1,0-0.2,0-0.3c0-2.2,0.6-4.4,1.1-6.5
				C73.4,117,76,115.1,77.6,113.1z M103.6,194c-4.1,0.8-8.4,0.6-12.5,0.6c-4.2,0-8.4,0.1-12.5-0.6c-1.9-0.4-4-0.9-5.5-2.2
				c-0.3-0.3-0.6-0.6-0.8-1c1.7,1.3,4.3,2,5.7,2.3c2,0.4,4,0.5,6,0.5c1.7,0,3.8,0.3,5.4-0.3c0.1,0,0.1-0.1,0-0.1
				c-0.2-0.1-0.3-0.1-0.5-0.2c5.2,0.1,10.5,0,15.6-1c2.8-0.6,4.8-1.7,5.5-4c0,0.5,0,0.9,0,1.4c0,0.2,0.1,0.3,0.1,0.4
				c-3.4,2.3-8.1,2.5-12,3.2c-0.1,0-0.1,0.2,0,0.2c3.9-0.3,8-0.1,11.5-1.9c-0.1,0.2-0.3,0.4-0.5,0.5
				C107.7,193.2,105.4,193.6,103.6,194z"/>
			<path id="XMLID_4539_" class="st3" d="M84.8,73.2c-0.3,0.1-0.5,0.2-0.8,0.5c-0.2,0.2-0.2,0.5,0.1,0.6c0.9,0.4,0.8,0.8,0.6,1.7
				c-0.1,0.7-0.2,1.4,0,2.1c0.1,0.3,0.6,0.3,0.6-0.1c0.1-1,0.2-2,0.2-3c0-0.5-0.2-0.8-0.6-1.1c0.4-0.1,0.9-0.1,1.3-0.2
				c0.3-0.1,0.5-0.6,0.1-0.8c-0.2-0.1-0.3-0.1-0.5-0.2c0.8-0.1,1.6-0.3,2.4-0.6c0.1,0,0.2-0.3,0-0.3c-1.4-0.2-2.7-0.1-4.1-0.4
				c-0.6-0.1-1,0.6-0.6,1C84.1,72.8,84.5,73,84.8,73.2z"/>
			<path id="XMLID_4536_" class="st3" d="M81,113.4c0.2-0.3,0.2-0.5,0.3-0.7c0.9-0.3,1.5-1,2-1.9c0.1-0.2,0.2-0.7,0.3-1.3
				c0.5,0.1,1,0.1,1.4-0.3c0.2-0.1,0.2-0.3,0-0.4c-0.4-0.3-0.8-0.4-1.2-0.5c0-0.3,0.1-0.5,0.1-0.5c0.1,0,0.2-0.1,0.3-0.2
				c0.3,0.2,0.7,0.4,1,0.5c0.8,0.3,1.4,0.2,2.2,0.2c0.2,0,0.3-0.3,0.1-0.4c-0.6-0.2-1.1-0.5-1.6-0.8c-0.4-0.2-0.7-0.4-1-0.7
				c0-0.1,0-0.1-0.1-0.2c0,0,0,0,0,0c0.8,0.2,1.6,0.4,2.4,0.7c1.1,0.3,1.9,0.3,3,0.1c0.2,0,0.1-0.3,0-0.3c-0.8-0.2-1.6-0.5-2.4-0.9
				c1,0.1,2,0.2,2.9-0.1c0.2-0.1,0.2-0.4,0-0.4c-2.5-0.7-5.3-1.9-7.9-1.7c-0.4,0-0.7,0.4-0.6,0.8c0.2,0.5,0.4,0.9,0.7,1.3
				c-0.5,0-0.7,0.7-0.4,1.1c0.1,0.1,0.1,0.1,0.2,0.2c-0.6,0.4-1,1-0.9,1.7c0.2,1-0.9,1.6-1.3,2.5c-0.3,0.7-0.5,1.5-0.2,2.2
				C80.4,113.6,80.8,113.7,81,113.4z M82,110.8c-0.1,0.2-0.2,0.3-0.4,0.5C81.7,111.1,81.9,110.9,82,110.8z"/>
			<path id="XMLID_4448_" class="st3" d="M78.3,115.6c0.4,0.1,0.7,0,1.1,0c0.4,0,0.6-0.3,0.6-0.7c0.2-0.1,0.4-0.2,0.7-0.3
				c0.1,0,0.2-0.2,0.1-0.3c-0.5-0.4-1.1-0.5-1.7-0.3c-0.3,0.1-0.4,0.3-0.4,0.5c-0.1,0-0.2,0.1-0.3,0.2
				C77.9,114.9,77.9,115.4,78.3,115.6z"/>
			<path id="XMLID_4447_" class="st3" d="M76.5,118.2c0.3-0.1,0.4-0.4,0.7-0.5c0.3-0.2,0.5-0.4,0.8-0.7c0,0,0.1-0.1,0.1-0.1
				c0.1,0,0.1,0,0.2,0c0.8,0,0.8-1.2,0-1.2c-0.2,0-0.3,0.1-0.4,0.2c-0.3-0.1-0.6,0-0.8,0.3c-0.1,0.2,0,0.6,0.3,0.6
				c0.1,0,0.2,0,0.2,0c-0.2,0.1-0.3,0.3-0.5,0.4c-0.2,0.1-0.5,0.2-0.8,0.2C75.6,117.6,76,118.5,76.5,118.2z"/>
			<path id="XMLID_4446_" class="st3" d="M75.7,119.6c0.1,0,0.1-0.1,0.2-0.1c0.1,0,0.1-0.1,0.1-0.1c0.1-0.1,0.1-0.1,0,0
				c0.3-0.1,0.3-0.5,0-0.5c-0.2,0-0.3-0.2-0.5-0.1c-0.2,0.1-0.3,0.2-0.4,0.4C75,119.4,75.4,119.7,75.7,119.6z"/>
			<path id="XMLID_4445_" class="st3" d="M75.3,121.1C75.2,121.2,75.2,121.2,75.3,121.1c0.1,0,0.2-0.1,0.2-0.2
				c0.1-0.1,0-0.3-0.1-0.4c0,0,0,0-0.1-0.1c-0.1-0.2-0.4-0.2-0.6-0.1c-0.1,0.1-0.2,0.1-0.2,0.2C74.3,121,74.9,121.4,75.3,121.1z"/>
			<path id="XMLID_4444_" class="st3" d="M74.3,123.5c0.1,0.4,0.7,0.4,0.8,0c0,0,0-0.1,0-0.1C75.4,122.6,74,122.6,74.3,123.5
				C74.2,123.4,74.2,123.4,74.3,123.5z"/>
			<path id="XMLID_4443_" class="st3" d="M74.4,126.1c0.1-0.2,0.1-0.4,0.1-0.6c-0.1-0.2-0.3-0.2-0.3,0c-0.1,0.2-0.1,0.4,0.1,0.6
				C74.2,126.2,74.3,126.2,74.4,126.1z"/>
			<path id="XMLID_4442_" class="st3" d="M74.3,127.7c-0.1,0-0.2,0-0.2,0.2c0,0,0,0,0,0c0,0,0,0.1,0,0.1c0,0,0,0,0,0
				c0,0.3,0.4,0.3,0.4,0c0,0,0,0,0,0c0,0,0-0.1,0-0.1c0,0,0,0,0,0C74.5,127.8,74.4,127.7,74.3,127.7z"/>
			<path id="XMLID_4441_" class="st3" d="M74.1,131.3c0.2-0.2,0.3-0.6,0.4-0.9c0.1-0.4,0.1-0.8,0.1-1.1c0-0.2-0.3-0.3-0.4-0.1
				c-0.1,0.3-0.2,0.6-0.3,0.9c0,0.2,0,0.3,0,0.5c0,0.2-0.1,0.4-0.1,0.6C73.9,131.3,74,131.4,74.1,131.3z"/>
			<path id="XMLID_4440_" class="st3" d="M96,105.3c0.3,0,0.6-0.1,0.9-0.1c-0.8,0.2-1.6,0.2-2.4,0.4c-0.2,0-0.2,0.3,0,0.3
				c0.8,0.4,1.7,0.3,2.5,0.2c0.5-0.1,1.9-0.1,2.2-0.7c0.1-0.2,0.1-0.3-0.1-0.5c0,0,0.1,0,0.2,0c0.5-0.1,0.4-0.7,0-0.9
				c-0.8-0.3-2.2,0.1-3.1,0.2c-1.2,0.2-2.9-0.1-3.9,0.6c0,0,0,0,0,0.1C93.3,105.8,94.9,105.5,96,105.3z"/>
			<path id="XMLID_4439_" class="st3" d="M99.3,107c0.4-0.2,0.4-0.8-0.1-0.8c-0.5,0-0.9,0.1-1.4,0.1c-0.2,0-0.8-0.1-0.8,0.3
				c0,0,0,0,0,0.1c0,0.1,0.1,0.2,0.2,0.3C97.7,107.3,98.7,107.3,99.3,107z"/>
			<path id="XMLID_4438_" class="st3" d="M98.9,108c-0.5,0-1,0.1-1.4,0.2c-0.2,0-0.2,0.4,0,0.5c0.5,0.1,0.9,0.1,1.4,0.1
				c0.3,0,0.8-0.1,0.8-0.5C99.8,107.9,99.2,108,98.9,108z"/>
			<path id="XMLID_4437_" class="st3" d="M98.8,109.4c-0.2,0-0.2,0.3,0,0.4c0.3,0.1,0.6,0.1,0.9,0.1c0.3,0,0.6,0.1,0.8-0.1
				c0.1-0.1,0.1-0.2,0-0.3c-0.2-0.2-0.5-0.1-0.8-0.1C99.4,109.4,99.1,109.4,98.8,109.4z"/>
			<path id="XMLID_4436_" class="st3" d="M100.5,111.5c0.3,0,0.5,0,0.7-0.2c0.1-0.1,0.1-0.2,0-0.3c-0.2-0.2-0.5-0.2-0.7-0.2
				C100.1,110.9,100.1,111.5,100.5,111.5z"/>
			<path id="XMLID_4435_" class="st3" d="M102.9,113.2c0.1,0,0.2-0.2,0.1-0.3c-0.2-0.4-0.6-0.3-1-0.5c-0.3-0.2-0.5,0.2-0.3,0.4
				C102,113.1,102.5,113.4,102.9,113.2z"/>
			<path id="XMLID_4434_" class="st3" d="M103.9,115.7c0.1,0,0.1,0,0.2,0c0.3-0.1,0.3-0.5,0-0.6c-0.1,0-0.1,0-0.2,0
				C103.5,115,103.5,115.8,103.9,115.7z"/>
			<path id="XMLID_4433_" class="st3" d="M107.1,134.6c0.1,0.5,0.9,0.5,0.9,0c0.4-2.9,0.2-6.1,0.1-9c-0.1-2.6-0.5-5.7-2.2-7.7
				c-0.1-0.1-0.2,0-0.2,0.1c0.5,2.8,1.1,5.4,1.2,8.3C107.1,129.1,106.6,132,107.1,134.6z"/>
			<path id="XMLID_4432_" class="st3" d="M74.5,169.6c0.4-0.5,0.2-1.2,0.2-1.7c0-0.7,0-1.3-0.1-1.9c0-0.1-0.3-0.1-0.3,0
				c-0.1,0.6-0.2,1.3-0.3,1.9c-0.1,0.6-0.3,1.3,0.1,1.7C74.2,169.7,74.4,169.7,74.5,169.6z"/>
			<path id="XMLID_4431_" class="st3" d="M101.1,189.6c2.6,0.5,5.1-0.2,7.4-1.5c0.5-0.3,0.2-0.9-0.3-0.9c-0.3,0-0.6,0-0.9,0
				c0.3-0.2,0.7-0.4,1-0.7c0.3-0.2,0.2-0.7-0.1-0.8c0,0,0,0,0,0c0.3-0.6,0.1-1.5,0.5-2.3c0.1-0.2,0.1-0.4-0.1-0.6
				c-0.9-1.2-0.9-1.9-0.9-3.3c0-0.1-0.1-0.1-0.1,0c-0.6,1.4-0.6,1.4-0.1,2.9c0.1,0.4-0.1,2.9-0.5,2.9c-0.6,0-0.7,0.9-0.1,1
				c0,0,0,0,0,0c-0.5,0.2-1,0.3-1.6,0.4c-0.2,0-0.4,0.3-0.4,0.5c0,0,0,0.1,0,0.1c0,0.2,0.2,0.4,0.4,0.5c0.3,0.1,0.7,0.2,1,0.2
				c-1.7,0.6-3.3,0.8-5.1,1.2C100.9,189.2,100.9,189.5,101.1,189.6z"/>
			<path id="XMLID_4430_" class="st3" d="M107.6,177.1c0.1,0.4,0.6,0.2,0.6-0.1c0-0.3,0-0.5,0-0.8c0-0.2-0.1-0.4-0.3-0.4
				c-0.1,0-0.2,0-0.2,0c-0.2,0.1-0.4,0.3-0.3,0.6C107.4,176.6,107.6,176.9,107.6,177.1z"/>
			<path id="XMLID_4429_" class="st3" d="M107.9,173.4C107.9,173.4,107.9,173.4,107.9,173.4c0.3,0,0.4-0.4,0.1-0.4c0,0,0,0,0,0
				c-0.1-0.2-0.5,0-0.4,0.2c0,0,0,0,0,0C107.6,173.3,107.8,173.4,107.9,173.4z"/>
			<path id="XMLID_4428_" class="st3" d="M108,171.5c0,0.1,0,0.1,0,0.2c0,0.1,0.2,0.1,0.2,0c0-0.1,0-0.1,0-0.2
				C108.1,171.5,108,171.5,108,171.5z"/>
			<path id="XMLID_4427_" class="st3" d="M107.8,168.4c0,0.3,0.5,0.3,0.5,0c0,0,0,0,0,0C108.7,167.9,107.5,167.9,107.8,168.4
				C107.8,168.4,107.8,168.4,107.8,168.4z"/>
			<path id="XMLID_4426_" class="st3" d="M107.9,166.8c0.3,0,0.3-0.4,0-0.4C107.7,166.4,107.7,166.8,107.9,166.8z"/>
			<path id="XMLID_4425_" class="st3" d="M79,188.4c-0.9-0.1-1.7-0.4-2.4-0.8c1.3,0,2.6-0.1,3-0.3c0.1,0,0.1-0.2,0-0.2
				c-1.2-0.4-2.6-0.3-3.9-0.6c-0.1,0-0.3-0.1-0.6-0.3c0.7,0,1.5-0.1,2.1-0.3c0.1,0,0.1-0.2,0-0.3c-0.6-0.2-1.3-0.2-2-0.3
				c0,0,0.1,0,0.1,0c0.1,0,0.2-0.2,0.1-0.3c-0.3-0.3-0.9-0.7-1.4-0.6c0-0.1,0-0.1,0-0.2c0.2,0.2,0.7,0.2,1,0.2c0.2,0,0.2-0.3,0-0.4
				c-0.2-0.1-0.4-0.3-0.6-0.4c-0.1-0.1-0.3-0.1-0.4,0c0-0.3,0-0.5,0-0.8c0.1,0.1,0.3,0.1,0.4,0.1c0.2,0.1,0.4-0.2,0.2-0.4
				c-0.1-0.1-0.2-0.2-0.4-0.4c-0.1-0.1-0.1-0.1-0.2,0c0-0.1,0-0.2,0-0.3c0.1,0.1,0.2,0.1,0.3,0.1c0.2,0,0.2-0.3,0-0.3c0,0,0,0,0,0.1
				c0-0.1-0.1-0.1-0.1-0.2c0,0-0.1,0-0.1,0c0,0,0,0,0,0c0-0.3,0-0.5,0.1-0.7c0.1-3,0.3-6.2,0-9.1c0-0.1-0.2-0.2-0.2,0
				c-0.5,3.4-0.6,6.9-0.8,10.4c-0.1,1.7-0.5,5,1.3,6.1c0.2,0.1,0.4,0.1,0.5,0c0.8,0.5,1.9,0.8,2.8,0.9c1.6,0.3,3.3,0.6,4.9,0.4
				c0.1,0,0.1-0.1,0.1-0.2C81.6,188.7,80.3,188.6,79,188.4z"/>
			<path id="XMLID_4424_" class="st3" d="M90.9,180.6c-1.8-0.6-4-0.4-5.9-0.9c-2.6-0.7-4.6-2.2-5.9-4.5c0,0-0.1,0-0.1,0
				c0.6,2.2,2.3,3.7,4.4,4.6c2,0.8,5.3,1.8,7.4,1C91.1,180.8,91.1,180.6,90.9,180.6z"/>
			<path id="XMLID_4423_" class="st3" d="M93.9,181c0.4,0,0.9,0,1.2-0.3c0.1-0.1,0-0.2-0.1-0.3c-0.4-0.1-0.8,0-1.3,0
				c-0.4,0-0.8,0-1.2,0.1c-0.1,0-0.1,0.2,0,0.3C92.9,181,93.4,180.9,93.9,181z"/>
		</g>
		<g id="XMLID_4380_">
			<path id="XMLID_4411_" class="st3" d="M146.8,109.8c-1.6-1.7-3.1-3.2-4.1-5.3c-1.1-2.3-1.5-4.9-1.8-7.4
				c-0.5-4.5-0.5-9.1-0.9-13.6c-0.4-4.8-0.3-9.7-1.4-14.4c0,0,0,0,0-0.1c0.2,0.1,0.5,0.1,0.7,0c0.4-0.2,0.5-0.8,0.5-1.2
				c0-0.3-0.1-0.6-0.2-0.8c-0.2-1.4-1-4-2.1-5c-1.7-1.4-12.2-1.2-13.8-0.3c-1.7,0.9-2.1,4.1-2.5,5.8c0,0.2,0,0.3,0.1,0.4
				c0,0.4,0.1,0.8,0.5,1c0.2,0.1,0.5,0.1,0.7,0c0,0,0.1,0.1,0.1,0.1c-1,4.5-1,9.2-1.3,13.8c-0.4,4.6-0.5,9.1-0.9,13.7
				c-0.2,2.3-0.6,4.5-1.3,6.7c-0.8,2.5-2.4,4.3-4.2,6.2c-6,6.2-4,11.4-4.1,17c0,3.5,0,7.1,0,10.6c0,1.7,0,3.4-0.1,5.1
				c0,1.3-0.3,2.7,0.2,3.9c0.1,10.7,0.4,21.3,0.2,32c-0.3,1.1,0.2,2.7,0.6,3.4c1,1.6,3.1,2.4,4.8,2.9c4.5,1.4,9.5,1.1,14.1,1
				c4.6,0,9.3,0.2,13.8-1c1.8-0.4,3.9-1.3,5-2.8c0.5-0.7,1.2-2.6,0.8-3.7c-0.3-10.8,0.1-21.6,0.2-32.4c0.2-0.7,0.1-1.5,0.2-2.3
				c0-1.6,0-3.2,0-4.7c-0.1-3.6,0-7.1,0-10.7C150.4,119.9,152.1,115.5,146.8,109.8z M116.5,179.5c-2.3-0.7-2.9-2.4-3.1-4.2
				c0.1-6.4,0-12.8-0.1-19.2c0.3-0.1,0.6-0.3,0.9-0.4c1.1-0.3,2.3-0.2,3.3,0.2c1.4,0.5,0.9,2.2,1.1,3.3c0.2,1.2,0.6,2.3,1.1,3.4
				c1.9,4.1,6.4,6.6,10.8,6.7c4.4,0.1,8.5-2.6,10.6-6.3c0.6-1,1-2.2,1.3-3.3c0.2-1-0.1-2.9,0.8-3.5c0.9-0.6,2.3-0.5,3.3-0.3
				c0.6,0.1,1.1,0.4,1.7,0.6c-0.1,6.4-0.2,12.9-0.1,19.3c-0.3,1.1-0.5,2.2-1.4,3.1c-1.2,1.2-3.4,1.4-5,1.7
				c-4.3,0.7-8.8,0.6-13.1,0.6C124.3,181.1,120.3,180.7,116.5,179.5z M124.9,182c-1.6-0.1-3.2-0.2-4.7-0.5c-0.9-0.2-1.9-0.4-2.8-0.7
				c0.9,0.2,1.9,0.4,2.8,0.6C121.8,181.7,123.3,181.9,124.9,182z M124.5,68.9c0.2,0.3,0.5,0.5,0.7,0.6c0.4,0.1,0.7-0.1,0.9-0.4
				c0,0,0.1,0,0.1,0c0.3,0.3,0.6,0.6,1.1,0.6c0.1,0,0.3-0.1,0.4-0.3c0,0,0-0.1,0-0.1c0.1,0,0.1,0,0.2,0c0.2,0.3,0.6,0.5,0.9,0.4
				c0.2,0,0.4-0.2,0.6-0.3c0.1,0,0.2,0,0.3-0.1c0.2,0.3,0.4,0.5,0.8,0.5c0.1,0,0.1,0,0.2,0c0,0,0.1,0,0.2,0c0.3,0,0.6-0.2,0.8-0.5
				c0.1,0.1,0.2,0.1,0.2,0.1c0.2,0.1,0.4,0.3,0.6,0.3c0.4,0.1,0.7-0.2,1-0.4c0.1,0,0.1,0,0.2,0c0,0,0,0.1,0.1,0.1
				c0,0.1,0.2,0.3,0.4,0.3c0.4,0,0.8-0.3,1.1-0.6c0,0,0.1,0,0.1,0c0.2,0.3,0.6,0.5,0.9,0.4c0.2-0.1,0.5-0.3,0.7-0.6
				c0.2,0.2,0.6,0.3,0.8,0.4c-0.1,2.9,0.1,5.8,0.3,8.8c-1.8-0.2-3.8,0.2-5.6,0.3c-2.9,0.3-5.8,0.2-8.6-1c-0.1,0-0.1,0-0.2,0
				c0.2-2.7,0.3-5.4,0.2-8C124,69.3,124.2,69.1,124.5,68.9z M123.4,78.5c2.2,0.9,4.5,1.2,6.9,1.1c2.4-0.1,5.1-0.3,7.5-0.8
				c0,0.5,0.1,1.1,0.1,1.6c-2.6,0.4-5.2,0.9-7.9,1c-1.3,0.1-2.7,0-4.1-0.3c-1-0.3-1.8-0.8-2.7-1C123.4,79.5,123.4,79,123.4,78.5z
				 M130.7,82.8c2.2-0.2,5.2-0.3,7.3-1.5c0,0.4,0.1,0.8,0.1,1.1c-0.2,0-0.3,0.1-0.5,0.1c-0.4,0.1-0.8,0.2-1.1,0.3
				c-0.2,0.1-0.1,0.4,0.1,0.4c0.4,0,0.7-0.1,1.1-0.1c0.2,0,0.3,0,0.5-0.1c0,0.1,0,0.3,0,0.4c0,0.3,0,0.6,0.1,0.9
				c-0.3,0-0.5,0.1-0.8,0.1c-0.5,0.1-1,0.3-1.5,0.3c-0.3,0-0.2,0.5,0.1,0.5c0.5,0.1,1,0,1.5-0.1c0.3,0,0.6-0.1,0.8-0.3
				c0,0.4,0.1,0.9,0.1,1.3c-0.3,0.1-0.5,0.2-0.8,0.2c-0.4,0.1-0.8,0.1-1.2,0.1c-0.4,0-0.5,0.5-0.1,0.6c0.7,0.2,1.5,0.1,2.1-0.2
				c0,0.3,0,0.6,0,0.8c-0.2,0.1-0.4,0.1-0.6,0.2c-0.8,0.2-1.5,0.5-2.3,0.7c-0.1,0-0.1,0.2,0,0.3c0.7,0.1,1.3,0,1.9-0.1
				c0.3-0.1,0.6-0.2,1-0.2c0,0.3,0,0.7,0.1,1c-0.4,0-0.7,0.1-1.1,0.2c-1,0.2-1.9,0.4-2.9,0.6c0,0,0,0.1,0,0.1
				c0.9,0.2,1.6,0.2,2.5,0.1c0.5-0.1,1.1-0.1,1.6-0.2c0,0.2,0,0.4,0,0.6c0,0,0,0-0.1,0c-1.2,0.3-2.3,0.6-3.6,0.7
				c-0.9,0.1-1.9,0.1-2.8,0.2c-0.2,0-0.1,0.3,0,0.3c2,0.5,4.5,0.2,6.4-0.5c0,0.5,0,0.9,0.1,1.4c-0.7,0-1.5,0.3-2.2,0.3
				c-0.8,0.1-1.7,0-2.5,0.3c-0.2,0-0.2,0.3,0,0.4c1.2,0.3,3.3,0.5,4.6-0.1c-2,1.4-4.7,0.9-7.1,0.9c-1.6,0-3.2,0-4.9-0.1
				c-0.3,0-0.7-0.1-1-0.1c1.5,0,3-0.1,4.5-0.4c0.2,0,0.2-0.4,0-0.5c-2.5-0.5-5.1-0.3-7.7-0.8c0,0,0,0,0,0c0.5,0.1,1.2,0.1,1.7,0.1
				c1,0.1,2,0.3,2.9,0.2c0.2,0,0.3-0.2,0.1-0.3c-0.7-0.7-1.7-0.8-2.6-0.9c-0.7-0.1-1.4-0.3-2.1-0.3c0-0.3,0-0.5,0-0.8
				c1.1,0.2,2.2,0.5,3.3,0.1c0.2-0.1,0.2-0.3,0-0.3c-1.1-0.3-2.2-0.8-3.3-1c0-0.2,0-0.5,0-0.7c0.7,0.2,1.6,0.3,2.2,0.1
				c0.2-0.1,0.3-0.4,0.1-0.5c-0.6-0.4-1.4-0.7-2.2-0.8c0-0.3,0-0.7,0.1-1c0.6,0.2,1.3,0.3,1.9,0.2c0.2,0,0.4-0.3,0.2-0.5
				c-0.5-0.5-1.3-0.8-2-1c0-0.2,0-0.5,0-0.7c0.4,0,0.9-0.1,1.3-0.2c0.2,0,0.2-0.3,0-0.4c-0.4-0.1-0.8-0.3-1.3-0.4c0-0.1,0-0.2,0-0.2
				c0.2,0.1,0.4,0.1,0.6,0.2c0.4,0.1,0.8,0.2,1.2,0.2c0.3,0,0.5-0.4,0.3-0.6c-0.3-0.2-0.7-0.4-1-0.5c-0.3-0.1-0.6-0.2-0.9-0.3
				c0-0.4,0.1-0.7,0.1-1.1C125.6,82.7,128,83,130.7,82.8z M122.3,95.5c2.7,1.7,7.1,1,10,1c1.7,0,5.2,0.3,6.6-1.2
				c0,0.6,0.1,1.3,0.1,1.9c0,0.1,0,0.2,0,0.3c-5.7,1.8-11.1,0.7-16.9-0.3C122.3,96.6,122.3,96,122.3,95.5z M124.3,63.4
				c1.2-0.8,11.2-0.7,12.3-0.1c1.1,0.6,1.5,2.3,1.8,3.5c0,0,0,0,0,0c0,0.3,0.1,0.5,0.2,0.8c0,0.1,0,0.3,0,0.4c0,0,0,0,0,0
				c0,0-0.1,0-0.1-0.1c-0.1-0.6-0.4-1.1-1-1.3c-0.1,0-0.1,0-0.1,0.1c0.1,0.3,0.2,0.6,0.2,1c0.1,0.3,0,0.5,0,0.8
				c-0.1,0-0.1-0.1-0.2-0.1c-0.1-0.7-0.3-1.5-0.8-2c-0.1-0.1-0.2,0-0.2,0.1c0,0.4,0.1,0.7,0.1,1.1c0,0.2,0,0.4,0,0.6
				c0,0-0.1,0.1-0.1,0.1c0,0.1-0.4,0.6-0.5,0.6c-0.2-0.1-0.3-0.3-0.4-0.4c0-0.5-0.1-1.1-0.4-1.4c-0.1-0.1-0.3-0.1-0.3,0.1
				c-0.1,0.2-0.1,0.5-0.1,0.7c0,0.1,0,0.2,0,0.3c-0.1,0.1-0.2,0.3-0.1,0.4c-0.1,0.2-0.3,0.3-0.5,0.4c-0.1-0.1-0.2-0.3-0.3-0.4
				c0-0.4,0.1-0.8-0.1-1.1c-0.1-0.1-0.2-0.1-0.3,0c-0.2,0.3-0.3,0.6-0.3,0.9c0,0,0,0,0,0c-0.1,0.1-0.5,0.7-0.6,0.6
				c-0.1-0.1-0.2-0.2-0.4-0.3c-0.1-0.6-0.2-1.4-0.8-1.5c-0.1,0-0.2,0-0.2,0.1c-0.1,0.3,0.1,0.6,0.1,0.9c0,0,0,0.1,0,0.1
				c-0.2-0.1-0.4,0-0.5,0.3c0,0.1-0.1,0.4-0.2,0.5c-0.1-0.1-0.1-0.4-0.2-0.5c-0.1-0.3-0.3-0.3-0.5-0.3c0,0,0-0.1,0-0.1
				c0-0.3,0.1-0.6,0.1-0.9c0-0.1-0.1-0.1-0.2-0.1c-0.5,0.1-0.7,1-0.8,1.5c-0.1,0.1-0.2,0.2-0.3,0.2c-0.2,0.2-0.5-0.4-0.7-0.5
				c0,0,0,0,0,0c0-0.3-0.1-0.7-0.3-0.9c-0.1-0.1-0.2-0.1-0.3,0c-0.2,0.4-0.1,0.7-0.1,1.1c-0.1,0.1-0.2,0.3-0.3,0.4
				c-0.2-0.1-0.4-0.2-0.5-0.4c0.1-0.2,0.1-0.3-0.1-0.4c0-0.1,0-0.1,0-0.2c0-0.3,0-0.5-0.1-0.8c0-0.1-0.2-0.2-0.3-0.1
				c-0.3,0.3-0.4,0.9-0.4,1.4c-0.1,0.2-0.2,0.3-0.4,0.4c0,0-0.5-0.5-0.5-0.6c0,0,0-0.1-0.1-0.1c0-0.2,0-0.4,0-0.6
				c0-0.4,0.1-0.7,0.1-1.1c0-0.1-0.2-0.2-0.2-0.1c-0.5,0.5-0.7,1.3-0.8,2c0,0-0.1,0.1-0.1,0.1c0,0,0-0.1,0-0.1c0-0.1,0-0.1-0.1-0.2
				c0-0.2,0-0.3,0-0.5c0.1-0.3,0.2-0.6,0.2-1c0-0.1,0-0.1-0.1-0.1c-0.6,0.2-0.9,0.7-1,1.3c0,0-0.1,0-0.1,0.1c0,0,0,0,0,0
				c0,0,0-0.1,0-0.1c0,0,0,0,0,0C122.9,66.4,123,64.3,124.3,63.4z M118.3,108.6c2.5-3,3.4-6.8,3.8-10.6c5.3,1.8,11.7,2.2,17.1,0.5
				c0.4,3.6,1.4,7.3,3.8,10.1c1.4,1.7,3.1,3.3,4.2,5.3c0.9,1.7,1.3,4.5,1.3,6.6c0,0.1,0,0.3,0,0.4c0,0-0.1,0.1,0,0.1
				c0,0,0,0.1,0,0.1c-0.1,2.5-0.2,4.9-0.2,7.4c0,1,0,2,0,2.9c-0.5,0.2-1,0.5-1.5,0.6c-1.1,0.3-2.3,0.2-3.3-0.2
				c-1.4-0.5-0.9-2.2-1.1-3.3c-0.2-1.2-0.6-2.3-1.1-3.4c-1.9-4.1-6.5-3.2-10.9-3.3c-4.4-0.1-8.3-0.8-10.5,2.9c-0.6,1-1,2.2-1.3,3.3
				c-0.2,1,0.1,2.9-0.8,3.5c-0.9,0.6-2.3,0.5-3.3,0.3c-0.5-0.1-1-0.3-1.5-0.5c0-1,0-1.9,0-2.9c0-2.5-0.1-4.9-0.2-7.4
				c0,0,0-0.1,0-0.1c0-0.1,0-0.1,0-0.1c0-0.1,0-0.2,0-0.3c0-2,0.5-4,1-6C114.4,112.2,116.8,110.4,118.3,108.6z M142.1,183.1
				c-3.8,0.8-7.7,0.6-11.5,0.6c-3.9,0-7.7,0.1-11.5-0.6c-1.8-0.3-3.7-0.8-5.1-2.1c-0.3-0.3-0.5-0.6-0.7-0.9c1.6,1.2,4,1.8,5.3,2.1
				c1.8,0.4,3.7,0.4,5.5,0.4c1.5,0,3.5,0.3,4.9-0.3c0.1,0,0.1-0.1,0-0.1c-0.2-0.1-0.3-0.1-0.5-0.1c4.8,0.1,9.6,0,14.3-0.9
				c2.6-0.5,4.4-1.5,5-3.7c0,0.4,0,0.9,0,1.3c0,0.2,0.1,0.3,0.1,0.4c-3.1,2.1-7.4,2.3-11,2.9c-0.1,0-0.1,0.2,0,0.2
				c3.6-0.2,7.3-0.1,10.6-1.8c-0.1,0.2-0.3,0.3-0.4,0.5C145.9,182.3,143.9,182.8,142.1,183.1z"/>
			<path id="XMLID_4410_" class="st3" d="M124.9,71.9c-0.3,0.1-0.5,0.2-0.7,0.5c-0.1,0.2-0.2,0.5,0.1,0.6c0.8,0.4,0.7,0.7,0.6,1.6
				c-0.1,0.7-0.2,1.3,0,1.9c0.1,0.3,0.6,0.3,0.6-0.1c0.1-0.9,0.2-1.9,0.2-2.8c0-0.5-0.2-0.7-0.5-1c0.4-0.1,0.8-0.1,1.2-0.2
				c0.3-0.1,0.4-0.6,0.1-0.7c-0.1-0.1-0.3-0.1-0.4-0.2c0.7-0.1,1.4-0.2,2.2-0.5c0.1,0,0.2-0.3,0-0.3c-1.2-0.2-2.5-0.1-3.7-0.4
				c-0.5-0.1-0.9,0.5-0.5,0.9C124.2,71.5,124.6,71.7,124.9,71.9z"/>
			<path id="XMLID_4407_" class="st3" d="M121.4,108.8c0.2-0.2,0.2-0.4,0.2-0.6c0.9-0.3,1.4-0.9,1.8-1.8c0.1-0.2,0.2-0.7,0.3-1.2
				c0.4,0.1,0.9,0.1,1.3-0.2c0.1-0.1,0.1-0.3,0-0.4c-0.3-0.2-0.7-0.4-1.1-0.5c0-0.3,0.1-0.5,0.1-0.5c0.1,0,0.2-0.1,0.3-0.2
				c0.3,0.2,0.6,0.3,0.9,0.4c0.7,0.3,1.3,0.2,2,0.2c0.2,0,0.2-0.3,0-0.4c-0.5-0.1-1-0.5-1.5-0.7c-0.3-0.2-0.6-0.4-0.9-0.6
				c0-0.1,0-0.1-0.1-0.2c0,0,0,0,0,0c0.7,0.2,1.5,0.4,2.2,0.6c1,0.3,1.8,0.3,2.8,0.1c0.1,0,0.1-0.3,0-0.3c-0.8-0.2-1.5-0.5-2.2-0.8
				c0.9,0.1,1.8,0.1,2.7,0c0.2,0,0.2-0.3,0-0.4c-2.3-0.7-4.9-1.7-7.3-1.6c-0.4,0-0.7,0.4-0.6,0.7c0.1,0.5,0.4,0.8,0.7,1.2
				c-0.5,0-0.7,0.6-0.4,1c0,0.1,0.1,0.1,0.1,0.2c-0.5,0.4-0.9,0.9-0.8,1.5c0.2,0.9-0.9,1.5-1.2,2.3c-0.3,0.6-0.4,1.4-0.2,2.1
				C120.8,109,121.2,109.1,121.4,108.8z M122.3,106.4c-0.1,0.2-0.2,0.3-0.3,0.5C122,106.7,122.1,106.6,122.3,106.4z"/>
			<path id="XMLID_4406_" class="st3" d="M118.9,110.9c0.3,0.1,0.6,0,1,0c0.4,0,0.6-0.3,0.5-0.6c0.2-0.1,0.4-0.2,0.6-0.3
				c0.1,0,0.2-0.2,0.1-0.3c-0.4-0.4-1-0.5-1.6-0.3c-0.2,0.1-0.4,0.3-0.4,0.5c-0.1,0-0.2,0.1-0.3,0.2
				C118.5,110.3,118.5,110.8,118.9,110.9z"/>
			<path id="XMLID_4405_" class="st3" d="M117.3,113.3c0.2-0.1,0.4-0.3,0.6-0.5c0.2-0.2,0.5-0.4,0.7-0.6c0,0,0-0.1,0.1-0.1
				c0.1,0,0.1,0,0.2,0c0.7,0,0.7-1.1,0-1.1c-0.2,0-0.3,0.1-0.4,0.2c-0.3-0.1-0.6,0-0.8,0.3c-0.1,0.2,0,0.5,0.2,0.6
				c0.1,0,0.2,0,0.2,0c-0.1,0.1-0.3,0.2-0.4,0.3c-0.2,0.1-0.5,0.2-0.7,0.2C116.4,112.7,116.7,113.6,117.3,113.3z"/>
			<path id="XMLID_4404_" class="st3" d="M116.5,114.5c0.1,0,0.1-0.1,0.2-0.1c0,0,0.1-0.1,0.1-0.1c0.1-0.1,0.1-0.1,0,0
				c0.2-0.1,0.2-0.4,0-0.5c-0.2,0-0.3-0.1-0.5-0.1c-0.2,0.1-0.3,0.2-0.4,0.4C115.9,114.4,116.2,114.7,116.5,114.5z"/>
			<path id="XMLID_4403_" class="st3" d="M116.1,116C116,116.1,116,116.1,116.1,116c0.1,0,0.1-0.1,0.2-0.2c0.1-0.1,0-0.3,0-0.4
				c0,0,0,0-0.1-0.1c-0.1-0.1-0.4-0.2-0.5-0.1c-0.1,0.1-0.2,0.1-0.2,0.2C115.2,115.9,115.8,116.3,116.1,116z"/>
			<path id="XMLID_4402_" class="st3" d="M115.1,118.1c0.1,0.4,0.6,0.4,0.8,0c0,0,0-0.1,0-0.1C116.2,117.4,114.9,117.4,115.1,118.1
				C115.1,118.1,115.1,118.1,115.1,118.1z"/>
			<path id="XMLID_4401_" class="st3" d="M115.3,120.5c0.1-0.2,0.1-0.4,0-0.6c0-0.2-0.3-0.2-0.3,0c-0.1,0.2-0.1,0.4,0,0.6
				C115.1,120.6,115.2,120.6,115.3,120.5z"/>
			<path id="XMLID_4400_" class="st3" d="M115.2,122.1c-0.1,0-0.2,0-0.2,0.2c0,0,0,0,0,0c0,0,0,0.1,0,0.1c0,0,0,0,0,0
				c0,0.2,0.3,0.2,0.4,0v0c0,0,0-0.1,0-0.1c0,0,0,0,0,0C115.4,122.1,115.3,122.1,115.2,122.1z"/>
			<path id="XMLID_4399_" class="st3" d="M115,125.4c0.2-0.2,0.3-0.6,0.4-0.8c0.1-0.3,0.1-0.7,0.1-1c0-0.2-0.3-0.3-0.3-0.1
				c-0.1,0.3-0.2,0.5-0.2,0.8c0,0.2,0,0.3,0,0.5c0,0.2-0.1,0.4-0.1,0.6C114.8,125.4,114.9,125.4,115,125.4z"/>
			<path id="XMLID_4398_" class="st3" d="M135.2,101.5c0.3,0,0.6,0,0.9-0.1c-0.7,0.1-1.5,0.2-2.2,0.3c-0.1,0-0.2,0.3,0,0.3
				c0.7,0.4,1.5,0.3,2.3,0.2c0.5-0.1,1.7-0.1,2-0.6c0.1-0.1,0.1-0.3,0-0.4c0,0,0.1,0,0.1,0c0.4-0.1,0.4-0.7,0-0.8
				c-0.8-0.3-2,0.1-2.8,0.2c-1.1,0.2-2.7-0.1-3.6,0.6c0,0,0,0,0,0C132.7,101.9,134.1,101.6,135.2,101.5z"/>
			<path id="XMLID_4397_" class="st3" d="M138.2,103c0.4-0.2,0.3-0.7-0.1-0.7c-0.4,0-0.9,0.1-1.3,0.1c-0.2,0-0.7-0.1-0.7,0.2
				c0,0,0,0,0,0.1c0,0.1,0.1,0.2,0.2,0.3C136.7,103.3,137.7,103.2,138.2,103z"/>
			<path id="XMLID_4396_" class="st3" d="M137.9,103.9c-0.4,0-0.9,0.1-1.3,0.2c-0.2,0-0.2,0.4,0,0.4c0.4,0.1,0.9,0.1,1.3,0.1
				c0.3,0,0.8-0.1,0.8-0.4C138.6,103.8,138.1,103.9,137.9,103.9z"/>
			<path id="XMLID_4395_" class="st3" d="M137.8,105.2c-0.2,0-0.2,0.3,0,0.3c0.3,0.1,0.6,0.1,0.8,0.1c0.3,0,0.5,0.1,0.7-0.1
				c0.1-0.1,0.1-0.2,0-0.3c-0.2-0.2-0.5-0.1-0.7-0.1C138.3,105.2,138.1,105.2,137.8,105.2z"/>
			<path id="XMLID_4394_" class="st3" d="M139.3,107.1c0.2,0,0.5,0,0.7-0.1c0.1-0.1,0.1-0.2,0-0.3c-0.2-0.1-0.4-0.1-0.7-0.1
				C138.9,106.6,138.9,107.1,139.3,107.1z"/>
			<path id="XMLID_4393_" class="st3" d="M141.5,108.7c0.1,0,0.2-0.2,0.1-0.3c-0.2-0.3-0.6-0.3-0.9-0.5c-0.3-0.1-0.5,0.2-0.3,0.4
				C140.7,108.6,141.1,108.9,141.5,108.7z"/>
			<path id="XMLID_4392_" class="st3" d="M142.4,111c0.1,0,0.1,0,0.2,0c0.3-0.1,0.3-0.5,0-0.5c-0.1,0-0.1,0-0.2,0
				C142,110.4,142,111,142.4,111z"/>
			<path id="XMLID_4391_" class="st3" d="M145.4,128.4c0.1,0.4,0.8,0.4,0.9,0c0.4-2.6,0.2-5.6,0.1-8.2c-0.1-2.4-0.4-5.2-2-7.1
				c-0.1-0.1-0.2,0-0.2,0.1c0.4,2.6,1,5,1.1,7.7C145.3,123.3,144.9,126,145.4,128.4z"/>
			<path id="XMLID_4390_" class="st3" d="M115.3,160.6c0.3-0.4,0.2-1.1,0.2-1.6c0-0.6,0-1.2-0.1-1.8c0-0.1-0.2-0.1-0.3,0
				c-0.1,0.6-0.2,1.2-0.3,1.8c-0.1,0.5-0.2,1.2,0.1,1.6C115.1,160.7,115.2,160.7,115.3,160.6z"/>
			<path id="XMLID_4389_" class="st3" d="M139.8,179c2.4,0.4,4.7-0.2,6.8-1.4c0.4-0.2,0.2-0.9-0.2-0.9c-0.3,0-0.5,0-0.8,0
				c0.3-0.2,0.6-0.4,0.9-0.6c0.2-0.2,0.2-0.6-0.1-0.8c0,0,0,0,0,0c0.2-0.5,0.1-1.4,0.4-2.1c0.1-0.2,0.1-0.4-0.1-0.6
				c-0.8-1.1-0.9-1.8-0.9-3c0-0.1-0.1-0.1-0.1,0c-0.6,1.3-0.5,1.3-0.1,2.7c0.1,0.4-0.1,2.7-0.5,2.7c-0.6,0-0.6,0.8-0.1,0.9
				c0,0,0,0,0,0c-0.5,0.2-0.9,0.3-1.5,0.4c-0.2,0-0.4,0.3-0.4,0.5c0,0,0,0.1,0,0.1c0,0.2,0.2,0.4,0.4,0.5c0.3,0.1,0.6,0.1,0.9,0.2
				c-1.5,0.5-3.1,0.7-4.7,1.1C139.6,178.7,139.6,179,139.8,179z"/>
			<path id="XMLID_4388_" class="st3" d="M145.9,167.6c0.1,0.4,0.5,0.2,0.6-0.1c0-0.2,0-0.5,0-0.7c0-0.2-0.1-0.4-0.3-0.4
				c-0.1,0-0.1,0-0.2,0c-0.2,0.1-0.4,0.3-0.3,0.5C145.7,167.1,145.8,167.3,145.9,167.6z"/>
			<path id="XMLID_4387_" class="st3" d="M146.1,164.1C146.1,164.1,146.1,164.1,146.1,164.1c0.2,0,0.3-0.4,0.1-0.4c0,0,0,0,0,0
				c-0.1-0.2-0.5,0-0.4,0.2c0,0,0,0,0,0C145.9,164,146,164.1,146.1,164.1z"/>
			<path id="XMLID_4386_" class="st3" d="M146.2,162.4c0,0,0,0.1,0,0.2c0,0.1,0.2,0.1,0.2,0c0-0.1,0-0.1,0-0.2
				C146.3,162.4,146.2,162.4,146.2,162.4z"/>
			<path id="XMLID_4385_" class="st3" d="M146,159.5c0,0.3,0.5,0.3,0.5,0c0,0,0,0,0,0C146.8,159,145.7,159,146,159.5
				C146,159.5,146,159.5,146,159.5z"/>
			<path id="XMLID_4384_" class="st3" d="M146.2,158c0.2,0,0.2-0.4,0-0.4C145.9,157.7,145.9,158,146.2,158z"/>
			<path id="XMLID_4383_" class="st3" d="M119.5,177.9c-0.8-0.1-1.5-0.4-2.2-0.7c1.2,0,2.4-0.1,2.8-0.3c0.1,0,0.1-0.2,0-0.2
				c-1.1-0.4-2.4-0.3-3.6-0.6c-0.1,0-0.3-0.1-0.5-0.2c0.7,0,1.3-0.1,2-0.3c0.1,0,0.1-0.2,0-0.2c-0.6-0.2-1.2-0.2-1.8-0.2
				c0,0,0.1,0,0.1,0c0.1,0,0.2-0.2,0.1-0.3c-0.3-0.3-0.8-0.6-1.3-0.6c0-0.1,0-0.1,0-0.2c0.2,0.2,0.7,0.2,0.9,0.2
				c0.1,0,0.2-0.3,0-0.3c-0.2-0.1-0.3-0.3-0.5-0.3c-0.1-0.1-0.3-0.1-0.4,0c0-0.2,0-0.5,0-0.7c0.1,0.1,0.2,0.1,0.4,0.1
				c0.2,0.1,0.4-0.2,0.2-0.4c-0.1-0.1-0.2-0.2-0.4-0.3c-0.1-0.1-0.1-0.1-0.2,0c0-0.1,0-0.2,0-0.3c0.1,0.1,0.2,0.1,0.3,0.1
				c0.2,0,0.2-0.3,0-0.3c0,0,0,0,0,0.1c0-0.1,0-0.1-0.1-0.2c0,0-0.1,0-0.1,0c0,0,0,0,0,0c0-0.3,0-0.5,0-0.7c0.1-2.8,0.3-5.7,0-8.4
				c0-0.1-0.2-0.2-0.2,0c-0.5,3.2-0.6,6.4-0.8,9.6c-0.1,1.6-0.4,4.6,1.2,5.6c0.2,0.1,0.3,0.1,0.5,0c0.8,0.5,1.7,0.7,2.6,0.9
				c1.5,0.3,3.1,0.5,4.5,0.4c0.1,0,0.1-0.1,0-0.2C121.9,178.2,120.7,178.1,119.5,177.9z"/>
			<path id="XMLID_4382_" class="st3" d="M130.5,170.7c-1.7-0.6-3.7-0.4-5.4-0.8c-2.4-0.6-4.2-2.1-5.5-4.1c0,0-0.1,0-0.1,0
				c0.6,2.1,2.1,3.4,4.1,4.2c1.8,0.7,4.9,1.6,6.8,1C130.6,171,130.6,170.8,130.5,170.7z"/>
			<path id="XMLID_4381_" class="st3" d="M133.2,171.1c0.4,0,0.8,0,1.1-0.3c0.1-0.1,0-0.2-0.1-0.2c-0.4-0.1-0.8,0-1.2,0
				c-0.4,0-0.8,0-1.1,0.1c-0.1,0-0.1,0.2,0,0.2C132.3,171.1,132.8,171.1,133.2,171.1z"/>
		</g>
		<g id="XMLID_4338_">
			<path id="XMLID_4369_" class="st3" d="M68.9,109.8c-1.6-1.7-3.1-3.2-4.1-5.3c-1.1-2.3-1.5-4.9-1.8-7.4c-0.5-4.5-0.5-9.1-0.9-13.6
				c-0.4-4.8-0.3-9.7-1.4-14.4c0,0,0,0,0-0.1c0.2,0.1,0.5,0.1,0.7,0c0.4-0.2,0.5-0.8,0.5-1.2c0-0.3-0.1-0.6-0.2-0.8
				c-0.2-1.4-1-4-2.1-5c-1.7-1.4-12.2-1.2-13.8-0.3c-1.7,0.9-2.1,4.1-2.5,5.8c0,0.2,0,0.3,0.1,0.4c0,0.4,0.1,0.8,0.5,1
				c0.2,0.1,0.5,0.1,0.7,0c0,0,0.1,0.1,0.1,0.1c-1,4.5-1,9.2-1.3,13.8c-0.4,4.6-0.5,9.1-0.9,13.7c-0.2,2.3-0.6,4.5-1.3,6.7
				c-0.8,2.5-2.4,4.3-4.2,6.2c-6,6.2-4,11.4-4.1,17c0,3.5,0,7.1,0,10.6c0,1.7,0,3.4-0.1,5.1c0,1.3-0.3,2.7,0.2,3.9
				c0.1,10.7,0.4,21.3,0.2,32c-0.3,1.1,0.2,2.7,0.6,3.4c1,1.6,3.1,2.4,4.8,2.9c4.5,1.4,9.5,1.1,14.1,1c4.6,0,9.3,0.2,13.8-1
				c1.8-0.4,3.9-1.3,5-2.8c0.5-0.7,1.2-2.6,0.8-3.7c-0.3-10.8,0.1-21.6,0.2-32.4c0.2-0.7,0.1-1.5,0.2-2.3c0-1.6,0-3.2,0-4.7
				c-0.1-3.6,0-7.1,0-10.7C72.6,119.9,74.3,115.5,68.9,109.8z M38.7,179.5c-2.3-0.7-2.9-2.4-3.1-4.2c0.1-6.4,0-12.8-0.1-19.2
				c0.3-0.1,0.6-0.3,0.9-0.4c1.1-0.3,2.3-0.2,3.3,0.2c1.4,0.5,0.9,2.2,1.1,3.3c0.2,1.2,0.6,2.3,1.1,3.4c1.9,4.1,6.4,6.6,10.8,6.7
				c4.4,0.1,8.5-2.6,10.6-6.3c0.6-1,1-2.2,1.3-3.3c0.2-1-0.1-2.9,0.8-3.5c0.9-0.6,2.3-0.5,3.3-0.3c0.6,0.1,1.1,0.4,1.7,0.6
				c-0.1,6.4-0.2,12.9-0.1,19.3c-0.3,1.1-0.5,2.2-1.4,3.1c-1.2,1.2-3.4,1.4-5,1.7c-4.3,0.7-8.8,0.6-13.1,0.6
				C46.5,181.1,42.5,180.7,38.7,179.5z M47.1,182c-1.6-0.1-3.2-0.2-4.7-0.5c-0.9-0.2-1.9-0.4-2.8-0.7c0.9,0.2,1.9,0.4,2.8,0.6
				C44,181.7,45.5,181.9,47.1,182z M46.6,68.9c0.2,0.3,0.5,0.5,0.7,0.6c0.4,0.1,0.7-0.1,0.9-0.4c0,0,0.1,0,0.1,0
				c0.3,0.3,0.6,0.6,1.1,0.6c0.1,0,0.3-0.1,0.4-0.3c0,0,0-0.1,0-0.1c0.1,0,0.1,0,0.2,0c0.2,0.3,0.6,0.5,0.9,0.4
				c0.2,0,0.4-0.2,0.6-0.3c0.1,0,0.2,0,0.3-0.1c0.2,0.3,0.4,0.5,0.8,0.5c0.1,0,0.1,0,0.2,0c0,0,0.1,0,0.2,0c0.3,0,0.6-0.2,0.8-0.5
				c0.1,0.1,0.2,0.1,0.2,0.1c0.2,0.1,0.4,0.3,0.6,0.3c0.4,0.1,0.7-0.2,1-0.4c0.1,0,0.1,0,0.2,0c0,0,0,0.1,0.1,0.1
				c0,0.1,0.2,0.3,0.4,0.3c0.4,0,0.8-0.3,1.1-0.6c0,0,0.1,0,0.1,0c0.2,0.3,0.6,0.5,0.9,0.4c0.2-0.1,0.5-0.3,0.7-0.6
				c0.2,0.2,0.6,0.3,0.8,0.4c-0.1,2.9,0,5.8,0.3,8.8c-1.8-0.2-3.8,0.2-5.6,0.3c-2.9,0.3-5.8,0.2-8.6-1c-0.1,0-0.1,0-0.2,0
				c0.2-2.7,0.3-5.4,0.2-8C46.1,69.3,46.4,69.1,46.6,68.9z M45.6,78.5c2.2,0.9,4.5,1.2,6.9,1.1c2.4-0.1,5.1-0.3,7.5-0.8
				c0,0.5,0.1,1.1,0.1,1.6c-2.6,0.4-5.2,0.9-7.9,1c-1.3,0.1-2.7,0-4.1-0.3c-1-0.3-1.8-0.8-2.7-1C45.5,79.5,45.6,79,45.6,78.5z
				 M52.9,82.8c2.2-0.2,5.2-0.3,7.3-1.5c0,0.4,0.1,0.8,0.1,1.1c-0.2,0-0.3,0.1-0.5,0.1c-0.4,0.1-0.8,0.2-1.1,0.3
				c-0.2,0.1-0.1,0.4,0.1,0.4c0.4,0,0.7-0.1,1.1-0.1c0.2,0,0.3,0,0.5-0.1c0,0.1,0,0.3,0,0.4c0,0.3,0,0.6,0.1,0.9
				c-0.3,0-0.5,0.1-0.8,0.1c-0.5,0.1-1,0.3-1.5,0.3c-0.3,0-0.2,0.5,0.1,0.5c0.5,0.1,1,0,1.5-0.1c0.3,0,0.6-0.1,0.8-0.3
				c0,0.4,0.1,0.9,0.1,1.3c-0.3,0.1-0.5,0.2-0.8,0.2c-0.4,0.1-0.8,0.1-1.2,0.1c-0.4,0-0.5,0.5-0.1,0.6c0.7,0.2,1.5,0.1,2.1-0.2
				c0,0.3,0,0.6,0,0.8c-0.2,0.1-0.4,0.1-0.6,0.2c-0.8,0.2-1.5,0.5-2.3,0.7c-0.1,0-0.1,0.2,0,0.3c0.7,0.1,1.3,0,1.9-0.1
				c0.3-0.1,0.6-0.2,1-0.2c0,0.3,0,0.7,0.1,1c-0.4,0-0.7,0.1-1.1,0.2c-1,0.2-1.9,0.4-2.9,0.6c0,0,0,0.1,0,0.1
				c0.9,0.2,1.6,0.2,2.5,0.1c0.5-0.1,1.1-0.1,1.6-0.2c0,0.2,0,0.4,0,0.6c0,0,0,0-0.1,0c-1.2,0.3-2.3,0.6-3.6,0.7
				c-0.9,0.1-1.9,0.1-2.8,0.2c-0.2,0-0.1,0.3,0,0.3c2,0.5,4.5,0.2,6.4-0.5c0,0.5,0,0.9,0.1,1.4c-0.7,0-1.5,0.3-2.2,0.3
				c-0.8,0.1-1.7,0-2.5,0.3c-0.2,0-0.2,0.3,0,0.4c1.2,0.3,3.3,0.5,4.6-0.1c-2,1.4-4.7,0.9-7.1,0.9c-1.6,0-3.2,0-4.9-0.1
				c-0.3,0-0.7-0.1-1-0.1c1.5,0,3-0.1,4.5-0.4c0.2,0,0.2-0.4,0-0.5c-2.5-0.5-5.1-0.3-7.7-0.8c0,0,0,0,0,0c0.5,0.1,1.2,0.1,1.7,0.1
				c1,0.1,2,0.3,2.9,0.2c0.2,0,0.3-0.2,0.1-0.3c-0.7-0.7-1.7-0.8-2.6-0.9c-0.7-0.1-1.4-0.3-2.1-0.3c0-0.3,0-0.5,0-0.8
				c1.1,0.2,2.2,0.5,3.3,0.1c0.2-0.1,0.2-0.3,0-0.3c-1.1-0.3-2.2-0.8-3.3-1c0-0.2,0-0.5,0-0.7c0.7,0.2,1.6,0.3,2.2,0.1
				c0.2-0.1,0.3-0.4,0.1-0.5c-0.6-0.4-1.4-0.7-2.2-0.8c0-0.3,0-0.7,0.1-1c0.6,0.2,1.3,0.3,1.9,0.2c0.2,0,0.4-0.3,0.2-0.5
				c-0.5-0.5-1.3-0.8-2-1c0-0.2,0-0.5,0-0.7c0.4,0,0.9-0.1,1.3-0.2c0.2,0,0.2-0.3,0-0.4C46,84.3,45.6,84,45.2,84c0-0.1,0-0.2,0-0.2
				c0.2,0.1,0.4,0.1,0.6,0.2c0.4,0.1,0.8,0.2,1.2,0.2c0.3,0,0.5-0.4,0.3-0.6c-0.3-0.2-0.7-0.4-1-0.5c-0.3-0.1-0.6-0.2-0.9-0.3
				c0-0.4,0.1-0.7,0.1-1.1C47.8,82.7,50.2,83,52.9,82.8z M44.5,95.5c2.7,1.7,7.1,1,10,1c1.7,0,5.2,0.3,6.6-1.2
				c0,0.6,0.1,1.3,0.1,1.9c0,0.1,0,0.2,0,0.3c-5.7,1.8-11.1,0.7-16.9-0.3C44.4,96.6,44.5,96,44.5,95.5z M46.5,63.4
				c1.2-0.8,11.2-0.7,12.3-0.1c1.1,0.6,1.5,2.3,1.8,3.5c0,0,0,0,0,0c0,0.3,0.1,0.5,0.2,0.8c0,0.1,0,0.3,0,0.4c0,0,0,0,0,0
				c0,0-0.1,0-0.1-0.1c-0.1-0.6-0.4-1.1-1-1.3c-0.1,0-0.1,0-0.1,0.1c0.1,0.3,0.2,0.6,0.2,1c0.1,0.3,0,0.5,0,0.8
				c-0.1,0-0.1-0.1-0.2-0.1c-0.1-0.7-0.3-1.5-0.8-2c-0.1-0.1-0.2,0-0.2,0.1c0,0.4,0.1,0.7,0.1,1.1c0,0.2,0,0.4,0,0.6
				c0,0-0.1,0.1-0.1,0.1c0,0.1-0.4,0.6-0.5,0.6c-0.2-0.1-0.3-0.3-0.4-0.4c0-0.5-0.1-1.1-0.4-1.4C57.2,66.8,57,66.9,57,67
				c-0.1,0.2-0.1,0.5-0.1,0.7c0,0.1,0,0.2,0,0.3c-0.1,0.1-0.2,0.3-0.1,0.4c-0.1,0.2-0.3,0.3-0.5,0.4c-0.1-0.1-0.2-0.3-0.3-0.4
				c0-0.4,0.1-0.8-0.1-1.1c-0.1-0.1-0.2-0.1-0.3,0c-0.2,0.3-0.3,0.6-0.3,0.9c0,0,0,0,0,0c-0.1,0.1-0.5,0.7-0.6,0.6
				c-0.1-0.1-0.2-0.2-0.4-0.3c-0.1-0.6-0.2-1.4-0.8-1.5c-0.1,0-0.2,0-0.2,0.1c-0.1,0.3,0.1,0.6,0.1,0.9c0,0,0,0.1,0,0.1
				c-0.2-0.1-0.4,0-0.5,0.3c0,0.1-0.1,0.4-0.2,0.5c-0.1-0.1-0.1-0.4-0.2-0.5c-0.1-0.3-0.3-0.3-0.5-0.3c0,0,0-0.1,0-0.1
				c0-0.3,0.1-0.6,0.1-0.9c0-0.1-0.1-0.1-0.2-0.1c-0.5,0.1-0.7,1-0.8,1.5c-0.1,0.1-0.2,0.2-0.3,0.2c-0.2,0.2-0.5-0.4-0.7-0.5
				c0,0,0,0,0,0c0-0.3-0.1-0.7-0.3-0.9c-0.1-0.1-0.2-0.1-0.3,0c-0.2,0.4-0.1,0.7-0.1,1.1c-0.1,0.1-0.2,0.3-0.3,0.4
				c-0.2-0.1-0.4-0.2-0.5-0.4c0.1-0.2,0.1-0.3-0.1-0.4c0-0.1,0-0.1,0-0.2c0-0.3,0-0.5-0.1-0.8c0-0.1-0.2-0.2-0.3-0.1
				c-0.3,0.3-0.4,0.9-0.4,1.4c-0.1,0.2-0.2,0.3-0.4,0.4c0,0-0.5-0.5-0.5-0.6c0,0,0-0.1-0.1-0.1c0-0.2,0-0.4,0-0.6
				c0-0.4,0.1-0.7,0.1-1.1c0-0.1-0.2-0.2-0.2-0.1c-0.5,0.5-0.7,1.3-0.8,2c0,0-0.1,0.1-0.1,0.1c0,0,0-0.1,0-0.1c0-0.1,0-0.1-0.1-0.2
				c0-0.2,0-0.3,0-0.5c0.1-0.3,0.2-0.6,0.2-1c0-0.1,0-0.1-0.1-0.1c-0.6,0.2-0.9,0.7-1,1.3c0,0-0.1,0-0.1,0.1c0,0,0,0,0,0
				c0,0,0-0.1,0-0.1c0,0,0,0,0,0C45.1,66.4,45.2,64.3,46.5,63.4z M40.4,108.6c2.5-3,3.4-6.8,3.8-10.6c5.3,1.8,11.7,2.2,17.1,0.5
				c0.4,3.6,1.4,7.3,3.8,10.1c1.4,1.7,3.1,3.3,4.2,5.3c0.9,1.7,1.3,4.5,1.3,6.6c0,0.1,0,0.3,0,0.4c0,0-0.1,0.1,0,0.1
				c0,0,0,0.1,0,0.1c-0.1,2.5-0.2,4.9-0.2,7.4c0,1,0,2,0,2.9c-0.5,0.2-1,0.5-1.5,0.6c-1.1,0.3-2.3,0.2-3.3-0.2
				c-1.4-0.5-0.9-2.2-1.1-3.3c-0.2-1.2-0.6-2.3-1.1-3.4c-1.9-4.1-6.5-3.2-10.9-3.3c-4.4-0.1-8.3-0.8-10.5,2.9c-0.6,1-1,2.2-1.3,3.3
				c-0.2,1,0.1,2.9-0.8,3.5c-0.9,0.6-2.3,0.5-3.3,0.3c-0.5-0.1-1-0.3-1.5-0.5c0-1,0-1.9,0-2.9c0-2.5-0.1-4.9-0.2-7.4
				c0,0,0-0.1,0-0.1c0-0.1,0-0.1,0-0.1c0-0.1,0-0.2,0-0.3c0-2,0.5-4,1-6C36.5,112.2,39,110.4,40.4,108.6z M64.3,183.1
				c-3.8,0.8-7.7,0.6-11.5,0.6c-3.9,0-7.7,0.1-11.5-0.6c-1.8-0.3-3.7-0.8-5.1-2.1c-0.3-0.3-0.5-0.6-0.7-0.9c1.6,1.2,4,1.8,5.3,2.1
				c1.8,0.4,3.7,0.4,5.5,0.4c1.5,0,3.5,0.3,4.9-0.3c0.1,0,0.1-0.1,0-0.1c-0.2-0.1-0.3-0.1-0.5-0.1c4.8,0.1,9.6,0,14.3-0.9
				c2.6-0.5,4.4-1.5,5-3.7c0,0.4,0,0.9,0,1.3c0,0.2,0.1,0.3,0.1,0.4c-3.1,2.1-7.4,2.3-11,2.9c-0.1,0-0.1,0.2,0,0.2
				c3.6-0.2,7.3-0.1,10.6-1.8c-0.1,0.2-0.3,0.3-0.4,0.5C68.1,182.3,66,182.8,64.3,183.1z"/>
			<path id="XMLID_4368_" class="st3" d="M47.1,71.9c-0.3,0.1-0.5,0.2-0.7,0.5c-0.1,0.2-0.2,0.5,0.1,0.6c0.8,0.4,0.7,0.7,0.6,1.6
				c-0.1,0.7-0.2,1.3,0,1.9c0.1,0.3,0.6,0.3,0.6-0.1c0.1-0.9,0.2-1.9,0.2-2.8c0-0.5-0.2-0.7-0.5-1c0.4-0.1,0.8-0.1,1.2-0.2
				c0.3-0.1,0.4-0.6,0.1-0.7c-0.1-0.1-0.3-0.1-0.4-0.2c0.7-0.1,1.4-0.2,2.2-0.5c0.1,0,0.2-0.3,0-0.3c-1.2-0.2-2.5-0.1-3.7-0.4
				c-0.5-0.1-0.9,0.5-0.5,0.9C46.4,71.5,46.7,71.7,47.1,71.9z"/>
			<path id="XMLID_4365_" class="st3" d="M43.6,108.8c0.2-0.2,0.2-0.4,0.2-0.6c0.9-0.3,1.4-0.9,1.8-1.8c0.1-0.2,0.2-0.7,0.3-1.2
				c0.4,0.1,0.9,0.1,1.3-0.2c0.1-0.1,0.1-0.3,0-0.4c-0.3-0.2-0.7-0.4-1.1-0.5c0-0.3,0.1-0.5,0.1-0.5c0.1,0,0.2-0.1,0.3-0.2
				c0.3,0.2,0.6,0.3,0.9,0.4c0.7,0.3,1.3,0.2,2,0.2c0.2,0,0.2-0.3,0-0.4c-0.5-0.1-1-0.5-1.5-0.7c-0.3-0.2-0.6-0.4-0.9-0.6
				c0-0.1,0-0.1-0.1-0.2c0,0,0,0,0,0c0.7,0.2,1.5,0.4,2.2,0.6c1,0.3,1.8,0.3,2.8,0.1c0.1,0,0.1-0.3,0-0.3c-0.8-0.2-1.5-0.5-2.2-0.8
				c0.9,0.1,1.8,0.1,2.7,0c0.2,0,0.2-0.3,0-0.4c-2.3-0.7-4.9-1.7-7.3-1.6c-0.4,0-0.7,0.4-0.6,0.7c0.1,0.5,0.4,0.8,0.7,1.2
				c-0.5,0-0.7,0.6-0.4,1c0,0.1,0.1,0.1,0.1,0.2c-0.5,0.4-0.9,0.9-0.8,1.5c0.2,0.9-0.9,1.5-1.2,2.3c-0.3,0.6-0.4,1.4-0.2,2.1
				C43,109,43.4,109.1,43.6,108.8z M44.5,106.4c-0.1,0.2-0.2,0.3-0.3,0.5C44.2,106.7,44.3,106.6,44.5,106.4z"/>
			<path id="XMLID_4364_" class="st3" d="M41.1,110.9c0.3,0.1,0.6,0,1,0c0.4,0,0.6-0.3,0.5-0.6c0.2-0.1,0.4-0.2,0.6-0.3
				c0.1,0,0.2-0.2,0.1-0.3c-0.4-0.4-1-0.5-1.6-0.3c-0.2,0.1-0.4,0.3-0.4,0.5c-0.1,0-0.2,0.1-0.3,0.2
				C40.6,110.3,40.7,110.8,41.1,110.9z"/>
			<path id="XMLID_4363_" class="st3" d="M39.4,113.3c0.2-0.1,0.4-0.3,0.6-0.5c0.2-0.2,0.5-0.4,0.7-0.6c0,0,0-0.1,0.1-0.1
				c0.1,0,0.1,0,0.2,0c0.7,0,0.7-1.1,0-1.1c-0.2,0-0.3,0.1-0.4,0.2c-0.3-0.1-0.6,0-0.8,0.3c-0.1,0.2,0,0.5,0.2,0.6
				c0.1,0,0.2,0,0.2,0c-0.1,0.1-0.3,0.2-0.4,0.3c-0.2,0.1-0.5,0.2-0.7,0.2C38.6,112.7,38.9,113.6,39.4,113.3z"/>
			<path id="XMLID_4362_" class="st3" d="M38.7,114.5c0.1,0,0.1-0.1,0.2-0.1c0,0,0.1-0.1,0.1-0.1c0.1-0.1,0.1-0.1,0,0
				c0.2-0.1,0.2-0.4,0-0.5c-0.2,0-0.3-0.1-0.5-0.1c-0.2,0.1-0.3,0.2-0.4,0.4C38,114.4,38.4,114.7,38.7,114.5z"/>
			<path id="XMLID_4361_" class="st3" d="M38.3,116C38.2,116.1,38.2,116.1,38.3,116c0.1,0,0.1-0.1,0.2-0.2c0.1-0.1,0-0.3,0-0.4
				c0,0,0,0-0.1-0.1c-0.1-0.1-0.4-0.2-0.5-0.1c-0.1,0.1-0.2,0.1-0.2,0.2C37.3,115.9,37.9,116.3,38.3,116z"/>
			<path id="XMLID_4360_" class="st3" d="M37.3,118.1c0.1,0.4,0.6,0.4,0.8,0c0,0,0-0.1,0-0.1C38.4,117.4,37.1,117.4,37.3,118.1
				C37.3,118.1,37.3,118.1,37.3,118.1z"/>
			<path id="XMLID_4359_" class="st3" d="M37.5,120.5c0.1-0.2,0.1-0.4,0-0.6c0-0.2-0.3-0.2-0.3,0c-0.1,0.2-0.1,0.4,0,0.6
				C37.3,120.6,37.4,120.6,37.5,120.5z"/>
			<path id="XMLID_4358_" class="st3" d="M37.3,122.1c-0.1,0-0.2,0-0.2,0.2c0,0,0,0,0,0c0,0,0,0.1,0,0.1c0,0,0,0,0,0
				c0,0.2,0.3,0.2,0.4,0v0c0,0,0-0.1,0-0.1c0,0,0,0,0,0C37.6,122.1,37.5,122.1,37.3,122.1z"/>
			<path id="XMLID_4357_" class="st3" d="M37.2,125.4c0.2-0.2,0.3-0.6,0.4-0.8c0.1-0.3,0.1-0.7,0.1-1c0-0.2-0.3-0.3-0.3-0.1
				c-0.1,0.3-0.2,0.5-0.2,0.8c0,0.2,0,0.3,0,0.5c0,0.2-0.1,0.4-0.1,0.6C37,125.4,37.1,125.4,37.2,125.4z"/>
			<path id="XMLID_4356_" class="st3" d="M57.4,101.5c0.3,0,0.6,0,0.9-0.1c-0.7,0.1-1.5,0.2-2.2,0.3c-0.1,0-0.2,0.3,0,0.3
				c0.7,0.4,1.5,0.3,2.3,0.2c0.5-0.1,1.7-0.1,2-0.6c0.1-0.1,0.1-0.3,0-0.4c0,0,0.1,0,0.1,0c0.4-0.1,0.4-0.7,0-0.8
				c-0.8-0.3-2,0.1-2.8,0.2c-1.1,0.2-2.7-0.1-3.6,0.6c0,0,0,0,0,0C54.9,101.9,56.3,101.6,57.4,101.5z"/>
			<path id="XMLID_4355_" class="st3" d="M60.4,103c0.4-0.2,0.3-0.7-0.1-0.7c-0.4,0-0.9,0.1-1.3,0.1c-0.2,0-0.7-0.1-0.7,0.2
				c0,0,0,0,0,0.1c0,0.1,0.1,0.2,0.2,0.3C58.9,103.3,59.8,103.2,60.4,103z"/>
			<path id="XMLID_4354_" class="st3" d="M60.1,103.9c-0.4,0-0.9,0.1-1.3,0.2c-0.2,0-0.2,0.4,0,0.4c0.4,0.1,0.9,0.1,1.3,0.1
				c0.3,0,0.8-0.1,0.8-0.4C60.8,103.8,60.3,103.9,60.1,103.9z"/>
			<path id="XMLID_4353_" class="st3" d="M60,105.2c-0.2,0-0.2,0.3,0,0.3c0.3,0.1,0.6,0.1,0.8,0.1c0.3,0,0.5,0.1,0.7-0.1
				c0.1-0.1,0.1-0.2,0-0.3c-0.2-0.2-0.5-0.1-0.7-0.1C60.5,105.2,60.2,105.2,60,105.2z"/>
			<path id="XMLID_4352_" class="st3" d="M61.5,107.1c0.2,0,0.5,0,0.7-0.1c0.1-0.1,0.1-0.2,0-0.3c-0.2-0.1-0.4-0.1-0.7-0.1
				C61.1,106.6,61.1,107.1,61.5,107.1z"/>
			<path id="XMLID_4351_" class="st3" d="M63.7,108.7c0.1,0,0.2-0.2,0.1-0.3c-0.2-0.3-0.6-0.3-0.9-0.5c-0.3-0.1-0.5,0.2-0.3,0.4
				C62.8,108.6,63.3,108.9,63.7,108.7z"/>
			<path id="XMLID_4350_" class="st3" d="M64.6,111c0.1,0,0.1,0,0.2,0c0.3-0.1,0.3-0.5,0-0.5c-0.1,0-0.1,0-0.2,0
				C64.2,110.4,64.2,111,64.6,111z"/>
			<path id="XMLID_4349_" class="st3" d="M67.5,128.4c0.1,0.4,0.8,0.4,0.9,0c0.4-2.6,0.2-5.6,0.1-8.2c-0.1-2.4-0.4-5.2-2-7.1
				c-0.1-0.1-0.2,0-0.2,0.1c0.4,2.6,1,5,1.1,7.7C67.5,123.3,67.1,126,67.5,128.4z"/>
			<path id="XMLID_4348_" class="st3" d="M37.5,160.6c0.3-0.4,0.2-1.1,0.2-1.6c0-0.6,0-1.2-0.1-1.8c0-0.1-0.2-0.1-0.3,0
				c-0.1,0.6-0.2,1.2-0.3,1.8c-0.1,0.5-0.2,1.2,0.1,1.6C37.3,160.7,37.4,160.7,37.5,160.6z"/>
			<path id="XMLID_4347_" class="st3" d="M62,179c2.4,0.4,4.7-0.2,6.8-1.4c0.4-0.2,0.2-0.9-0.2-0.9c-0.3,0-0.5,0-0.8,0
				c0.3-0.2,0.6-0.4,0.9-0.6c0.2-0.2,0.2-0.6-0.1-0.8c0,0,0,0,0,0c0.2-0.5,0.1-1.4,0.4-2.1c0.1-0.2,0.1-0.4-0.1-0.6
				c-0.8-1.1-0.9-1.8-0.9-3c0-0.1-0.1-0.1-0.1,0c-0.6,1.3-0.5,1.3-0.1,2.7c0.1,0.4-0.1,2.7-0.5,2.7c-0.6,0-0.6,0.8-0.1,0.9
				c0,0,0,0,0,0c-0.5,0.2-0.9,0.3-1.5,0.4c-0.2,0-0.4,0.3-0.4,0.5c0,0,0,0.1,0,0.1c0,0.2,0.2,0.4,0.4,0.5c0.3,0.1,0.6,0.1,0.9,0.2
				c-1.5,0.5-3.1,0.7-4.7,1.1C61.8,178.7,61.8,179,62,179z"/>
			<path id="XMLID_4346_" class="st3" d="M68.1,167.6c0.1,0.4,0.5,0.2,0.6-0.1c0-0.2,0-0.5,0-0.7c0-0.2-0.1-0.4-0.3-0.4
				c-0.1,0-0.1,0-0.2,0c-0.2,0.1-0.4,0.3-0.3,0.5C67.9,167.1,68,167.3,68.1,167.6z"/>
			<path id="XMLID_4345_" class="st3" d="M68.3,164.1C68.3,164.1,68.3,164.1,68.3,164.1c0.2,0,0.3-0.4,0.1-0.4c0,0,0,0,0,0
				c-0.1-0.2-0.5,0-0.4,0.2c0,0,0,0,0,0C68,164,68.2,164.1,68.3,164.1z"/>
			<path id="XMLID_4344_" class="st3" d="M68.4,162.4c0,0,0,0.1,0,0.2c0,0.1,0.2,0.1,0.2,0c0-0.1,0-0.1,0-0.2
				C68.5,162.4,68.4,162.4,68.4,162.4z"/>
			<path id="XMLID_4343_" class="st3" d="M68.2,159.5c0,0.3,0.5,0.3,0.5,0c0,0,0,0,0,0C69,159,67.9,159,68.2,159.5
				C68.2,159.5,68.2,159.5,68.2,159.5z"/>
			<path id="XMLID_4342_" class="st3" d="M68.3,158c0.2,0,0.2-0.4,0-0.4C68.1,157.7,68.1,158,68.3,158z"/>
			<path id="XMLID_4341_" class="st3" d="M41.7,177.9c-0.8-0.1-1.5-0.4-2.2-0.7c1.2,0,2.4-0.1,2.8-0.3c0.1,0,0.1-0.2,0-0.2
				c-1.1-0.4-2.4-0.3-3.6-0.6c-0.1,0-0.3-0.1-0.5-0.2c0.7,0,1.3-0.1,2-0.3c0.1,0,0.1-0.2,0-0.2c-0.6-0.2-1.2-0.2-1.8-0.2
				c0,0,0.1,0,0.1,0c0.1,0,0.2-0.2,0.1-0.3c-0.3-0.3-0.8-0.6-1.3-0.6c0-0.1,0-0.1,0-0.2c0.2,0.2,0.7,0.2,0.9,0.2
				c0.1,0,0.2-0.3,0-0.3c-0.2-0.1-0.3-0.3-0.5-0.3c-0.1-0.1-0.3-0.1-0.4,0c0-0.2,0-0.5,0-0.7c0.1,0.1,0.2,0.1,0.4,0.1
				c0.2,0.1,0.4-0.2,0.2-0.4c-0.1-0.1-0.2-0.2-0.4-0.3c-0.1-0.1-0.1-0.1-0.2,0c0-0.1,0-0.2,0-0.3c0.1,0.1,0.2,0.1,0.3,0.1
				c0.2,0,0.2-0.3,0-0.3c0,0,0,0,0,0.1c0-0.1,0-0.1-0.1-0.2c0,0-0.1,0-0.1,0c0,0,0,0,0,0c0-0.3,0-0.5,0-0.7c0.1-2.8,0.3-5.7,0-8.4
				c0-0.1-0.2-0.2-0.2,0c-0.5,3.2-0.6,6.4-0.8,9.6c-0.1,1.6-0.4,4.6,1.2,5.6c0.2,0.1,0.3,0.1,0.5,0c0.8,0.5,1.7,0.7,2.6,0.9
				c1.5,0.3,3.1,0.5,4.5,0.4c0.1,0,0.1-0.1,0-0.2C44.1,178.2,42.9,178.1,41.7,177.9z"/>
			<path id="XMLID_4340_" class="st3" d="M52.7,170.7c-1.7-0.6-3.7-0.4-5.4-0.8c-2.4-0.6-4.2-2.1-5.5-4.1c0,0-0.1,0-0.1,0
				c0.6,2.1,2.1,3.4,4.1,4.2c1.8,0.7,4.9,1.6,6.8,1C52.8,171,52.8,170.8,52.7,170.7z"/>
			<path id="XMLID_4339_" class="st3" d="M55.4,171.1c0.4,0,0.8,0,1.1-0.3c0.1-0.1,0-0.2-0.1-0.2c-0.4-0.1-0.8,0-1.2,0
				c-0.4,0-0.8,0-1.1,0.1c-0.1,0-0.1,0.2,0,0.2C54.5,171.1,55,171.1,55.4,171.1z"/>
		</g>
	</g>
	<g id="XMLID_4322_">
		<g id="XMLID_4324_">
			<polygon id="XMLID_4329_" class="st3" points="67.9,36.3 63.7,38.4 64.5,33.8 61.2,30.6 65.8,29.9 67.9,25.7 69.9,29.9 
				74.6,30.6 71.2,33.8 72,38.4 			"/>
		</g>
	</g>
	<g id="XMLID_4319_">
		<g id="XMLID_4320_">
			<polygon id="XMLID_4321_" class="st3" points="91.3,36.1 82.7,40.6 84.4,31.1 77.4,24.3 87,22.9 91.3,14.1 95.6,22.9 105.3,24.3 
				98.3,31.1 99.9,40.6 			"/>
		</g>
	</g>
	<g id="XMLID_4316_">
		<g id="XMLID_4317_">
			<polygon id="XMLID_4318_" class="st3" points="116.7,36.3 112.6,38.4 113.4,33.8 110,30.6 114.7,29.9 116.7,25.7 118.8,29.9 
				123.4,30.6 120.1,33.8 120.9,38.4 			"/>
		</g>
	</g>
</g>
</svg>
